M48
; DRILL file {KiCad (5.1.7-0-10_14)} date Wednesday, October 21, 2020 at 09:17:30 AM
; FORMAT={-:-/ absolute / inch / decimal}
; #@! TF.CreationDate,2020-10-21T09:17:30+08:00
; #@! TF.GenerationSoftware,Kicad,Pcbnew,(5.1.7-0-10_14)
; #@! TF.FileFunction,Plated,1,4,PTH
FMAT,2
INCH
T1C0.0079
T2C0.0157
T3C0.0236
T4C0.0433
T5C0.1063
%
G90
G05
T1
X4.4449Y-1.9646
X4.4449Y-1.9961
X4.6265Y-2.1468
X4.6681Y-2.1457
X4.752Y-2.1063
X4.8018Y-1.9774
X4.8268Y-1.937
X4.8583Y-2.1329
X4.8858Y-1.8976
X4.9173Y-2.1575
X4.9449Y-1.8976
X4.9685Y-2.1339
X5.023Y-2.0383
X5.063Y-1.5394
X5.0787Y-2.2402
X5.0827Y-1.815
X5.0876Y-1.622
X5.1171Y-1.8622
X5.1224Y-1.902
T2
X4.3937Y-1.752
X4.4094Y-1.8425
X4.4094Y-2.1535
X4.4331Y-1.9016
X4.6535Y-1.874
X4.685Y-1.874
X4.685Y-1.9055
X4.685Y-1.937
X4.7165Y-1.874
X4.7165Y-1.9055
X4.7165Y-1.937
X4.748Y-1.874
X4.748Y-1.9055
X4.748Y-1.937
X4.7795Y-1.874
X4.8701Y-1.9724
X4.8701Y-2.0079
X4.8701Y-2.0433
X4.9055Y-1.9724
X4.9055Y-2.0079
X4.9055Y-2.0433
X4.9409Y-1.9724
X4.9409Y-2.0079
X4.9409Y-2.0433
X5.1024Y-2.0197
X5.1417Y-2.2205
X5.2056Y-1.9419
X5.2205Y-2.1181
X5.2288Y-1.6845
T4
X4.7504Y-2.2874
X4.8504Y-2.2874
T5
X5.1953Y-2.3504
X4.3685Y-2.3524
X5.1953Y-1.5236
X4.3681Y-1.5217
T3
G00X4.6213Y-1.5207
M15
G01X4.6213Y-1.497
M16
G05
G00X4.6213Y-1.6951
M15
G01X4.6213Y-1.6518
M16
G05
G00X4.9614Y-1.5207
M15
G01X4.9614Y-1.497
M16
G05
G00X4.9614Y-1.6951
M15
G01X4.9614Y-1.6518
M16
G05
T0
M30
