%FSLAX45Y45*%
G04 Gerber Fmt 4.5, Leading zero omitted, Abs format (unit mm)*
G04 Created by KiCad (PCBNEW (5.1.7-0-10_14)) date 2020-10-21 07:28:00*
%MOMM*%
%LPD*%
G01*
G04 APERTURE LIST*
%TA.AperFunction,Profile*%
%ADD10C,0.050000*%
%TD*%
%ADD11C,0.200000*%
%ADD12C,0.300000*%
G04 APERTURE END LIST*
D10*
X10880000Y-3865000D02*
G75*
G02*
X11095000Y-3650000I215000J0D01*
G01*
X11095000Y-6190000D02*
G75*
G02*
X10880000Y-5975000I0J215000D01*
G01*
X13416000Y-5970000D02*
G75*
G02*
X13196000Y-6190000I-220000J0D01*
G01*
X13196000Y-3650000D02*
G75*
G02*
X13416000Y-3870000I0J-220000D01*
G01*
X10880000Y-5975000D02*
X10880000Y-3865000D01*
X13196000Y-6190000D02*
X11095000Y-6190000D01*
X13416000Y-3870000D02*
X13416000Y-5970000D01*
X11095000Y-3650000D02*
X13196000Y-3650000D01*
D11*
X11279999Y-4980000D02*
X11299999Y-5000000D01*
X11299999Y-4980000D02*
X11279999Y-5000000D01*
X11280000Y-5060000D02*
X11300000Y-5080000D01*
X11300000Y-5060000D02*
X11280000Y-5080000D01*
X11741302Y-5442848D02*
X11761302Y-5462848D01*
X11761302Y-5442848D02*
X11741302Y-5462848D01*
X11847017Y-5440146D02*
X11867017Y-5460146D01*
X11867017Y-5440146D02*
X11847017Y-5460146D01*
X12060000Y-5340000D02*
X12080000Y-5360000D01*
X12080000Y-5340000D02*
X12060000Y-5360000D01*
X12186694Y-5012499D02*
X12206694Y-5032499D01*
X12206694Y-5012499D02*
X12186694Y-5032499D01*
X12250000Y-4910000D02*
X12270000Y-4930000D01*
X12270000Y-4910000D02*
X12250000Y-4930000D01*
X12330000Y-5407499D02*
X12350000Y-5427499D01*
X12350000Y-5407499D02*
X12330000Y-5427499D01*
X12400000Y-4810000D02*
X12420000Y-4830000D01*
X12420000Y-4810000D02*
X12400000Y-4830000D01*
X12480001Y-5470000D02*
X12500001Y-5490000D01*
X12500001Y-5470000D02*
X12480001Y-5490000D01*
X12550000Y-4810000D02*
X12570000Y-4830000D01*
X12570000Y-4810000D02*
X12550000Y-4830000D01*
X12610000Y-5410000D02*
X12630000Y-5430000D01*
X12630000Y-5410000D02*
X12610000Y-5430000D01*
X12748501Y-5167251D02*
X12768501Y-5187251D01*
X12768501Y-5167251D02*
X12748501Y-5187251D01*
X12850000Y-3900000D02*
X12870000Y-3920000D01*
X12870000Y-3900000D02*
X12850000Y-3920000D01*
X12890000Y-5680000D02*
X12910000Y-5700000D01*
X12910000Y-5680000D02*
X12890000Y-5700000D01*
X12900000Y-4600000D02*
X12920000Y-4620000D01*
X12920000Y-4600000D02*
X12900000Y-4620000D01*
X12912501Y-4110000D02*
X12932501Y-4130000D01*
X12932501Y-4110000D02*
X12912501Y-4130000D01*
X12987499Y-4720000D02*
X13007499Y-4740000D01*
X13007499Y-4720000D02*
X12987499Y-4740000D01*
X13001021Y-4821021D02*
X13021021Y-4841021D01*
X13021021Y-4821021D02*
X13001021Y-4841021D01*
X11180000Y-4450000D02*
G75*
G03*
X11180000Y-4450000I-20000J0D01*
G01*
X11220000Y-4679999D02*
G75*
G03*
X11220000Y-4679999I-20000J0D01*
G01*
X11220000Y-5470000D02*
G75*
G03*
X11220000Y-5470000I-20000J0D01*
G01*
X11280000Y-4830000D02*
G75*
G03*
X11280000Y-4830000I-20000J0D01*
G01*
X11840000Y-4760000D02*
G75*
G03*
X11840000Y-4760000I-20000J0D01*
G01*
X11920000Y-4760000D02*
G75*
G03*
X11920000Y-4760000I-20000J0D01*
G01*
X11920000Y-4840000D02*
G75*
G03*
X11920000Y-4840000I-20000J0D01*
G01*
X11920000Y-4920000D02*
G75*
G03*
X11920000Y-4920000I-20000J0D01*
G01*
X12000000Y-4760000D02*
G75*
G03*
X12000000Y-4760000I-20000J0D01*
G01*
X12000000Y-4840000D02*
G75*
G03*
X12000000Y-4840000I-20000J0D01*
G01*
X12000000Y-4920000D02*
G75*
G03*
X12000000Y-4920000I-20000J0D01*
G01*
X12080000Y-4760000D02*
G75*
G03*
X12080000Y-4760000I-20000J0D01*
G01*
X12080000Y-4840000D02*
G75*
G03*
X12080000Y-4840000I-20000J0D01*
G01*
X12080000Y-4920000D02*
G75*
G03*
X12080000Y-4920000I-20000J0D01*
G01*
X12160000Y-4760000D02*
G75*
G03*
X12160000Y-4760000I-20000J0D01*
G01*
X12390000Y-5010000D02*
G75*
G03*
X12390000Y-5010000I-20000J0D01*
G01*
X12390000Y-5100000D02*
G75*
G03*
X12390000Y-5100000I-20000J0D01*
G01*
X12390000Y-5190000D02*
G75*
G03*
X12390000Y-5190000I-20000J0D01*
G01*
X12480000Y-5010000D02*
G75*
G03*
X12480000Y-5010000I-20000J0D01*
G01*
X12480000Y-5100000D02*
G75*
G03*
X12480000Y-5100000I-20000J0D01*
G01*
X12480000Y-5190000D02*
G75*
G03*
X12480000Y-5190000I-20000J0D01*
G01*
X12570000Y-5010000D02*
G75*
G03*
X12570000Y-5010000I-20000J0D01*
G01*
X12570000Y-5100000D02*
G75*
G03*
X12570000Y-5100000I-20000J0D01*
G01*
X12570000Y-5190000D02*
G75*
G03*
X12570000Y-5190000I-20000J0D01*
G01*
X12980000Y-5130000D02*
G75*
G03*
X12980000Y-5130000I-20000J0D01*
G01*
X13080000Y-5640000D02*
G75*
G03*
X13080000Y-5640000I-20000J0D01*
G01*
X13242308Y-4932308D02*
G75*
G03*
X13242308Y-4932308I-20000J0D01*
G01*
X13280000Y-5380001D02*
G75*
G03*
X13280000Y-5380001I-20000J0D01*
G01*
X13301250Y-4278751D02*
G75*
G03*
X13301250Y-4278751I-20000J0D01*
G01*
X11738000Y-3802500D02*
X11738000Y-3862500D01*
X11708000Y-3832500D02*
X11768000Y-3832500D01*
X11758000Y-3862500D02*
X11758000Y-3802500D01*
X11718000Y-3862500D02*
X11718000Y-3802500D01*
X11758000Y-3802500D02*
G75*
G03*
X11718000Y-3802500I-20000J0D01*
G01*
X11718000Y-3862500D02*
G75*
G03*
X11758000Y-3862500I20000J0D01*
G01*
X11738000Y-4220500D02*
X11738000Y-4280500D01*
X11708000Y-4250500D02*
X11768000Y-4250500D01*
X11758000Y-4305500D02*
X11758000Y-4195500D01*
X11718000Y-4305500D02*
X11718000Y-4195500D01*
X11758000Y-4195500D02*
G75*
G03*
X11718000Y-4195500I-20000J0D01*
G01*
X11718000Y-4305500D02*
G75*
G03*
X11758000Y-4305500I20000J0D01*
G01*
X12602000Y-3802500D02*
X12602000Y-3862500D01*
X12572000Y-3832500D02*
X12632000Y-3832500D01*
X12622000Y-3862500D02*
X12622000Y-3802500D01*
X12582000Y-3862500D02*
X12582000Y-3802500D01*
X12622000Y-3802500D02*
G75*
G03*
X12582000Y-3802500I-20000J0D01*
G01*
X12582000Y-3862500D02*
G75*
G03*
X12622000Y-3862500I20000J0D01*
G01*
X12602000Y-4220500D02*
X12602000Y-4280500D01*
X12572000Y-4250500D02*
X12632000Y-4250500D01*
X12622000Y-4305500D02*
X12622000Y-4195500D01*
X12582000Y-4305500D02*
X12582000Y-4195500D01*
X12622000Y-4195500D02*
G75*
G03*
X12582000Y-4195500I-20000J0D01*
G01*
X12582000Y-4305500D02*
G75*
G03*
X12622000Y-4305500I20000J0D01*
G01*
X12104891Y-5848891D02*
X12104891Y-5771109D01*
X12027109Y-5771109D01*
X12027109Y-5848891D01*
X12104891Y-5848891D01*
X12358891Y-5848891D02*
X12358891Y-5771109D01*
X12281109Y-5771109D01*
X12281109Y-5848891D01*
X12358891Y-5848891D01*
X13196000Y-6105000D02*
X13331000Y-5970000D01*
X13196000Y-5835000D01*
X13061000Y-5970000D01*
X13196000Y-6105000D01*
X11095000Y-4000000D02*
X11230000Y-3865000D01*
X11095000Y-3730000D01*
X10960000Y-3865000D01*
X11095000Y-4000000D01*
X11096000Y-6110000D02*
X11231000Y-5975000D01*
X11096000Y-5840000D01*
X10961000Y-5975000D01*
X11096000Y-6110000D01*
X13196000Y-4005000D02*
X13331000Y-3870000D01*
X13196000Y-3735000D01*
X13061000Y-3870000D01*
X13196000Y-4005000D01*
D12*
X11163928Y-6658214D02*
X11163928Y-6358214D01*
X11235357Y-6358214D01*
X11278214Y-6372500D01*
X11306786Y-6401071D01*
X11321071Y-6429643D01*
X11335357Y-6486786D01*
X11335357Y-6529643D01*
X11321071Y-6586786D01*
X11306786Y-6615357D01*
X11278214Y-6643929D01*
X11235357Y-6658214D01*
X11163928Y-6658214D01*
X11463928Y-6658214D02*
X11463928Y-6458214D01*
X11463928Y-6515357D02*
X11478214Y-6486786D01*
X11492500Y-6472500D01*
X11521071Y-6458214D01*
X11549643Y-6458214D01*
X11649643Y-6658214D02*
X11649643Y-6458214D01*
X11649643Y-6358214D02*
X11635357Y-6372500D01*
X11649643Y-6386786D01*
X11663928Y-6372500D01*
X11649643Y-6358214D01*
X11649643Y-6386786D01*
X11835357Y-6658214D02*
X11806786Y-6643929D01*
X11792500Y-6615357D01*
X11792500Y-6358214D01*
X11992500Y-6658214D02*
X11963928Y-6643929D01*
X11949643Y-6615357D01*
X11949643Y-6358214D01*
X12335357Y-6658214D02*
X12335357Y-6358214D01*
X12435357Y-6572500D01*
X12535357Y-6358214D01*
X12535357Y-6658214D01*
X12806786Y-6658214D02*
X12806786Y-6501071D01*
X12792500Y-6472500D01*
X12763928Y-6458214D01*
X12706786Y-6458214D01*
X12678214Y-6472500D01*
X12806786Y-6643929D02*
X12778214Y-6658214D01*
X12706786Y-6658214D01*
X12678214Y-6643929D01*
X12663928Y-6615357D01*
X12663928Y-6586786D01*
X12678214Y-6558214D01*
X12706786Y-6543929D01*
X12778214Y-6543929D01*
X12806786Y-6529643D01*
X12949643Y-6458214D02*
X12949643Y-6758214D01*
X12949643Y-6472500D02*
X12978214Y-6458214D01*
X13035357Y-6458214D01*
X13063928Y-6472500D01*
X13078214Y-6486786D01*
X13092500Y-6515357D01*
X13092500Y-6601071D01*
X13078214Y-6629643D01*
X13063928Y-6643929D01*
X13035357Y-6658214D01*
X12978214Y-6658214D01*
X12949643Y-6643929D01*
X13221071Y-6629643D02*
X13235357Y-6643929D01*
X13221071Y-6658214D01*
X13206786Y-6643929D01*
X13221071Y-6629643D01*
X13221071Y-6658214D01*
X13221071Y-6472500D02*
X13235357Y-6486786D01*
X13221071Y-6501071D01*
X13206786Y-6486786D01*
X13221071Y-6472500D01*
X13221071Y-6501071D01*
X10857500Y-7142500D02*
X10877500Y-7162500D01*
X10877500Y-7142500D02*
X10857500Y-7162500D01*
X11221071Y-6988214D02*
X11249643Y-6988214D01*
X11278214Y-7002500D01*
X11292500Y-7016786D01*
X11306786Y-7045357D01*
X11321071Y-7102500D01*
X11321071Y-7173929D01*
X11306786Y-7231071D01*
X11292500Y-7259643D01*
X11278214Y-7273929D01*
X11249643Y-7288214D01*
X11221071Y-7288214D01*
X11192500Y-7273929D01*
X11178214Y-7259643D01*
X11163928Y-7231071D01*
X11149643Y-7173929D01*
X11149643Y-7102500D01*
X11163928Y-7045357D01*
X11178214Y-7016786D01*
X11192500Y-7002500D01*
X11221071Y-6988214D01*
X11449643Y-7259643D02*
X11463928Y-7273929D01*
X11449643Y-7288214D01*
X11435357Y-7273929D01*
X11449643Y-7259643D01*
X11449643Y-7288214D01*
X11578214Y-7016786D02*
X11592500Y-7002500D01*
X11621071Y-6988214D01*
X11692500Y-6988214D01*
X11721071Y-7002500D01*
X11735357Y-7016786D01*
X11749643Y-7045357D01*
X11749643Y-7073929D01*
X11735357Y-7116786D01*
X11563928Y-7288214D01*
X11749643Y-7288214D01*
X11935357Y-6988214D02*
X11963928Y-6988214D01*
X11992500Y-7002500D01*
X12006786Y-7016786D01*
X12021071Y-7045357D01*
X12035357Y-7102500D01*
X12035357Y-7173929D01*
X12021071Y-7231071D01*
X12006786Y-7259643D01*
X11992500Y-7273929D01*
X11963928Y-7288214D01*
X11935357Y-7288214D01*
X11906786Y-7273929D01*
X11892500Y-7259643D01*
X11878214Y-7231071D01*
X11863928Y-7173929D01*
X11863928Y-7102500D01*
X11878214Y-7045357D01*
X11892500Y-7016786D01*
X11906786Y-7002500D01*
X11935357Y-6988214D01*
X12163928Y-7288214D02*
X12163928Y-7088214D01*
X12163928Y-7116786D02*
X12178214Y-7102500D01*
X12206786Y-7088214D01*
X12249643Y-7088214D01*
X12278214Y-7102500D01*
X12292500Y-7131071D01*
X12292500Y-7288214D01*
X12292500Y-7131071D02*
X12306786Y-7102500D01*
X12335357Y-7088214D01*
X12378214Y-7088214D01*
X12406786Y-7102500D01*
X12421071Y-7131071D01*
X12421071Y-7288214D01*
X12563928Y-7288214D02*
X12563928Y-7088214D01*
X12563928Y-7116786D02*
X12578214Y-7102500D01*
X12606786Y-7088214D01*
X12649643Y-7088214D01*
X12678214Y-7102500D01*
X12692500Y-7131071D01*
X12692500Y-7288214D01*
X12692500Y-7131071D02*
X12706786Y-7102500D01*
X12735357Y-7088214D01*
X12778214Y-7088214D01*
X12806786Y-7102500D01*
X12821071Y-7131071D01*
X12821071Y-7288214D01*
X13406786Y-6973929D02*
X13149643Y-7359643D01*
X13792500Y-6988214D02*
X13821071Y-6988214D01*
X13849643Y-7002500D01*
X13863928Y-7016786D01*
X13878214Y-7045357D01*
X13892500Y-7102500D01*
X13892500Y-7173929D01*
X13878214Y-7231071D01*
X13863928Y-7259643D01*
X13849643Y-7273929D01*
X13821071Y-7288214D01*
X13792500Y-7288214D01*
X13763928Y-7273929D01*
X13749643Y-7259643D01*
X13735357Y-7231071D01*
X13721071Y-7173929D01*
X13721071Y-7102500D01*
X13735357Y-7045357D01*
X13749643Y-7016786D01*
X13763928Y-7002500D01*
X13792500Y-6988214D01*
X14021071Y-7259643D02*
X14035357Y-7273929D01*
X14021071Y-7288214D01*
X14006786Y-7273929D01*
X14021071Y-7259643D01*
X14021071Y-7288214D01*
X14221071Y-6988214D02*
X14249643Y-6988214D01*
X14278214Y-7002500D01*
X14292500Y-7016786D01*
X14306786Y-7045357D01*
X14321071Y-7102500D01*
X14321071Y-7173929D01*
X14306786Y-7231071D01*
X14292500Y-7259643D01*
X14278214Y-7273929D01*
X14249643Y-7288214D01*
X14221071Y-7288214D01*
X14192500Y-7273929D01*
X14178214Y-7259643D01*
X14163928Y-7231071D01*
X14149643Y-7173929D01*
X14149643Y-7102500D01*
X14163928Y-7045357D01*
X14178214Y-7016786D01*
X14192500Y-7002500D01*
X14221071Y-6988214D01*
X14506786Y-6988214D02*
X14535357Y-6988214D01*
X14563928Y-7002500D01*
X14578214Y-7016786D01*
X14592500Y-7045357D01*
X14606786Y-7102500D01*
X14606786Y-7173929D01*
X14592500Y-7231071D01*
X14578214Y-7259643D01*
X14563928Y-7273929D01*
X14535357Y-7288214D01*
X14506786Y-7288214D01*
X14478214Y-7273929D01*
X14463928Y-7259643D01*
X14449643Y-7231071D01*
X14435357Y-7173929D01*
X14435357Y-7102500D01*
X14449643Y-7045357D01*
X14463928Y-7016786D01*
X14478214Y-7002500D01*
X14506786Y-6988214D01*
X14778214Y-7116786D02*
X14749643Y-7102500D01*
X14735357Y-7088214D01*
X14721071Y-7059643D01*
X14721071Y-7045357D01*
X14735357Y-7016786D01*
X14749643Y-7002500D01*
X14778214Y-6988214D01*
X14835357Y-6988214D01*
X14863928Y-7002500D01*
X14878214Y-7016786D01*
X14892500Y-7045357D01*
X14892500Y-7059643D01*
X14878214Y-7088214D01*
X14863928Y-7102500D01*
X14835357Y-7116786D01*
X14778214Y-7116786D01*
X14749643Y-7131071D01*
X14735357Y-7145357D01*
X14721071Y-7173929D01*
X14721071Y-7231071D01*
X14735357Y-7259643D01*
X14749643Y-7273929D01*
X14778214Y-7288214D01*
X14835357Y-7288214D01*
X14863928Y-7273929D01*
X14878214Y-7259643D01*
X14892500Y-7231071D01*
X14892500Y-7173929D01*
X14878214Y-7145357D01*
X14863928Y-7131071D01*
X14835357Y-7116786D01*
X15006786Y-6988214D02*
X15006786Y-7045357D01*
X15121071Y-6988214D02*
X15121071Y-7045357D01*
X15563928Y-7402500D02*
X15549643Y-7388214D01*
X15521071Y-7345357D01*
X15506786Y-7316786D01*
X15492500Y-7273929D01*
X15478214Y-7202500D01*
X15478214Y-7145357D01*
X15492500Y-7073929D01*
X15506786Y-7031071D01*
X15521071Y-7002500D01*
X15549643Y-6959643D01*
X15563928Y-6945357D01*
X15835357Y-7288214D02*
X15663928Y-7288214D01*
X15749643Y-7288214D02*
X15749643Y-6988214D01*
X15721071Y-7031071D01*
X15692500Y-7059643D01*
X15663928Y-7073929D01*
X15978214Y-7288214D02*
X16035357Y-7288214D01*
X16063928Y-7273929D01*
X16078214Y-7259643D01*
X16106786Y-7216786D01*
X16121071Y-7159643D01*
X16121071Y-7045357D01*
X16106786Y-7016786D01*
X16092500Y-7002500D01*
X16063928Y-6988214D01*
X16006786Y-6988214D01*
X15978214Y-7002500D01*
X15963928Y-7016786D01*
X15949643Y-7045357D01*
X15949643Y-7116786D01*
X15963928Y-7145357D01*
X15978214Y-7159643D01*
X16006786Y-7173929D01*
X16063928Y-7173929D01*
X16092500Y-7159643D01*
X16106786Y-7145357D01*
X16121071Y-7116786D01*
X16478214Y-7288214D02*
X16478214Y-6988214D01*
X16606786Y-7288214D02*
X16606786Y-7131071D01*
X16592500Y-7102500D01*
X16563928Y-7088214D01*
X16521071Y-7088214D01*
X16492500Y-7102500D01*
X16478214Y-7116786D01*
X16792500Y-7288214D02*
X16763928Y-7273929D01*
X16749643Y-7259643D01*
X16735357Y-7231071D01*
X16735357Y-7145357D01*
X16749643Y-7116786D01*
X16763928Y-7102500D01*
X16792500Y-7088214D01*
X16835357Y-7088214D01*
X16863928Y-7102500D01*
X16878214Y-7116786D01*
X16892500Y-7145357D01*
X16892500Y-7231071D01*
X16878214Y-7259643D01*
X16863928Y-7273929D01*
X16835357Y-7288214D01*
X16792500Y-7288214D01*
X17063928Y-7288214D02*
X17035357Y-7273929D01*
X17021071Y-7245357D01*
X17021071Y-6988214D01*
X17292500Y-7273929D02*
X17263928Y-7288214D01*
X17206786Y-7288214D01*
X17178214Y-7273929D01*
X17163928Y-7245357D01*
X17163928Y-7131071D01*
X17178214Y-7102500D01*
X17206786Y-7088214D01*
X17263928Y-7088214D01*
X17292500Y-7102500D01*
X17306786Y-7131071D01*
X17306786Y-7159643D01*
X17163928Y-7188214D01*
X17421071Y-7273929D02*
X17449643Y-7288214D01*
X17506786Y-7288214D01*
X17535357Y-7273929D01*
X17549643Y-7245357D01*
X17549643Y-7231071D01*
X17535357Y-7202500D01*
X17506786Y-7188214D01*
X17463928Y-7188214D01*
X17435357Y-7173929D01*
X17421071Y-7145357D01*
X17421071Y-7131071D01*
X17435357Y-7102500D01*
X17463928Y-7088214D01*
X17506786Y-7088214D01*
X17535357Y-7102500D01*
X17649643Y-7402500D02*
X17663928Y-7388214D01*
X17692500Y-7345357D01*
X17706786Y-7316786D01*
X17721071Y-7273929D01*
X17735357Y-7202500D01*
X17735357Y-7145357D01*
X17721071Y-7073929D01*
X17706786Y-7031071D01*
X17692500Y-7002500D01*
X17663928Y-6959643D01*
X17649643Y-6945357D01*
X10877500Y-7548500D02*
G75*
G03*
X10877500Y-7548500I-20000J0D01*
G01*
X11221071Y-7384214D02*
X11249643Y-7384214D01*
X11278214Y-7398500D01*
X11292500Y-7412786D01*
X11306786Y-7441357D01*
X11321071Y-7498500D01*
X11321071Y-7569929D01*
X11306786Y-7627071D01*
X11292500Y-7655643D01*
X11278214Y-7669929D01*
X11249643Y-7684214D01*
X11221071Y-7684214D01*
X11192500Y-7669929D01*
X11178214Y-7655643D01*
X11163928Y-7627071D01*
X11149643Y-7569929D01*
X11149643Y-7498500D01*
X11163928Y-7441357D01*
X11178214Y-7412786D01*
X11192500Y-7398500D01*
X11221071Y-7384214D01*
X11449643Y-7655643D02*
X11463928Y-7669929D01*
X11449643Y-7684214D01*
X11435357Y-7669929D01*
X11449643Y-7655643D01*
X11449643Y-7684214D01*
X11721071Y-7484214D02*
X11721071Y-7684214D01*
X11649643Y-7369929D02*
X11578214Y-7584214D01*
X11763928Y-7584214D01*
X11935357Y-7384214D02*
X11963928Y-7384214D01*
X11992500Y-7398500D01*
X12006786Y-7412786D01*
X12021071Y-7441357D01*
X12035357Y-7498500D01*
X12035357Y-7569929D01*
X12021071Y-7627071D01*
X12006786Y-7655643D01*
X11992500Y-7669929D01*
X11963928Y-7684214D01*
X11935357Y-7684214D01*
X11906786Y-7669929D01*
X11892500Y-7655643D01*
X11878214Y-7627071D01*
X11863928Y-7569929D01*
X11863928Y-7498500D01*
X11878214Y-7441357D01*
X11892500Y-7412786D01*
X11906786Y-7398500D01*
X11935357Y-7384214D01*
X12163928Y-7684214D02*
X12163928Y-7484214D01*
X12163928Y-7512786D02*
X12178214Y-7498500D01*
X12206786Y-7484214D01*
X12249643Y-7484214D01*
X12278214Y-7498500D01*
X12292500Y-7527071D01*
X12292500Y-7684214D01*
X12292500Y-7527071D02*
X12306786Y-7498500D01*
X12335357Y-7484214D01*
X12378214Y-7484214D01*
X12406786Y-7498500D01*
X12421071Y-7527071D01*
X12421071Y-7684214D01*
X12563928Y-7684214D02*
X12563928Y-7484214D01*
X12563928Y-7512786D02*
X12578214Y-7498500D01*
X12606786Y-7484214D01*
X12649643Y-7484214D01*
X12678214Y-7498500D01*
X12692500Y-7527071D01*
X12692500Y-7684214D01*
X12692500Y-7527071D02*
X12706786Y-7498500D01*
X12735357Y-7484214D01*
X12778214Y-7484214D01*
X12806786Y-7498500D01*
X12821071Y-7527071D01*
X12821071Y-7684214D01*
X13406786Y-7369929D02*
X13149643Y-7755643D01*
X13792500Y-7384214D02*
X13821071Y-7384214D01*
X13849643Y-7398500D01*
X13863928Y-7412786D01*
X13878214Y-7441357D01*
X13892500Y-7498500D01*
X13892500Y-7569929D01*
X13878214Y-7627071D01*
X13863928Y-7655643D01*
X13849643Y-7669929D01*
X13821071Y-7684214D01*
X13792500Y-7684214D01*
X13763928Y-7669929D01*
X13749643Y-7655643D01*
X13735357Y-7627071D01*
X13721071Y-7569929D01*
X13721071Y-7498500D01*
X13735357Y-7441357D01*
X13749643Y-7412786D01*
X13763928Y-7398500D01*
X13792500Y-7384214D01*
X14021071Y-7655643D02*
X14035357Y-7669929D01*
X14021071Y-7684214D01*
X14006786Y-7669929D01*
X14021071Y-7655643D01*
X14021071Y-7684214D01*
X14221071Y-7384214D02*
X14249643Y-7384214D01*
X14278214Y-7398500D01*
X14292500Y-7412786D01*
X14306786Y-7441357D01*
X14321071Y-7498500D01*
X14321071Y-7569929D01*
X14306786Y-7627071D01*
X14292500Y-7655643D01*
X14278214Y-7669929D01*
X14249643Y-7684214D01*
X14221071Y-7684214D01*
X14192500Y-7669929D01*
X14178214Y-7655643D01*
X14163928Y-7627071D01*
X14149643Y-7569929D01*
X14149643Y-7498500D01*
X14163928Y-7441357D01*
X14178214Y-7412786D01*
X14192500Y-7398500D01*
X14221071Y-7384214D01*
X14606786Y-7684214D02*
X14435357Y-7684214D01*
X14521071Y-7684214D02*
X14521071Y-7384214D01*
X14492500Y-7427071D01*
X14463928Y-7455643D01*
X14435357Y-7469929D01*
X14863928Y-7384214D02*
X14806786Y-7384214D01*
X14778214Y-7398500D01*
X14763928Y-7412786D01*
X14735357Y-7455643D01*
X14721071Y-7512786D01*
X14721071Y-7627071D01*
X14735357Y-7655643D01*
X14749643Y-7669929D01*
X14778214Y-7684214D01*
X14835357Y-7684214D01*
X14863928Y-7669929D01*
X14878214Y-7655643D01*
X14892500Y-7627071D01*
X14892500Y-7555643D01*
X14878214Y-7527071D01*
X14863928Y-7512786D01*
X14835357Y-7498500D01*
X14778214Y-7498500D01*
X14749643Y-7512786D01*
X14735357Y-7527071D01*
X14721071Y-7555643D01*
X15006786Y-7384214D02*
X15006786Y-7441357D01*
X15121071Y-7384214D02*
X15121071Y-7441357D01*
X15563928Y-7798500D02*
X15549643Y-7784214D01*
X15521071Y-7741357D01*
X15506786Y-7712786D01*
X15492500Y-7669929D01*
X15478214Y-7598500D01*
X15478214Y-7541357D01*
X15492500Y-7469929D01*
X15506786Y-7427071D01*
X15521071Y-7398500D01*
X15549643Y-7355643D01*
X15563928Y-7341357D01*
X15663928Y-7412786D02*
X15678214Y-7398500D01*
X15706786Y-7384214D01*
X15778214Y-7384214D01*
X15806786Y-7398500D01*
X15821071Y-7412786D01*
X15835357Y-7441357D01*
X15835357Y-7469929D01*
X15821071Y-7512786D01*
X15649643Y-7684214D01*
X15835357Y-7684214D01*
X15978214Y-7684214D02*
X16035357Y-7684214D01*
X16063928Y-7669929D01*
X16078214Y-7655643D01*
X16106786Y-7612786D01*
X16121071Y-7555643D01*
X16121071Y-7441357D01*
X16106786Y-7412786D01*
X16092500Y-7398500D01*
X16063928Y-7384214D01*
X16006786Y-7384214D01*
X15978214Y-7398500D01*
X15963928Y-7412786D01*
X15949643Y-7441357D01*
X15949643Y-7512786D01*
X15963928Y-7541357D01*
X15978214Y-7555643D01*
X16006786Y-7569929D01*
X16063928Y-7569929D01*
X16092500Y-7555643D01*
X16106786Y-7541357D01*
X16121071Y-7512786D01*
X16478214Y-7684214D02*
X16478214Y-7384214D01*
X16606786Y-7684214D02*
X16606786Y-7527071D01*
X16592500Y-7498500D01*
X16563928Y-7484214D01*
X16521071Y-7484214D01*
X16492500Y-7498500D01*
X16478214Y-7512786D01*
X16792500Y-7684214D02*
X16763928Y-7669929D01*
X16749643Y-7655643D01*
X16735357Y-7627071D01*
X16735357Y-7541357D01*
X16749643Y-7512786D01*
X16763928Y-7498500D01*
X16792500Y-7484214D01*
X16835357Y-7484214D01*
X16863928Y-7498500D01*
X16878214Y-7512786D01*
X16892500Y-7541357D01*
X16892500Y-7627071D01*
X16878214Y-7655643D01*
X16863928Y-7669929D01*
X16835357Y-7684214D01*
X16792500Y-7684214D01*
X17063928Y-7684214D02*
X17035357Y-7669929D01*
X17021071Y-7641357D01*
X17021071Y-7384214D01*
X17292500Y-7669929D02*
X17263928Y-7684214D01*
X17206786Y-7684214D01*
X17178214Y-7669929D01*
X17163928Y-7641357D01*
X17163928Y-7527071D01*
X17178214Y-7498500D01*
X17206786Y-7484214D01*
X17263928Y-7484214D01*
X17292500Y-7498500D01*
X17306786Y-7527071D01*
X17306786Y-7555643D01*
X17163928Y-7584214D01*
X17421071Y-7669929D02*
X17449643Y-7684214D01*
X17506786Y-7684214D01*
X17535357Y-7669929D01*
X17549643Y-7641357D01*
X17549643Y-7627071D01*
X17535357Y-7598500D01*
X17506786Y-7584214D01*
X17463928Y-7584214D01*
X17435357Y-7569929D01*
X17421071Y-7541357D01*
X17421071Y-7527071D01*
X17435357Y-7498500D01*
X17463928Y-7484214D01*
X17506786Y-7484214D01*
X17535357Y-7498500D01*
X17649643Y-7798500D02*
X17663928Y-7784214D01*
X17692500Y-7741357D01*
X17706786Y-7712786D01*
X17721071Y-7669929D01*
X17735357Y-7598500D01*
X17735357Y-7541357D01*
X17721071Y-7469929D01*
X17706786Y-7427071D01*
X17692500Y-7398500D01*
X17663928Y-7355643D01*
X17649643Y-7341357D01*
X10847500Y-7914500D02*
X10847500Y-7974500D01*
X10817500Y-7944500D02*
X10877500Y-7944500D01*
X11221071Y-7780214D02*
X11249643Y-7780214D01*
X11278214Y-7794500D01*
X11292500Y-7808786D01*
X11306786Y-7837357D01*
X11321071Y-7894500D01*
X11321071Y-7965929D01*
X11306786Y-8023071D01*
X11292500Y-8051643D01*
X11278214Y-8065929D01*
X11249643Y-8080214D01*
X11221071Y-8080214D01*
X11192500Y-8065929D01*
X11178214Y-8051643D01*
X11163928Y-8023071D01*
X11149643Y-7965929D01*
X11149643Y-7894500D01*
X11163928Y-7837357D01*
X11178214Y-7808786D01*
X11192500Y-7794500D01*
X11221071Y-7780214D01*
X11449643Y-8051643D02*
X11463928Y-8065929D01*
X11449643Y-8080214D01*
X11435357Y-8065929D01*
X11449643Y-8051643D01*
X11449643Y-8080214D01*
X11721071Y-7780214D02*
X11663928Y-7780214D01*
X11635357Y-7794500D01*
X11621071Y-7808786D01*
X11592500Y-7851643D01*
X11578214Y-7908786D01*
X11578214Y-8023071D01*
X11592500Y-8051643D01*
X11606786Y-8065929D01*
X11635357Y-8080214D01*
X11692500Y-8080214D01*
X11721071Y-8065929D01*
X11735357Y-8051643D01*
X11749643Y-8023071D01*
X11749643Y-7951643D01*
X11735357Y-7923071D01*
X11721071Y-7908786D01*
X11692500Y-7894500D01*
X11635357Y-7894500D01*
X11606786Y-7908786D01*
X11592500Y-7923071D01*
X11578214Y-7951643D01*
X11935357Y-7780214D02*
X11963928Y-7780214D01*
X11992500Y-7794500D01*
X12006786Y-7808786D01*
X12021071Y-7837357D01*
X12035357Y-7894500D01*
X12035357Y-7965929D01*
X12021071Y-8023071D01*
X12006786Y-8051643D01*
X11992500Y-8065929D01*
X11963928Y-8080214D01*
X11935357Y-8080214D01*
X11906786Y-8065929D01*
X11892500Y-8051643D01*
X11878214Y-8023071D01*
X11863928Y-7965929D01*
X11863928Y-7894500D01*
X11878214Y-7837357D01*
X11892500Y-7808786D01*
X11906786Y-7794500D01*
X11935357Y-7780214D01*
X12163928Y-8080214D02*
X12163928Y-7880214D01*
X12163928Y-7908786D02*
X12178214Y-7894500D01*
X12206786Y-7880214D01*
X12249643Y-7880214D01*
X12278214Y-7894500D01*
X12292500Y-7923071D01*
X12292500Y-8080214D01*
X12292500Y-7923071D02*
X12306786Y-7894500D01*
X12335357Y-7880214D01*
X12378214Y-7880214D01*
X12406786Y-7894500D01*
X12421071Y-7923071D01*
X12421071Y-8080214D01*
X12563928Y-8080214D02*
X12563928Y-7880214D01*
X12563928Y-7908786D02*
X12578214Y-7894500D01*
X12606786Y-7880214D01*
X12649643Y-7880214D01*
X12678214Y-7894500D01*
X12692500Y-7923071D01*
X12692500Y-8080214D01*
X12692500Y-7923071D02*
X12706786Y-7894500D01*
X12735357Y-7880214D01*
X12778214Y-7880214D01*
X12806786Y-7894500D01*
X12821071Y-7923071D01*
X12821071Y-8080214D01*
X13406786Y-7765929D02*
X13149643Y-8151643D01*
X13792500Y-7780214D02*
X13821071Y-7780214D01*
X13849643Y-7794500D01*
X13863928Y-7808786D01*
X13878214Y-7837357D01*
X13892500Y-7894500D01*
X13892500Y-7965929D01*
X13878214Y-8023071D01*
X13863928Y-8051643D01*
X13849643Y-8065929D01*
X13821071Y-8080214D01*
X13792500Y-8080214D01*
X13763928Y-8065929D01*
X13749643Y-8051643D01*
X13735357Y-8023071D01*
X13721071Y-7965929D01*
X13721071Y-7894500D01*
X13735357Y-7837357D01*
X13749643Y-7808786D01*
X13763928Y-7794500D01*
X13792500Y-7780214D01*
X14021071Y-8051643D02*
X14035357Y-8065929D01*
X14021071Y-8080214D01*
X14006786Y-8065929D01*
X14021071Y-8051643D01*
X14021071Y-8080214D01*
X14221071Y-7780214D02*
X14249643Y-7780214D01*
X14278214Y-7794500D01*
X14292500Y-7808786D01*
X14306786Y-7837357D01*
X14321071Y-7894500D01*
X14321071Y-7965929D01*
X14306786Y-8023071D01*
X14292500Y-8051643D01*
X14278214Y-8065929D01*
X14249643Y-8080214D01*
X14221071Y-8080214D01*
X14192500Y-8065929D01*
X14178214Y-8051643D01*
X14163928Y-8023071D01*
X14149643Y-7965929D01*
X14149643Y-7894500D01*
X14163928Y-7837357D01*
X14178214Y-7808786D01*
X14192500Y-7794500D01*
X14221071Y-7780214D01*
X14435357Y-7808786D02*
X14449643Y-7794500D01*
X14478214Y-7780214D01*
X14549643Y-7780214D01*
X14578214Y-7794500D01*
X14592500Y-7808786D01*
X14606786Y-7837357D01*
X14606786Y-7865929D01*
X14592500Y-7908786D01*
X14421071Y-8080214D01*
X14606786Y-8080214D01*
X14863928Y-7880214D02*
X14863928Y-8080214D01*
X14792500Y-7765929D02*
X14721071Y-7980214D01*
X14906786Y-7980214D01*
X15006786Y-7780214D02*
X15006786Y-7837357D01*
X15121071Y-7780214D02*
X15121071Y-7837357D01*
X15563928Y-8194500D02*
X15549643Y-8180214D01*
X15521071Y-8137357D01*
X15506786Y-8108786D01*
X15492500Y-8065929D01*
X15478214Y-7994500D01*
X15478214Y-7937357D01*
X15492500Y-7865929D01*
X15506786Y-7823071D01*
X15521071Y-7794500D01*
X15549643Y-7751643D01*
X15563928Y-7737357D01*
X15735357Y-7780214D02*
X15763928Y-7780214D01*
X15792500Y-7794500D01*
X15806786Y-7808786D01*
X15821071Y-7837357D01*
X15835357Y-7894500D01*
X15835357Y-7965929D01*
X15821071Y-8023071D01*
X15806786Y-8051643D01*
X15792500Y-8065929D01*
X15763928Y-8080214D01*
X15735357Y-8080214D01*
X15706786Y-8065929D01*
X15692500Y-8051643D01*
X15678214Y-8023071D01*
X15663928Y-7965929D01*
X15663928Y-7894500D01*
X15678214Y-7837357D01*
X15692500Y-7808786D01*
X15706786Y-7794500D01*
X15735357Y-7780214D01*
X16192500Y-8080214D02*
X16192500Y-7780214D01*
X16321071Y-8080214D02*
X16321071Y-7923071D01*
X16306786Y-7894500D01*
X16278214Y-7880214D01*
X16235357Y-7880214D01*
X16206786Y-7894500D01*
X16192500Y-7908786D01*
X16506786Y-8080214D02*
X16478214Y-8065929D01*
X16463928Y-8051643D01*
X16449643Y-8023071D01*
X16449643Y-7937357D01*
X16463928Y-7908786D01*
X16478214Y-7894500D01*
X16506786Y-7880214D01*
X16549643Y-7880214D01*
X16578214Y-7894500D01*
X16592500Y-7908786D01*
X16606786Y-7937357D01*
X16606786Y-8023071D01*
X16592500Y-8051643D01*
X16578214Y-8065929D01*
X16549643Y-8080214D01*
X16506786Y-8080214D01*
X16778214Y-8080214D02*
X16749643Y-8065929D01*
X16735357Y-8037357D01*
X16735357Y-7780214D01*
X17006786Y-8065929D02*
X16978214Y-8080214D01*
X16921071Y-8080214D01*
X16892500Y-8065929D01*
X16878214Y-8037357D01*
X16878214Y-7923071D01*
X16892500Y-7894500D01*
X16921071Y-7880214D01*
X16978214Y-7880214D01*
X17006786Y-7894500D01*
X17021071Y-7923071D01*
X17021071Y-7951643D01*
X16878214Y-7980214D01*
X17135357Y-8065929D02*
X17163928Y-8080214D01*
X17221071Y-8080214D01*
X17249643Y-8065929D01*
X17263928Y-8037357D01*
X17263928Y-8023071D01*
X17249643Y-7994500D01*
X17221071Y-7980214D01*
X17178214Y-7980214D01*
X17149643Y-7965929D01*
X17135357Y-7937357D01*
X17135357Y-7923071D01*
X17149643Y-7894500D01*
X17178214Y-7880214D01*
X17221071Y-7880214D01*
X17249643Y-7894500D01*
X17621071Y-7965929D02*
X17849643Y-7965929D01*
X17735357Y-8080214D02*
X17735357Y-7851643D01*
X18349643Y-7880214D02*
X18349643Y-8080214D01*
X18278214Y-7765929D02*
X18206786Y-7980214D01*
X18392500Y-7980214D01*
X18721071Y-8065929D02*
X18749643Y-8080214D01*
X18806786Y-8080214D01*
X18835357Y-8065929D01*
X18849643Y-8037357D01*
X18849643Y-8023071D01*
X18835357Y-7994500D01*
X18806786Y-7980214D01*
X18763928Y-7980214D01*
X18735357Y-7965929D01*
X18721071Y-7937357D01*
X18721071Y-7923071D01*
X18735357Y-7894500D01*
X18763928Y-7880214D01*
X18806786Y-7880214D01*
X18835357Y-7894500D01*
X19021071Y-8080214D02*
X18992500Y-8065929D01*
X18978214Y-8037357D01*
X18978214Y-7780214D01*
X19178214Y-8080214D02*
X19149643Y-8065929D01*
X19135357Y-8051643D01*
X19121071Y-8023071D01*
X19121071Y-7937357D01*
X19135357Y-7908786D01*
X19149643Y-7894500D01*
X19178214Y-7880214D01*
X19221071Y-7880214D01*
X19249643Y-7894500D01*
X19263928Y-7908786D01*
X19278214Y-7937357D01*
X19278214Y-8023071D01*
X19263928Y-8051643D01*
X19249643Y-8065929D01*
X19221071Y-8080214D01*
X19178214Y-8080214D01*
X19363928Y-7880214D02*
X19478214Y-7880214D01*
X19406786Y-7780214D02*
X19406786Y-8037357D01*
X19421071Y-8065929D01*
X19449643Y-8080214D01*
X19478214Y-8080214D01*
X19563928Y-8065929D02*
X19592500Y-8080214D01*
X19649643Y-8080214D01*
X19678214Y-8065929D01*
X19692500Y-8037357D01*
X19692500Y-8023071D01*
X19678214Y-7994500D01*
X19649643Y-7980214D01*
X19606786Y-7980214D01*
X19578214Y-7965929D01*
X19563928Y-7937357D01*
X19563928Y-7923071D01*
X19578214Y-7894500D01*
X19606786Y-7880214D01*
X19649643Y-7880214D01*
X19678214Y-7894500D01*
X19792500Y-8194500D02*
X19806786Y-8180214D01*
X19835357Y-8137357D01*
X19849643Y-8108786D01*
X19863928Y-8065929D01*
X19878214Y-7994500D01*
X19878214Y-7937357D01*
X19863928Y-7865929D01*
X19849643Y-7823071D01*
X19835357Y-7794500D01*
X19806786Y-7751643D01*
X19792500Y-7737357D01*
X10861391Y-8379391D02*
X10861391Y-8301609D01*
X10783609Y-8301609D01*
X10783609Y-8379391D01*
X10861391Y-8379391D01*
X11321071Y-8476214D02*
X11149643Y-8476214D01*
X11235357Y-8476214D02*
X11235357Y-8176214D01*
X11206786Y-8219071D01*
X11178214Y-8247643D01*
X11149643Y-8261929D01*
X11449643Y-8447643D02*
X11463928Y-8461929D01*
X11449643Y-8476214D01*
X11435357Y-8461929D01*
X11449643Y-8447643D01*
X11449643Y-8476214D01*
X11749643Y-8476214D02*
X11578214Y-8476214D01*
X11663928Y-8476214D02*
X11663928Y-8176214D01*
X11635357Y-8219071D01*
X11606786Y-8247643D01*
X11578214Y-8261929D01*
X11935357Y-8176214D02*
X11963928Y-8176214D01*
X11992500Y-8190500D01*
X12006786Y-8204786D01*
X12021071Y-8233357D01*
X12035357Y-8290500D01*
X12035357Y-8361929D01*
X12021071Y-8419072D01*
X12006786Y-8447643D01*
X11992500Y-8461929D01*
X11963928Y-8476214D01*
X11935357Y-8476214D01*
X11906786Y-8461929D01*
X11892500Y-8447643D01*
X11878214Y-8419072D01*
X11863928Y-8361929D01*
X11863928Y-8290500D01*
X11878214Y-8233357D01*
X11892500Y-8204786D01*
X11906786Y-8190500D01*
X11935357Y-8176214D01*
X12163928Y-8476214D02*
X12163928Y-8276214D01*
X12163928Y-8304786D02*
X12178214Y-8290500D01*
X12206786Y-8276214D01*
X12249643Y-8276214D01*
X12278214Y-8290500D01*
X12292500Y-8319071D01*
X12292500Y-8476214D01*
X12292500Y-8319071D02*
X12306786Y-8290500D01*
X12335357Y-8276214D01*
X12378214Y-8276214D01*
X12406786Y-8290500D01*
X12421071Y-8319071D01*
X12421071Y-8476214D01*
X12563928Y-8476214D02*
X12563928Y-8276214D01*
X12563928Y-8304786D02*
X12578214Y-8290500D01*
X12606786Y-8276214D01*
X12649643Y-8276214D01*
X12678214Y-8290500D01*
X12692500Y-8319071D01*
X12692500Y-8476214D01*
X12692500Y-8319071D02*
X12706786Y-8290500D01*
X12735357Y-8276214D01*
X12778214Y-8276214D01*
X12806786Y-8290500D01*
X12821071Y-8319071D01*
X12821071Y-8476214D01*
X13406786Y-8161929D02*
X13149643Y-8547643D01*
X13792500Y-8176214D02*
X13821071Y-8176214D01*
X13849643Y-8190500D01*
X13863928Y-8204786D01*
X13878214Y-8233357D01*
X13892500Y-8290500D01*
X13892500Y-8361929D01*
X13878214Y-8419072D01*
X13863928Y-8447643D01*
X13849643Y-8461929D01*
X13821071Y-8476214D01*
X13792500Y-8476214D01*
X13763928Y-8461929D01*
X13749643Y-8447643D01*
X13735357Y-8419072D01*
X13721071Y-8361929D01*
X13721071Y-8290500D01*
X13735357Y-8233357D01*
X13749643Y-8204786D01*
X13763928Y-8190500D01*
X13792500Y-8176214D01*
X14021071Y-8447643D02*
X14035357Y-8461929D01*
X14021071Y-8476214D01*
X14006786Y-8461929D01*
X14021071Y-8447643D01*
X14021071Y-8476214D01*
X14221071Y-8176214D02*
X14249643Y-8176214D01*
X14278214Y-8190500D01*
X14292500Y-8204786D01*
X14306786Y-8233357D01*
X14321071Y-8290500D01*
X14321071Y-8361929D01*
X14306786Y-8419072D01*
X14292500Y-8447643D01*
X14278214Y-8461929D01*
X14249643Y-8476214D01*
X14221071Y-8476214D01*
X14192500Y-8461929D01*
X14178214Y-8447643D01*
X14163928Y-8419072D01*
X14149643Y-8361929D01*
X14149643Y-8290500D01*
X14163928Y-8233357D01*
X14178214Y-8204786D01*
X14192500Y-8190500D01*
X14221071Y-8176214D01*
X14578214Y-8276214D02*
X14578214Y-8476214D01*
X14506786Y-8161929D02*
X14435357Y-8376214D01*
X14621071Y-8376214D01*
X14706786Y-8176214D02*
X14892500Y-8176214D01*
X14792500Y-8290500D01*
X14835357Y-8290500D01*
X14863928Y-8304786D01*
X14878214Y-8319071D01*
X14892500Y-8347643D01*
X14892500Y-8419072D01*
X14878214Y-8447643D01*
X14863928Y-8461929D01*
X14835357Y-8476214D01*
X14749643Y-8476214D01*
X14721071Y-8461929D01*
X14706786Y-8447643D01*
X15006786Y-8176214D02*
X15006786Y-8233357D01*
X15121071Y-8176214D02*
X15121071Y-8233357D01*
X15563928Y-8590500D02*
X15549643Y-8576214D01*
X15521071Y-8533357D01*
X15506786Y-8504786D01*
X15492500Y-8461929D01*
X15478214Y-8390500D01*
X15478214Y-8333357D01*
X15492500Y-8261929D01*
X15506786Y-8219071D01*
X15521071Y-8190500D01*
X15549643Y-8147643D01*
X15563928Y-8133357D01*
X15663928Y-8204786D02*
X15678214Y-8190500D01*
X15706786Y-8176214D01*
X15778214Y-8176214D01*
X15806786Y-8190500D01*
X15821071Y-8204786D01*
X15835357Y-8233357D01*
X15835357Y-8261929D01*
X15821071Y-8304786D01*
X15649643Y-8476214D01*
X15835357Y-8476214D01*
X16192500Y-8476214D02*
X16192500Y-8176214D01*
X16321071Y-8476214D02*
X16321071Y-8319071D01*
X16306786Y-8290500D01*
X16278214Y-8276214D01*
X16235357Y-8276214D01*
X16206786Y-8290500D01*
X16192500Y-8304786D01*
X16506786Y-8476214D02*
X16478214Y-8461929D01*
X16463928Y-8447643D01*
X16449643Y-8419072D01*
X16449643Y-8333357D01*
X16463928Y-8304786D01*
X16478214Y-8290500D01*
X16506786Y-8276214D01*
X16549643Y-8276214D01*
X16578214Y-8290500D01*
X16592500Y-8304786D01*
X16606786Y-8333357D01*
X16606786Y-8419072D01*
X16592500Y-8447643D01*
X16578214Y-8461929D01*
X16549643Y-8476214D01*
X16506786Y-8476214D01*
X16778214Y-8476214D02*
X16749643Y-8461929D01*
X16735357Y-8433357D01*
X16735357Y-8176214D01*
X17006786Y-8461929D02*
X16978214Y-8476214D01*
X16921071Y-8476214D01*
X16892500Y-8461929D01*
X16878214Y-8433357D01*
X16878214Y-8319071D01*
X16892500Y-8290500D01*
X16921071Y-8276214D01*
X16978214Y-8276214D01*
X17006786Y-8290500D01*
X17021071Y-8319071D01*
X17021071Y-8347643D01*
X16878214Y-8376214D01*
X17135357Y-8461929D02*
X17163928Y-8476214D01*
X17221071Y-8476214D01*
X17249643Y-8461929D01*
X17263928Y-8433357D01*
X17263928Y-8419072D01*
X17249643Y-8390500D01*
X17221071Y-8376214D01*
X17178214Y-8376214D01*
X17149643Y-8361929D01*
X17135357Y-8333357D01*
X17135357Y-8319071D01*
X17149643Y-8290500D01*
X17178214Y-8276214D01*
X17221071Y-8276214D01*
X17249643Y-8290500D01*
X17363928Y-8590500D02*
X17378214Y-8576214D01*
X17406786Y-8533357D01*
X17421071Y-8504786D01*
X17435357Y-8461929D01*
X17449643Y-8390500D01*
X17449643Y-8333357D01*
X17435357Y-8261929D01*
X17421071Y-8219071D01*
X17406786Y-8190500D01*
X17378214Y-8147643D01*
X17363928Y-8133357D01*
X10742500Y-8871500D02*
X10877500Y-8736500D01*
X10742500Y-8601500D01*
X10607500Y-8736500D01*
X10742500Y-8871500D01*
X11149643Y-8600786D02*
X11163928Y-8586500D01*
X11192500Y-8572214D01*
X11263928Y-8572214D01*
X11292500Y-8586500D01*
X11306786Y-8600786D01*
X11321071Y-8629357D01*
X11321071Y-8657929D01*
X11306786Y-8700786D01*
X11135357Y-8872214D01*
X11321071Y-8872214D01*
X11449643Y-8843643D02*
X11463928Y-8857929D01*
X11449643Y-8872214D01*
X11435357Y-8857929D01*
X11449643Y-8843643D01*
X11449643Y-8872214D01*
X11563928Y-8572214D02*
X11763928Y-8572214D01*
X11635357Y-8872214D01*
X11935357Y-8572214D02*
X11963928Y-8572214D01*
X11992500Y-8586500D01*
X12006786Y-8600786D01*
X12021071Y-8629357D01*
X12035357Y-8686500D01*
X12035357Y-8757929D01*
X12021071Y-8815072D01*
X12006786Y-8843643D01*
X11992500Y-8857929D01*
X11963928Y-8872214D01*
X11935357Y-8872214D01*
X11906786Y-8857929D01*
X11892500Y-8843643D01*
X11878214Y-8815072D01*
X11863928Y-8757929D01*
X11863928Y-8686500D01*
X11878214Y-8629357D01*
X11892500Y-8600786D01*
X11906786Y-8586500D01*
X11935357Y-8572214D01*
X12163928Y-8872214D02*
X12163928Y-8672214D01*
X12163928Y-8700786D02*
X12178214Y-8686500D01*
X12206786Y-8672214D01*
X12249643Y-8672214D01*
X12278214Y-8686500D01*
X12292500Y-8715072D01*
X12292500Y-8872214D01*
X12292500Y-8715072D02*
X12306786Y-8686500D01*
X12335357Y-8672214D01*
X12378214Y-8672214D01*
X12406786Y-8686500D01*
X12421071Y-8715072D01*
X12421071Y-8872214D01*
X12563928Y-8872214D02*
X12563928Y-8672214D01*
X12563928Y-8700786D02*
X12578214Y-8686500D01*
X12606786Y-8672214D01*
X12649643Y-8672214D01*
X12678214Y-8686500D01*
X12692500Y-8715072D01*
X12692500Y-8872214D01*
X12692500Y-8715072D02*
X12706786Y-8686500D01*
X12735357Y-8672214D01*
X12778214Y-8672214D01*
X12806786Y-8686500D01*
X12821071Y-8715072D01*
X12821071Y-8872214D01*
X13406786Y-8557929D02*
X13149643Y-8943643D01*
X13792500Y-8572214D02*
X13821071Y-8572214D01*
X13849643Y-8586500D01*
X13863928Y-8600786D01*
X13878214Y-8629357D01*
X13892500Y-8686500D01*
X13892500Y-8757929D01*
X13878214Y-8815072D01*
X13863928Y-8843643D01*
X13849643Y-8857929D01*
X13821071Y-8872214D01*
X13792500Y-8872214D01*
X13763928Y-8857929D01*
X13749643Y-8843643D01*
X13735357Y-8815072D01*
X13721071Y-8757929D01*
X13721071Y-8686500D01*
X13735357Y-8629357D01*
X13749643Y-8600786D01*
X13763928Y-8586500D01*
X13792500Y-8572214D01*
X14021071Y-8843643D02*
X14035357Y-8857929D01*
X14021071Y-8872214D01*
X14006786Y-8857929D01*
X14021071Y-8843643D01*
X14021071Y-8872214D01*
X14321071Y-8872214D02*
X14149643Y-8872214D01*
X14235357Y-8872214D02*
X14235357Y-8572214D01*
X14206786Y-8615072D01*
X14178214Y-8643643D01*
X14149643Y-8657929D01*
X14506786Y-8572214D02*
X14535357Y-8572214D01*
X14563928Y-8586500D01*
X14578214Y-8600786D01*
X14592500Y-8629357D01*
X14606786Y-8686500D01*
X14606786Y-8757929D01*
X14592500Y-8815072D01*
X14578214Y-8843643D01*
X14563928Y-8857929D01*
X14535357Y-8872214D01*
X14506786Y-8872214D01*
X14478214Y-8857929D01*
X14463928Y-8843643D01*
X14449643Y-8815072D01*
X14435357Y-8757929D01*
X14435357Y-8686500D01*
X14449643Y-8629357D01*
X14463928Y-8600786D01*
X14478214Y-8586500D01*
X14506786Y-8572214D01*
X14863928Y-8572214D02*
X14806786Y-8572214D01*
X14778214Y-8586500D01*
X14763928Y-8600786D01*
X14735357Y-8643643D01*
X14721071Y-8700786D01*
X14721071Y-8815072D01*
X14735357Y-8843643D01*
X14749643Y-8857929D01*
X14778214Y-8872214D01*
X14835357Y-8872214D01*
X14863928Y-8857929D01*
X14878214Y-8843643D01*
X14892500Y-8815072D01*
X14892500Y-8743643D01*
X14878214Y-8715072D01*
X14863928Y-8700786D01*
X14835357Y-8686500D01*
X14778214Y-8686500D01*
X14749643Y-8700786D01*
X14735357Y-8715072D01*
X14721071Y-8743643D01*
X15006786Y-8572214D02*
X15006786Y-8629357D01*
X15121071Y-8572214D02*
X15121071Y-8629357D01*
X15563928Y-8986500D02*
X15549643Y-8972214D01*
X15521071Y-8929357D01*
X15506786Y-8900786D01*
X15492500Y-8857929D01*
X15478214Y-8786500D01*
X15478214Y-8729357D01*
X15492500Y-8657929D01*
X15506786Y-8615072D01*
X15521071Y-8586500D01*
X15549643Y-8543643D01*
X15563928Y-8529357D01*
X15806786Y-8672214D02*
X15806786Y-8872214D01*
X15735357Y-8557929D02*
X15663928Y-8772214D01*
X15849643Y-8772214D01*
X16192500Y-8872214D02*
X16192500Y-8572214D01*
X16321071Y-8872214D02*
X16321071Y-8715072D01*
X16306786Y-8686500D01*
X16278214Y-8672214D01*
X16235357Y-8672214D01*
X16206786Y-8686500D01*
X16192500Y-8700786D01*
X16506786Y-8872214D02*
X16478214Y-8857929D01*
X16463928Y-8843643D01*
X16449643Y-8815072D01*
X16449643Y-8729357D01*
X16463928Y-8700786D01*
X16478214Y-8686500D01*
X16506786Y-8672214D01*
X16549643Y-8672214D01*
X16578214Y-8686500D01*
X16592500Y-8700786D01*
X16606786Y-8729357D01*
X16606786Y-8815072D01*
X16592500Y-8843643D01*
X16578214Y-8857929D01*
X16549643Y-8872214D01*
X16506786Y-8872214D01*
X16778214Y-8872214D02*
X16749643Y-8857929D01*
X16735357Y-8829357D01*
X16735357Y-8572214D01*
X17006786Y-8857929D02*
X16978214Y-8872214D01*
X16921071Y-8872214D01*
X16892500Y-8857929D01*
X16878214Y-8829357D01*
X16878214Y-8715072D01*
X16892500Y-8686500D01*
X16921071Y-8672214D01*
X16978214Y-8672214D01*
X17006786Y-8686500D01*
X17021071Y-8715072D01*
X17021071Y-8743643D01*
X16878214Y-8772214D01*
X17135357Y-8857929D02*
X17163928Y-8872214D01*
X17221071Y-8872214D01*
X17249643Y-8857929D01*
X17263928Y-8829357D01*
X17263928Y-8815072D01*
X17249643Y-8786500D01*
X17221071Y-8772214D01*
X17178214Y-8772214D01*
X17149643Y-8757929D01*
X17135357Y-8729357D01*
X17135357Y-8715072D01*
X17149643Y-8686500D01*
X17178214Y-8672214D01*
X17221071Y-8672214D01*
X17249643Y-8686500D01*
X17363928Y-8986500D02*
X17378214Y-8972214D01*
X17406786Y-8929357D01*
X17421071Y-8900786D01*
X17435357Y-8857929D01*
X17449643Y-8786500D01*
X17449643Y-8729357D01*
X17435357Y-8657929D01*
X17421071Y-8615072D01*
X17406786Y-8586500D01*
X17378214Y-8543643D01*
X17363928Y-8529357D01*
M02*
