%TF.GenerationSoftware,KiCad,Pcbnew,(5.1.7-0-10_14)*%
%TF.CreationDate,2020-10-21T07:28:03+08:00*%
%TF.ProjectId,STUSB4500_Breakout,53545553-4234-4353-9030-5f427265616b,rev?*%
%TF.SameCoordinates,Original*%
%TF.FileFunction,Legend,Top*%
%TF.FilePolarity,Positive*%
%FSLAX46Y46*%
G04 Gerber Fmt 4.6, Leading zero omitted, Abs format (unit mm)*
G04 Created by KiCad (PCBNEW (5.1.7-0-10_14)) date 2020-10-21 07:28:03*
%MOMM*%
%LPD*%
G01*
G04 APERTURE LIST*
%ADD10C,0.150000*%
%ADD11C,0.120000*%
%ADD12C,0.250000*%
G04 APERTURE END LIST*
D10*
X118080952Y-60971428D02*
X117319047Y-60971428D01*
X117700000Y-61352380D02*
X117700000Y-60590476D01*
X126580952Y-60971428D02*
X125819047Y-60971428D01*
D11*
X126441421Y-48200000D02*
G75*
G03*
X126441421Y-48200000I-141421J0D01*
G01*
%TO.C,R2*%
X113822500Y-42245276D02*
X113822500Y-42754724D01*
X112777500Y-42245276D02*
X112777500Y-42754724D01*
%TO.C,C1*%
X112110000Y-42646267D02*
X112110000Y-42353733D01*
X111090000Y-42646267D02*
X111090000Y-42353733D01*
%TO.C,R6*%
X132154724Y-42322500D02*
X131645276Y-42322500D01*
X132154724Y-41277500D02*
X131645276Y-41277500D01*
%TO.C,U1*%
X126710000Y-49365000D02*
X126710000Y-48890000D01*
X122490000Y-53110000D02*
X122965000Y-53110000D01*
X122490000Y-52635000D02*
X122490000Y-53110000D01*
X122490000Y-48890000D02*
X122965000Y-48890000D01*
X122490000Y-49365000D02*
X122490000Y-48890000D01*
X126710000Y-53110000D02*
X126235000Y-53110000D01*
X126710000Y-52635000D02*
X126710000Y-53110000D01*
%TO.C,J1*%
X117120000Y-35615000D02*
X126280000Y-35615000D01*
X126280000Y-35615000D02*
X126280000Y-37320000D01*
X117120000Y-37320000D02*
X117120000Y-35615000D01*
X117120000Y-39330000D02*
X117120000Y-41250000D01*
X126280000Y-41250000D02*
X126280000Y-39330000D01*
%TO.C,D1*%
X128100000Y-41730000D02*
X127440000Y-41730000D01*
X129760000Y-41730000D02*
X129100000Y-41730000D01*
X129760000Y-41730000D02*
X129760000Y-39700000D01*
X127440000Y-40320000D02*
X127440000Y-41730000D01*
%TO.C,C2*%
X128853733Y-54310000D02*
X129146267Y-54310000D01*
X128853733Y-53290000D02*
X129146267Y-53290000D01*
%TO.C,C3*%
X130990000Y-54746267D02*
X130990000Y-54453733D01*
X132010000Y-54746267D02*
X132010000Y-54453733D01*
%TO.C,C4*%
X115960000Y-40660000D02*
X115960000Y-37800000D01*
X114040000Y-40660000D02*
X115960000Y-40660000D01*
X114040000Y-37800000D02*
X114040000Y-40660000D01*
%TO.C,D3*%
X115735000Y-43300000D02*
X115735000Y-40840000D01*
X115735000Y-40840000D02*
X114265000Y-40840000D01*
X114265000Y-40840000D02*
X114265000Y-43300000D01*
%TO.C,D4*%
X126935000Y-60160000D02*
X126935000Y-57700000D01*
X125465000Y-60160000D02*
X126935000Y-60160000D01*
X125465000Y-57700000D02*
X125465000Y-60160000D01*
%TO.C,D5*%
X117850000Y-57100000D02*
X113950000Y-57100000D01*
X118400044Y-60100000D02*
X113950000Y-60100000D01*
X118400000Y-59300000D02*
X118400000Y-60100000D01*
%TO.C,J2*%
X109475000Y-46860000D02*
X109475000Y-50740000D01*
X113945000Y-51910000D02*
X113945000Y-50860000D01*
X111445000Y-51910000D02*
X113945000Y-51910000D01*
X113945000Y-46740000D02*
X114935000Y-46740000D01*
X113945000Y-45690000D02*
X113945000Y-46740000D01*
X111445000Y-45690000D02*
X113945000Y-45690000D01*
%TO.C,J3*%
X131575000Y-51910000D02*
X129075000Y-51910000D01*
X129075000Y-51910000D02*
X129075000Y-50860000D01*
X129075000Y-50860000D02*
X128085000Y-50860000D01*
X131575000Y-45690000D02*
X129075000Y-45690000D01*
X129075000Y-45690000D02*
X129075000Y-46740000D01*
X133545000Y-50740000D02*
X133545000Y-46860000D01*
%TO.C,J4*%
X118800000Y-61710000D02*
X119200000Y-61710000D01*
X118800000Y-61070000D02*
X118800000Y-61710000D01*
X124820000Y-54730000D02*
X124820000Y-61470000D01*
X119040000Y-54730000D02*
X119040000Y-61470000D01*
X119040000Y-61470000D02*
X124820000Y-61470000D01*
X119040000Y-54730000D02*
X124820000Y-54730000D01*
X119040000Y-55850000D02*
X124820000Y-55850000D01*
X119040000Y-60950000D02*
X124820000Y-60950000D01*
D12*
%TO.C,Q1*%
X120900000Y-45150000D02*
G75*
G03*
X120900000Y-45150000I-125000J0D01*
G01*
D10*
X121425000Y-46100000D02*
X121425000Y-46774999D01*
X118250000Y-46100000D02*
X118175000Y-46100000D01*
X121425000Y-46100000D02*
X121350000Y-46100000D01*
X118175000Y-46100000D02*
X118175000Y-46774999D01*
D11*
%TO.C,R1*%
X117322500Y-45945276D02*
X117322500Y-46454724D01*
X116277500Y-45945276D02*
X116277500Y-46454724D01*
%TO.C,R3*%
X116277500Y-49345276D02*
X116277500Y-49854724D01*
X117322500Y-49345276D02*
X117322500Y-49854724D01*
%TO.C,R4*%
X119045276Y-51322500D02*
X119554724Y-51322500D01*
X119045276Y-50277500D02*
X119554724Y-50277500D01*
%TO.C,R5*%
X132154724Y-43277500D02*
X131645276Y-43277500D01*
X132154724Y-44322500D02*
X131645276Y-44322500D01*
%TO.C,R7*%
X129254724Y-55922500D02*
X128745276Y-55922500D01*
X129254724Y-54877500D02*
X128745276Y-54877500D01*
%TO.C,R8*%
X125977500Y-45845276D02*
X125977500Y-46354724D01*
X127022500Y-45845276D02*
X127022500Y-46354724D01*
%TO.C,R9*%
X118335000Y-54927064D02*
X118335000Y-54472936D01*
X116865000Y-54927064D02*
X116865000Y-54472936D01*
%TO.C,R10*%
X114765000Y-54927064D02*
X114765000Y-54472936D01*
X116235000Y-54927064D02*
X116235000Y-54472936D01*
%TO.C,R11*%
X114135000Y-54927064D02*
X114135000Y-54472936D01*
X112665000Y-54927064D02*
X112665000Y-54472936D01*
%TD*%
M02*
