%TF.GenerationSoftware,KiCad,Pcbnew,(5.1.7-0-10_14)*%
%TF.CreationDate,2020-10-21T09:17:32+08:00*%
%TF.ProjectId,STUSB4500_Breakout,53545553-4234-4353-9030-5f427265616b,rev?*%
%TF.SameCoordinates,Original*%
%TF.FileFunction,Legend,Bot*%
%TF.FilePolarity,Positive*%
%FSLAX46Y46*%
G04 Gerber Fmt 4.6, Leading zero omitted, Abs format (unit mm)*
G04 Created by KiCad (PCBNEW (5.1.7-0-10_14)) date 2020-10-21 09:17:32*
%MOMM*%
%LPD*%
G01*
G04 APERTURE LIST*
%ADD10C,0.150000*%
%ADD11C,0.010000*%
%ADD12C,0.120000*%
G04 APERTURE END LIST*
D10*
X129438095Y-45179761D02*
X129295238Y-45227380D01*
X129057142Y-45227380D01*
X128961904Y-45179761D01*
X128914285Y-45132142D01*
X128866666Y-45036904D01*
X128866666Y-44941666D01*
X128914285Y-44846428D01*
X128961904Y-44798809D01*
X129057142Y-44751190D01*
X129247619Y-44703571D01*
X129342857Y-44655952D01*
X129390476Y-44608333D01*
X129438095Y-44513095D01*
X129438095Y-44417857D01*
X129390476Y-44322619D01*
X129342857Y-44275000D01*
X129247619Y-44227380D01*
X129009523Y-44227380D01*
X128866666Y-44275000D01*
X128580952Y-44227380D02*
X128009523Y-44227380D01*
X128295238Y-45227380D02*
X128295238Y-44227380D01*
X127676190Y-44227380D02*
X127676190Y-45036904D01*
X127628571Y-45132142D01*
X127580952Y-45179761D01*
X127485714Y-45227380D01*
X127295238Y-45227380D01*
X127200000Y-45179761D01*
X127152380Y-45132142D01*
X127104761Y-45036904D01*
X127104761Y-44227380D01*
X126676190Y-45179761D02*
X126533333Y-45227380D01*
X126295238Y-45227380D01*
X126200000Y-45179761D01*
X126152380Y-45132142D01*
X126104761Y-45036904D01*
X126104761Y-44941666D01*
X126152380Y-44846428D01*
X126200000Y-44798809D01*
X126295238Y-44751190D01*
X126485714Y-44703571D01*
X126580952Y-44655952D01*
X126628571Y-44608333D01*
X126676190Y-44513095D01*
X126676190Y-44417857D01*
X126628571Y-44322619D01*
X126580952Y-44275000D01*
X126485714Y-44227380D01*
X126247619Y-44227380D01*
X126104761Y-44275000D01*
X125342857Y-44703571D02*
X125200000Y-44751190D01*
X125152380Y-44798809D01*
X125104761Y-44894047D01*
X125104761Y-45036904D01*
X125152380Y-45132142D01*
X125200000Y-45179761D01*
X125295238Y-45227380D01*
X125676190Y-45227380D01*
X125676190Y-44227380D01*
X125342857Y-44227380D01*
X125247619Y-44275000D01*
X125200000Y-44322619D01*
X125152380Y-44417857D01*
X125152380Y-44513095D01*
X125200000Y-44608333D01*
X125247619Y-44655952D01*
X125342857Y-44703571D01*
X125676190Y-44703571D01*
X124247619Y-44560714D02*
X124247619Y-45227380D01*
X124485714Y-44179761D02*
X124723809Y-44894047D01*
X124104761Y-44894047D01*
X123247619Y-44227380D02*
X123723809Y-44227380D01*
X123771428Y-44703571D01*
X123723809Y-44655952D01*
X123628571Y-44608333D01*
X123390476Y-44608333D01*
X123295238Y-44655952D01*
X123247619Y-44703571D01*
X123200000Y-44798809D01*
X123200000Y-45036904D01*
X123247619Y-45132142D01*
X123295238Y-45179761D01*
X123390476Y-45227380D01*
X123628571Y-45227380D01*
X123723809Y-45179761D01*
X123771428Y-45132142D01*
X122580952Y-44227380D02*
X122485714Y-44227380D01*
X122390476Y-44275000D01*
X122342857Y-44322619D01*
X122295238Y-44417857D01*
X122247619Y-44608333D01*
X122247619Y-44846428D01*
X122295238Y-45036904D01*
X122342857Y-45132142D01*
X122390476Y-45179761D01*
X122485714Y-45227380D01*
X122580952Y-45227380D01*
X122676190Y-45179761D01*
X122723809Y-45132142D01*
X122771428Y-45036904D01*
X122819047Y-44846428D01*
X122819047Y-44608333D01*
X122771428Y-44417857D01*
X122723809Y-44322619D01*
X122676190Y-44275000D01*
X122580952Y-44227380D01*
X121628571Y-44227380D02*
X121533333Y-44227380D01*
X121438095Y-44275000D01*
X121390476Y-44322619D01*
X121342857Y-44417857D01*
X121295238Y-44608333D01*
X121295238Y-44846428D01*
X121342857Y-45036904D01*
X121390476Y-45132142D01*
X121438095Y-45179761D01*
X121533333Y-45227380D01*
X121628571Y-45227380D01*
X121723809Y-45179761D01*
X121771428Y-45132142D01*
X121819047Y-45036904D01*
X121866666Y-44846428D01*
X121866666Y-44608333D01*
X121819047Y-44417857D01*
X121771428Y-44322619D01*
X121723809Y-44275000D01*
X121628571Y-44227380D01*
X119771428Y-44703571D02*
X119628571Y-44751190D01*
X119580952Y-44798809D01*
X119533333Y-44894047D01*
X119533333Y-45036904D01*
X119580952Y-45132142D01*
X119628571Y-45179761D01*
X119723809Y-45227380D01*
X120104761Y-45227380D01*
X120104761Y-44227380D01*
X119771428Y-44227380D01*
X119676190Y-44275000D01*
X119628571Y-44322619D01*
X119580952Y-44417857D01*
X119580952Y-44513095D01*
X119628571Y-44608333D01*
X119676190Y-44655952D01*
X119771428Y-44703571D01*
X120104761Y-44703571D01*
X119104761Y-45227380D02*
X119104761Y-44560714D01*
X119104761Y-44751190D02*
X119057142Y-44655952D01*
X119009523Y-44608333D01*
X118914285Y-44560714D01*
X118819047Y-44560714D01*
X118104761Y-45179761D02*
X118200000Y-45227380D01*
X118390476Y-45227380D01*
X118485714Y-45179761D01*
X118533333Y-45084523D01*
X118533333Y-44703571D01*
X118485714Y-44608333D01*
X118390476Y-44560714D01*
X118200000Y-44560714D01*
X118104761Y-44608333D01*
X118057142Y-44703571D01*
X118057142Y-44798809D01*
X118533333Y-44894047D01*
X117200000Y-45227380D02*
X117200000Y-44703571D01*
X117247619Y-44608333D01*
X117342857Y-44560714D01*
X117533333Y-44560714D01*
X117628571Y-44608333D01*
X117200000Y-45179761D02*
X117295238Y-45227380D01*
X117533333Y-45227380D01*
X117628571Y-45179761D01*
X117676190Y-45084523D01*
X117676190Y-44989285D01*
X117628571Y-44894047D01*
X117533333Y-44846428D01*
X117295238Y-44846428D01*
X117200000Y-44798809D01*
X116723809Y-45227380D02*
X116723809Y-44227380D01*
X116628571Y-44846428D02*
X116342857Y-45227380D01*
X116342857Y-44560714D02*
X116723809Y-44941666D01*
X115771428Y-45227380D02*
X115866666Y-45179761D01*
X115914285Y-45132142D01*
X115961904Y-45036904D01*
X115961904Y-44751190D01*
X115914285Y-44655952D01*
X115866666Y-44608333D01*
X115771428Y-44560714D01*
X115628571Y-44560714D01*
X115533333Y-44608333D01*
X115485714Y-44655952D01*
X115438095Y-44751190D01*
X115438095Y-45036904D01*
X115485714Y-45132142D01*
X115533333Y-45179761D01*
X115628571Y-45227380D01*
X115771428Y-45227380D01*
X114580952Y-44560714D02*
X114580952Y-45227380D01*
X115009523Y-44560714D02*
X115009523Y-45084523D01*
X114961904Y-45179761D01*
X114866666Y-45227380D01*
X114723809Y-45227380D01*
X114628571Y-45179761D01*
X114580952Y-45132142D01*
X114247619Y-44560714D02*
X113866666Y-44560714D01*
X114104761Y-44227380D02*
X114104761Y-45084523D01*
X114057142Y-45179761D01*
X113961904Y-45227380D01*
X113866666Y-45227380D01*
X127104761Y-46877380D02*
X127104761Y-46210714D01*
X127104761Y-46305952D02*
X127057142Y-46258333D01*
X126961904Y-46210714D01*
X126819047Y-46210714D01*
X126723809Y-46258333D01*
X126676190Y-46353571D01*
X126676190Y-46877380D01*
X126676190Y-46353571D02*
X126628571Y-46258333D01*
X126533333Y-46210714D01*
X126390476Y-46210714D01*
X126295238Y-46258333D01*
X126247619Y-46353571D01*
X126247619Y-46877380D01*
X125342857Y-46877380D02*
X125342857Y-46353571D01*
X125390476Y-46258333D01*
X125485714Y-46210714D01*
X125676190Y-46210714D01*
X125771428Y-46258333D01*
X125342857Y-46829761D02*
X125438095Y-46877380D01*
X125676190Y-46877380D01*
X125771428Y-46829761D01*
X125819047Y-46734523D01*
X125819047Y-46639285D01*
X125771428Y-46544047D01*
X125676190Y-46496428D01*
X125438095Y-46496428D01*
X125342857Y-46448809D01*
X124866666Y-46877380D02*
X124866666Y-45877380D01*
X124771428Y-46496428D02*
X124485714Y-46877380D01*
X124485714Y-46210714D02*
X124866666Y-46591666D01*
X123676190Y-46829761D02*
X123771428Y-46877380D01*
X123961904Y-46877380D01*
X124057142Y-46829761D01*
X124104761Y-46734523D01*
X124104761Y-46353571D01*
X124057142Y-46258333D01*
X123961904Y-46210714D01*
X123771428Y-46210714D01*
X123676190Y-46258333D01*
X123628571Y-46353571D01*
X123628571Y-46448809D01*
X124104761Y-46544047D01*
X123200000Y-46877380D02*
X123200000Y-46210714D01*
X123200000Y-46401190D02*
X123152380Y-46305952D01*
X123104761Y-46258333D01*
X123009523Y-46210714D01*
X122914285Y-46210714D01*
X122580952Y-46877380D02*
X122580952Y-46210714D01*
X122580952Y-45877380D02*
X122628571Y-45925000D01*
X122580952Y-45972619D01*
X122533333Y-45925000D01*
X122580952Y-45877380D01*
X122580952Y-45972619D01*
X122152380Y-46829761D02*
X122057142Y-46877380D01*
X121866666Y-46877380D01*
X121771428Y-46829761D01*
X121723809Y-46734523D01*
X121723809Y-46686904D01*
X121771428Y-46591666D01*
X121866666Y-46544047D01*
X122009523Y-46544047D01*
X122104761Y-46496428D01*
X122152380Y-46401190D01*
X122152380Y-46353571D01*
X122104761Y-46258333D01*
X122009523Y-46210714D01*
X121866666Y-46210714D01*
X121771428Y-46258333D01*
X121438095Y-46210714D02*
X121057142Y-46210714D01*
X121295238Y-45877380D02*
X121295238Y-46734523D01*
X121247619Y-46829761D01*
X121152380Y-46877380D01*
X121057142Y-46877380D01*
X120723809Y-46877380D02*
X120723809Y-46210714D01*
X120723809Y-45877380D02*
X120771428Y-45925000D01*
X120723809Y-45972619D01*
X120676190Y-45925000D01*
X120723809Y-45877380D01*
X120723809Y-45972619D01*
X119819047Y-46829761D02*
X119914285Y-46877380D01*
X120104761Y-46877380D01*
X120200000Y-46829761D01*
X120247619Y-46782142D01*
X120295238Y-46686904D01*
X120295238Y-46401190D01*
X120247619Y-46305952D01*
X120200000Y-46258333D01*
X120104761Y-46210714D01*
X119914285Y-46210714D01*
X119819047Y-46258333D01*
X119390476Y-46782142D02*
X119342857Y-46829761D01*
X119390476Y-46877380D01*
X119438095Y-46829761D01*
X119390476Y-46782142D01*
X119390476Y-46877380D01*
X118485714Y-46829761D02*
X118580952Y-46877380D01*
X118771428Y-46877380D01*
X118866666Y-46829761D01*
X118914285Y-46782142D01*
X118961904Y-46686904D01*
X118961904Y-46401190D01*
X118914285Y-46305952D01*
X118866666Y-46258333D01*
X118771428Y-46210714D01*
X118580952Y-46210714D01*
X118485714Y-46258333D01*
X117914285Y-46877380D02*
X118009523Y-46829761D01*
X118057142Y-46782142D01*
X118104761Y-46686904D01*
X118104761Y-46401190D01*
X118057142Y-46305952D01*
X118009523Y-46258333D01*
X117914285Y-46210714D01*
X117771428Y-46210714D01*
X117676190Y-46258333D01*
X117628571Y-46305952D01*
X117580952Y-46401190D01*
X117580952Y-46686904D01*
X117628571Y-46782142D01*
X117676190Y-46829761D01*
X117771428Y-46877380D01*
X117914285Y-46877380D01*
X117152380Y-46877380D02*
X117152380Y-46210714D01*
X117152380Y-46305952D02*
X117104761Y-46258333D01*
X117009523Y-46210714D01*
X116866666Y-46210714D01*
X116771428Y-46258333D01*
X116723809Y-46353571D01*
X116723809Y-46877380D01*
X116723809Y-46353571D02*
X116676190Y-46258333D01*
X116580952Y-46210714D01*
X116438095Y-46210714D01*
X116342857Y-46258333D01*
X116295238Y-46353571D01*
X116295238Y-46877380D01*
X123580952Y-59971428D02*
X122819047Y-59971428D01*
X120980952Y-59971428D02*
X120219047Y-59971428D01*
X120600000Y-60352380D02*
X120600000Y-59590476D01*
D11*
%TO.C,G\u002A\u002A\u002A*%
G36*
X133269827Y-50868191D02*
G01*
X133265128Y-50831558D01*
X133256334Y-50801951D01*
X133242710Y-50776670D01*
X133228634Y-50758646D01*
X133213963Y-50743065D01*
X133198981Y-50730127D01*
X133182387Y-50719588D01*
X133162876Y-50711206D01*
X133139148Y-50704737D01*
X133109900Y-50699939D01*
X133073830Y-50696567D01*
X133029635Y-50694380D01*
X132976013Y-50693134D01*
X132911663Y-50692586D01*
X132874277Y-50692497D01*
X132818110Y-50692546D01*
X132773354Y-50692863D01*
X132738720Y-50693502D01*
X132712920Y-50694520D01*
X132694667Y-50695973D01*
X132682671Y-50697917D01*
X132675646Y-50700407D01*
X132674442Y-50701175D01*
X132671101Y-50704249D01*
X132668406Y-50708959D01*
X132666265Y-50716643D01*
X132664588Y-50728636D01*
X132663284Y-50746274D01*
X132662263Y-50770895D01*
X132661434Y-50803834D01*
X132660705Y-50846427D01*
X132659986Y-50900012D01*
X132659775Y-50917075D01*
X132657244Y-51124100D01*
X132888763Y-51124100D01*
X132954446Y-51124014D01*
X133008780Y-51123662D01*
X133053116Y-51122906D01*
X133088803Y-51121608D01*
X133117192Y-51119629D01*
X133139633Y-51116831D01*
X133157477Y-51113074D01*
X133172074Y-51108222D01*
X133184775Y-51102135D01*
X133196928Y-51094674D01*
X133200727Y-51092109D01*
X133228867Y-51067599D01*
X133249362Y-51037144D01*
X133262807Y-50999243D01*
X133269797Y-50952396D01*
X133271168Y-50914550D01*
X133269827Y-50868191D01*
G37*
X133269827Y-50868191D02*
X133265128Y-50831558D01*
X133256334Y-50801951D01*
X133242710Y-50776670D01*
X133228634Y-50758646D01*
X133213963Y-50743065D01*
X133198981Y-50730127D01*
X133182387Y-50719588D01*
X133162876Y-50711206D01*
X133139148Y-50704737D01*
X133109900Y-50699939D01*
X133073830Y-50696567D01*
X133029635Y-50694380D01*
X132976013Y-50693134D01*
X132911663Y-50692586D01*
X132874277Y-50692497D01*
X132818110Y-50692546D01*
X132773354Y-50692863D01*
X132738720Y-50693502D01*
X132712920Y-50694520D01*
X132694667Y-50695973D01*
X132682671Y-50697917D01*
X132675646Y-50700407D01*
X132674442Y-50701175D01*
X132671101Y-50704249D01*
X132668406Y-50708959D01*
X132666265Y-50716643D01*
X132664588Y-50728636D01*
X132663284Y-50746274D01*
X132662263Y-50770895D01*
X132661434Y-50803834D01*
X132660705Y-50846427D01*
X132659986Y-50900012D01*
X132659775Y-50917075D01*
X132657244Y-51124100D01*
X132888763Y-51124100D01*
X132954446Y-51124014D01*
X133008780Y-51123662D01*
X133053116Y-51122906D01*
X133088803Y-51121608D01*
X133117192Y-51119629D01*
X133139633Y-51116831D01*
X133157477Y-51113074D01*
X133172074Y-51108222D01*
X133184775Y-51102135D01*
X133196928Y-51094674D01*
X133200727Y-51092109D01*
X133228867Y-51067599D01*
X133249362Y-51037144D01*
X133262807Y-50999243D01*
X133269797Y-50952396D01*
X133271168Y-50914550D01*
X133269827Y-50868191D01*
G36*
X132586105Y-46845639D02*
G01*
X132579055Y-46844756D01*
X132560529Y-46843928D01*
X132531753Y-46843173D01*
X132493950Y-46842508D01*
X132448345Y-46841949D01*
X132396163Y-46841515D01*
X132338629Y-46841223D01*
X132276966Y-46841089D01*
X132263831Y-46841083D01*
X131946054Y-46841025D01*
X131920618Y-46885475D01*
X131896748Y-46928795D01*
X131879341Y-46964884D01*
X131867394Y-46996787D01*
X131859900Y-47027544D01*
X131855856Y-47060199D01*
X131854549Y-47085500D01*
X131854344Y-47124712D01*
X131856390Y-47153934D01*
X131860327Y-47171225D01*
X131872330Y-47196870D01*
X131885189Y-47214586D01*
X131902604Y-47228822D01*
X131914330Y-47236114D01*
X131944375Y-47253775D01*
X132133634Y-47255713D01*
X132194973Y-47256186D01*
X132245141Y-47256087D01*
X132285661Y-47255209D01*
X132318057Y-47253346D01*
X132343852Y-47250291D01*
X132364571Y-47245839D01*
X132381736Y-47239783D01*
X132396871Y-47231916D01*
X132411500Y-47222032D01*
X132417888Y-47217208D01*
X132435505Y-47200468D01*
X132454267Y-47177810D01*
X132467522Y-47158256D01*
X132475911Y-47142147D01*
X132486951Y-47117896D01*
X132499920Y-47087409D01*
X132514096Y-47052590D01*
X132528756Y-47015342D01*
X132543178Y-46977570D01*
X132556640Y-46941177D01*
X132568419Y-46908069D01*
X132577794Y-46880149D01*
X132584042Y-46859321D01*
X132586441Y-46847490D01*
X132586105Y-46845639D01*
G37*
X132586105Y-46845639D02*
X132579055Y-46844756D01*
X132560529Y-46843928D01*
X132531753Y-46843173D01*
X132493950Y-46842508D01*
X132448345Y-46841949D01*
X132396163Y-46841515D01*
X132338629Y-46841223D01*
X132276966Y-46841089D01*
X132263831Y-46841083D01*
X131946054Y-46841025D01*
X131920618Y-46885475D01*
X131896748Y-46928795D01*
X131879341Y-46964884D01*
X131867394Y-46996787D01*
X131859900Y-47027544D01*
X131855856Y-47060199D01*
X131854549Y-47085500D01*
X131854344Y-47124712D01*
X131856390Y-47153934D01*
X131860327Y-47171225D01*
X131872330Y-47196870D01*
X131885189Y-47214586D01*
X131902604Y-47228822D01*
X131914330Y-47236114D01*
X131944375Y-47253775D01*
X132133634Y-47255713D01*
X132194973Y-47256186D01*
X132245141Y-47256087D01*
X132285661Y-47255209D01*
X132318057Y-47253346D01*
X132343852Y-47250291D01*
X132364571Y-47245839D01*
X132381736Y-47239783D01*
X132396871Y-47231916D01*
X132411500Y-47222032D01*
X132417888Y-47217208D01*
X132435505Y-47200468D01*
X132454267Y-47177810D01*
X132467522Y-47158256D01*
X132475911Y-47142147D01*
X132486951Y-47117896D01*
X132499920Y-47087409D01*
X132514096Y-47052590D01*
X132528756Y-47015342D01*
X132543178Y-46977570D01*
X132556640Y-46941177D01*
X132568419Y-46908069D01*
X132577794Y-46880149D01*
X132584042Y-46859321D01*
X132586441Y-46847490D01*
X132586105Y-46845639D01*
G36*
X133554322Y-44374050D02*
G01*
X133552624Y-44531213D01*
X133550925Y-44688375D01*
X132622238Y-44686058D01*
X131693550Y-44683740D01*
X131693550Y-44869270D01*
X132622238Y-44867723D01*
X133550925Y-44866175D01*
X133552624Y-45023338D01*
X133554322Y-45180500D01*
X133710784Y-45180500D01*
X133714984Y-44918563D01*
X133715944Y-44854957D01*
X133716827Y-44789242D01*
X133717608Y-44723885D01*
X133718261Y-44661355D01*
X133718759Y-44604116D01*
X133719079Y-44554638D01*
X133719192Y-44515387D01*
X133719192Y-44515338D01*
X133719200Y-44374050D01*
X133554322Y-44374050D01*
G37*
X133554322Y-44374050D02*
X133552624Y-44531213D01*
X133550925Y-44688375D01*
X132622238Y-44686058D01*
X131693550Y-44683740D01*
X131693550Y-44869270D01*
X132622238Y-44867723D01*
X133550925Y-44866175D01*
X133552624Y-45023338D01*
X133554322Y-45180500D01*
X133710784Y-45180500D01*
X133714984Y-44918563D01*
X133715944Y-44854957D01*
X133716827Y-44789242D01*
X133717608Y-44723885D01*
X133718261Y-44661355D01*
X133718759Y-44604116D01*
X133719079Y-44554638D01*
X133719192Y-44515387D01*
X133719192Y-44515338D01*
X133719200Y-44374050D01*
X133554322Y-44374050D01*
G36*
X131767958Y-46841840D02*
G01*
X131743878Y-46839640D01*
X131722221Y-46838191D01*
X131711669Y-46837850D01*
X131693550Y-46837850D01*
X131693779Y-46934688D01*
X131694007Y-47031525D01*
X131715082Y-46987075D01*
X131729198Y-46960330D01*
X131747665Y-46929399D01*
X131766984Y-46900082D01*
X131771143Y-46894228D01*
X131806128Y-46845830D01*
X131767958Y-46841840D01*
G37*
X131767958Y-46841840D02*
X131743878Y-46839640D01*
X131722221Y-46838191D01*
X131711669Y-46837850D01*
X131693550Y-46837850D01*
X131693779Y-46934688D01*
X131694007Y-47031525D01*
X131715082Y-46987075D01*
X131729198Y-46960330D01*
X131747665Y-46929399D01*
X131766984Y-46900082D01*
X131771143Y-46894228D01*
X131806128Y-46845830D01*
X131767958Y-46841840D01*
G36*
X133267266Y-47980121D02*
G01*
X133258881Y-47945578D01*
X133243376Y-47918342D01*
X133219785Y-47896271D01*
X133208526Y-47888809D01*
X133177276Y-47869725D01*
X131693550Y-47866345D01*
X131693550Y-48285650D01*
X133160321Y-48285650D01*
X133179933Y-48258663D01*
X133219008Y-48198497D01*
X133246583Y-48140899D01*
X133263210Y-48084426D01*
X133269440Y-48027635D01*
X133269496Y-48024113D01*
X133267266Y-47980121D01*
G37*
X133267266Y-47980121D02*
X133258881Y-47945578D01*
X133243376Y-47918342D01*
X133219785Y-47896271D01*
X133208526Y-47888809D01*
X133177276Y-47869725D01*
X131693550Y-47866345D01*
X131693550Y-48285650D01*
X133160321Y-48285650D01*
X133179933Y-48258663D01*
X133219008Y-48198497D01*
X133246583Y-48140899D01*
X133263210Y-48084426D01*
X133269440Y-48027635D01*
X133269496Y-48024113D01*
X133267266Y-47980121D01*
G36*
X133266831Y-48574153D02*
G01*
X133254364Y-48535937D01*
X133233652Y-48505514D01*
X133222843Y-48495654D01*
X133216702Y-48490839D01*
X133210695Y-48486529D01*
X133204120Y-48482697D01*
X133196273Y-48479314D01*
X133186453Y-48476353D01*
X133173957Y-48473785D01*
X133158083Y-48471583D01*
X133138128Y-48469718D01*
X133113391Y-48468162D01*
X133083168Y-48466887D01*
X133046758Y-48465866D01*
X133003457Y-48465070D01*
X132952564Y-48464472D01*
X132893376Y-48464042D01*
X132825191Y-48463754D01*
X132747307Y-48463578D01*
X132659020Y-48463488D01*
X132559630Y-48463455D01*
X132448432Y-48463450D01*
X131693550Y-48463450D01*
X131693550Y-48882808D01*
X132429878Y-48881092D01*
X132542097Y-48880827D01*
X132642305Y-48880576D01*
X132731194Y-48880325D01*
X132809453Y-48880061D01*
X132877773Y-48879771D01*
X132936843Y-48879441D01*
X132987353Y-48879058D01*
X133029995Y-48878609D01*
X133065457Y-48878080D01*
X133094430Y-48877459D01*
X133117604Y-48876731D01*
X133135669Y-48875883D01*
X133149315Y-48874902D01*
X133159233Y-48873775D01*
X133166112Y-48872488D01*
X133170643Y-48871029D01*
X133173515Y-48869383D01*
X133175419Y-48867537D01*
X133176114Y-48866675D01*
X133197577Y-48835264D01*
X133219426Y-48796678D01*
X133238960Y-48756065D01*
X133252785Y-48720667D01*
X133266240Y-48668007D01*
X133270856Y-48618673D01*
X133266831Y-48574153D01*
G37*
X133266831Y-48574153D02*
X133254364Y-48535937D01*
X133233652Y-48505514D01*
X133222843Y-48495654D01*
X133216702Y-48490839D01*
X133210695Y-48486529D01*
X133204120Y-48482697D01*
X133196273Y-48479314D01*
X133186453Y-48476353D01*
X133173957Y-48473785D01*
X133158083Y-48471583D01*
X133138128Y-48469718D01*
X133113391Y-48468162D01*
X133083168Y-48466887D01*
X133046758Y-48465866D01*
X133003457Y-48465070D01*
X132952564Y-48464472D01*
X132893376Y-48464042D01*
X132825191Y-48463754D01*
X132747307Y-48463578D01*
X132659020Y-48463488D01*
X132559630Y-48463455D01*
X132448432Y-48463450D01*
X131693550Y-48463450D01*
X131693550Y-48882808D01*
X132429878Y-48881092D01*
X132542097Y-48880827D01*
X132642305Y-48880576D01*
X132731194Y-48880325D01*
X132809453Y-48880061D01*
X132877773Y-48879771D01*
X132936843Y-48879441D01*
X132987353Y-48879058D01*
X133029995Y-48878609D01*
X133065457Y-48878080D01*
X133094430Y-48877459D01*
X133117604Y-48876731D01*
X133135669Y-48875883D01*
X133149315Y-48874902D01*
X133159233Y-48873775D01*
X133166112Y-48872488D01*
X133170643Y-48871029D01*
X133173515Y-48869383D01*
X133175419Y-48867537D01*
X133176114Y-48866675D01*
X133197577Y-48835264D01*
X133219426Y-48796678D01*
X133238960Y-48756065D01*
X133252785Y-48720667D01*
X133266240Y-48668007D01*
X133270856Y-48618673D01*
X133266831Y-48574153D01*
G36*
X133265706Y-49171502D02*
G01*
X133252605Y-49133028D01*
X133230492Y-49103202D01*
X133199137Y-49081655D01*
X133180090Y-49073927D01*
X133172446Y-49072719D01*
X133156832Y-49071634D01*
X133132831Y-49070669D01*
X133100027Y-49069819D01*
X133058004Y-49069081D01*
X133006344Y-49068451D01*
X132944630Y-49067924D01*
X132872447Y-49067497D01*
X132789378Y-49067166D01*
X132695006Y-49066926D01*
X132588914Y-49066774D01*
X132470686Y-49066705D01*
X132426028Y-49066700D01*
X131693550Y-49066700D01*
X131693550Y-49479450D01*
X132413482Y-49479450D01*
X132508386Y-49479418D01*
X132599957Y-49479323D01*
X132687368Y-49479171D01*
X132769794Y-49478965D01*
X132846407Y-49478709D01*
X132916382Y-49478407D01*
X132978892Y-49478065D01*
X133033111Y-49477685D01*
X133078212Y-49477273D01*
X133113370Y-49476832D01*
X133137759Y-49476366D01*
X133150551Y-49475880D01*
X133152101Y-49475713D01*
X133165184Y-49470137D01*
X133178778Y-49457417D01*
X133195108Y-49435422D01*
X133196830Y-49432850D01*
X133229171Y-49379050D01*
X133251507Y-49328979D01*
X133264770Y-49279916D01*
X133269892Y-49229135D01*
X133270022Y-49218993D01*
X133265706Y-49171502D01*
G37*
X133265706Y-49171502D02*
X133252605Y-49133028D01*
X133230492Y-49103202D01*
X133199137Y-49081655D01*
X133180090Y-49073927D01*
X133172446Y-49072719D01*
X133156832Y-49071634D01*
X133132831Y-49070669D01*
X133100027Y-49069819D01*
X133058004Y-49069081D01*
X133006344Y-49068451D01*
X132944630Y-49067924D01*
X132872447Y-49067497D01*
X132789378Y-49067166D01*
X132695006Y-49066926D01*
X132588914Y-49066774D01*
X132470686Y-49066705D01*
X132426028Y-49066700D01*
X131693550Y-49066700D01*
X131693550Y-49479450D01*
X132413482Y-49479450D01*
X132508386Y-49479418D01*
X132599957Y-49479323D01*
X132687368Y-49479171D01*
X132769794Y-49478965D01*
X132846407Y-49478709D01*
X132916382Y-49478407D01*
X132978892Y-49478065D01*
X133033111Y-49477685D01*
X133078212Y-49477273D01*
X133113370Y-49476832D01*
X133137759Y-49476366D01*
X133150551Y-49475880D01*
X133152101Y-49475713D01*
X133165184Y-49470137D01*
X133178778Y-49457417D01*
X133195108Y-49435422D01*
X133196830Y-49432850D01*
X133229171Y-49379050D01*
X133251507Y-49328979D01*
X133264770Y-49279916D01*
X133269892Y-49229135D01*
X133270022Y-49218993D01*
X133265706Y-49171502D01*
G36*
X133265725Y-49769181D02*
G01*
X133254042Y-49732987D01*
X133233660Y-49703941D01*
X133212242Y-49685868D01*
X133184709Y-49666775D01*
X132439130Y-49665111D01*
X131693550Y-49663446D01*
X131693550Y-50076350D01*
X133166389Y-50076350D01*
X133204889Y-50011263D01*
X133232026Y-49961966D01*
X133251058Y-49918666D01*
X133262938Y-49878455D01*
X133268617Y-49838425D01*
X133269445Y-49814168D01*
X133265725Y-49769181D01*
G37*
X133265725Y-49769181D02*
X133254042Y-49732987D01*
X133233660Y-49703941D01*
X133212242Y-49685868D01*
X133184709Y-49666775D01*
X132439130Y-49665111D01*
X131693550Y-49663446D01*
X131693550Y-50076350D01*
X133166389Y-50076350D01*
X133204889Y-50011263D01*
X133232026Y-49961966D01*
X133251058Y-49918666D01*
X133262938Y-49878455D01*
X133268617Y-49838425D01*
X133269445Y-49814168D01*
X133265725Y-49769181D01*
G36*
X133718213Y-48075374D02*
G01*
X133718169Y-47894887D01*
X133718083Y-47726753D01*
X133717956Y-47570915D01*
X133717788Y-47427314D01*
X133717577Y-47295892D01*
X133717326Y-47176592D01*
X133717032Y-47069356D01*
X133716696Y-46974126D01*
X133716319Y-46890845D01*
X133715899Y-46819453D01*
X133715437Y-46759895D01*
X133714932Y-46712111D01*
X133714385Y-46676044D01*
X133713796Y-46651636D01*
X133713164Y-46638829D01*
X133713055Y-46637825D01*
X133699438Y-46578619D01*
X133674870Y-46525695D01*
X133639683Y-46479511D01*
X133594212Y-46440523D01*
X133550084Y-46414539D01*
X133500793Y-46390175D01*
X132751159Y-46387000D01*
X132653591Y-46386624D01*
X132558881Y-46386332D01*
X132467883Y-46386121D01*
X132381449Y-46385992D01*
X132300434Y-46385943D01*
X132225691Y-46385972D01*
X132158074Y-46386080D01*
X132098436Y-46386264D01*
X132047631Y-46386524D01*
X132006512Y-46386858D01*
X131975933Y-46387266D01*
X131956748Y-46387746D01*
X131951489Y-46388030D01*
X131895479Y-46398882D01*
X131843307Y-46420929D01*
X131796495Y-46452878D01*
X131756566Y-46493436D01*
X131725042Y-46541310D01*
X131703444Y-46595209D01*
X131702195Y-46599725D01*
X131697171Y-46621613D01*
X131694083Y-46641037D01*
X131693626Y-46647792D01*
X131693550Y-46664109D01*
X132431738Y-46664925D01*
X132545640Y-46665066D01*
X132647543Y-46665229D01*
X132738147Y-46665425D01*
X132818151Y-46665662D01*
X132888256Y-46665952D01*
X132949162Y-46666303D01*
X133001570Y-46666726D01*
X133046180Y-46667230D01*
X133083691Y-46667825D01*
X133114805Y-46668522D01*
X133140222Y-46669328D01*
X133160642Y-46670256D01*
X133176764Y-46671313D01*
X133189290Y-46672511D01*
X133198919Y-46673859D01*
X133206353Y-46675366D01*
X133208025Y-46675789D01*
X133267945Y-46696766D01*
X133318670Y-46725818D01*
X133360380Y-46763219D01*
X133393256Y-46809246D01*
X133417478Y-46864171D01*
X133433227Y-46928272D01*
X133440683Y-47001821D01*
X133441376Y-47031525D01*
X133437696Y-47110831D01*
X133425765Y-47180617D01*
X133405403Y-47241167D01*
X133376431Y-47292766D01*
X133338669Y-47335699D01*
X133291937Y-47370251D01*
X133236056Y-47396707D01*
X133204563Y-47407007D01*
X133186973Y-47410758D01*
X133162174Y-47413838D01*
X133128860Y-47416338D01*
X133085723Y-47418354D01*
X133031457Y-47419978D01*
X133019113Y-47420265D01*
X132868300Y-47423630D01*
X132868300Y-47245307D01*
X133009588Y-47243145D01*
X133060400Y-47242185D01*
X133100382Y-47240748D01*
X133131401Y-47238386D01*
X133155327Y-47234653D01*
X133174028Y-47229104D01*
X133189373Y-47221291D01*
X133203231Y-47210769D01*
X133217471Y-47197091D01*
X133221988Y-47192419D01*
X133243216Y-47166052D01*
X133257656Y-47137075D01*
X133266203Y-47102668D01*
X133269752Y-47060012D01*
X133269978Y-47041285D01*
X133266633Y-46985740D01*
X133256512Y-46940473D01*
X133239032Y-46904674D01*
X133213613Y-46877536D01*
X133179674Y-46858250D01*
X133136634Y-46846007D01*
X133128650Y-46844614D01*
X133111540Y-46842825D01*
X133085327Y-46841304D01*
X133052041Y-46840062D01*
X133013712Y-46839109D01*
X132972370Y-46838457D01*
X132930043Y-46838116D01*
X132888763Y-46838096D01*
X132850558Y-46838410D01*
X132817458Y-46839066D01*
X132791492Y-46840077D01*
X132774691Y-46841453D01*
X132769353Y-46842710D01*
X132765378Y-46849728D01*
X132757768Y-46867048D01*
X132747185Y-46893022D01*
X132734286Y-46925999D01*
X132719731Y-46964329D01*
X132706591Y-46999775D01*
X132679787Y-47072088D01*
X132656337Y-47133468D01*
X132635685Y-47185067D01*
X132617276Y-47228035D01*
X132600554Y-47263523D01*
X132584965Y-47292683D01*
X132569953Y-47316665D01*
X132554962Y-47336620D01*
X132539438Y-47353700D01*
X132532719Y-47360205D01*
X132501505Y-47386030D01*
X132468495Y-47405592D01*
X132428836Y-47421634D01*
X132417450Y-47425373D01*
X132406003Y-47428480D01*
X132392216Y-47431036D01*
X132374654Y-47433119D01*
X132351876Y-47434812D01*
X132322447Y-47436194D01*
X132284926Y-47437348D01*
X132237878Y-47438353D01*
X132179862Y-47439291D01*
X132166456Y-47439482D01*
X132097823Y-47440272D01*
X132040396Y-47440471D01*
X131992691Y-47439975D01*
X131953224Y-47438679D01*
X131920511Y-47436480D01*
X131893068Y-47433273D01*
X131869410Y-47428953D01*
X131848053Y-47423417D01*
X131827513Y-47416560D01*
X131824523Y-47415454D01*
X131785474Y-47395024D01*
X131749149Y-47365219D01*
X131719324Y-47329318D01*
X131712299Y-47318005D01*
X131693670Y-47285525D01*
X131693610Y-47483963D01*
X131693550Y-47682400D01*
X132441263Y-47682511D01*
X132557855Y-47682531D01*
X132662460Y-47682572D01*
X132755791Y-47682659D01*
X132838561Y-47682818D01*
X132911482Y-47683073D01*
X132975269Y-47683451D01*
X133030633Y-47683976D01*
X133078288Y-47684674D01*
X133118947Y-47685569D01*
X133153323Y-47686689D01*
X133182128Y-47688056D01*
X133206076Y-47689698D01*
X133225880Y-47691639D01*
X133242252Y-47693904D01*
X133255906Y-47696520D01*
X133267554Y-47699510D01*
X133277910Y-47702901D01*
X133287687Y-47706718D01*
X133297597Y-47710986D01*
X133302317Y-47713072D01*
X133345541Y-47738772D01*
X133381088Y-47773402D01*
X133408743Y-47815612D01*
X133428289Y-47864054D01*
X133439509Y-47917379D01*
X133442186Y-47974238D01*
X133436105Y-48033281D01*
X133421048Y-48093161D01*
X133396799Y-48152528D01*
X133378316Y-48186396D01*
X133361135Y-48213439D01*
X133341150Y-48242681D01*
X133327517Y-48261356D01*
X133313990Y-48279821D01*
X133304199Y-48294503D01*
X133300131Y-48302406D01*
X133300112Y-48302631D01*
X133305055Y-48308660D01*
X133317761Y-48318589D01*
X133329313Y-48326317D01*
X133368001Y-48358042D01*
X133399140Y-48398662D01*
X133422285Y-48446544D01*
X133436991Y-48500057D01*
X133442813Y-48557566D01*
X133439305Y-48617439D01*
X133426021Y-48678044D01*
X133425623Y-48679350D01*
X133413630Y-48713697D01*
X133398445Y-48747769D01*
X133378835Y-48783758D01*
X133353567Y-48823856D01*
X133321406Y-48870254D01*
X133306827Y-48890394D01*
X133301210Y-48900498D01*
X133305165Y-48906849D01*
X133310002Y-48909786D01*
X133326858Y-48921912D01*
X133347957Y-48940835D01*
X133369967Y-48963160D01*
X133389555Y-48985491D01*
X133403386Y-49004433D01*
X133404117Y-49005655D01*
X133426097Y-49055467D01*
X133438464Y-49113384D01*
X133441397Y-49164967D01*
X133437661Y-49220857D01*
X133426215Y-49274976D01*
X133406291Y-49329400D01*
X133377118Y-49386204D01*
X133337931Y-49447465D01*
X133335560Y-49450875D01*
X133300115Y-49501675D01*
X133320745Y-49517344D01*
X133367566Y-49560166D01*
X133403621Y-49608873D01*
X133428488Y-49662452D01*
X133441742Y-49719891D01*
X133442962Y-49780179D01*
X133440247Y-49803204D01*
X133432449Y-49844648D01*
X133422041Y-49881533D01*
X133407669Y-49916972D01*
X133387979Y-49954079D01*
X133361616Y-49995969D01*
X133347106Y-50017368D01*
X133306785Y-50075861D01*
X133417575Y-50079525D01*
X133417575Y-50257325D01*
X132555563Y-50258936D01*
X131693550Y-50260546D01*
X131693980Y-50500236D01*
X131694194Y-50564843D01*
X131694597Y-50617459D01*
X131695212Y-50658794D01*
X131696062Y-50689555D01*
X131697170Y-50710452D01*
X131698559Y-50722192D01*
X131700254Y-50725485D01*
X131701281Y-50724050D01*
X131716369Y-50690655D01*
X131729651Y-50665435D01*
X131743482Y-50644567D01*
X131760220Y-50624228D01*
X131768230Y-50615414D01*
X131802215Y-50583954D01*
X131840563Y-50559845D01*
X131849550Y-50555367D01*
X131877949Y-50542654D01*
X131905328Y-50532810D01*
X131933914Y-50525491D01*
X131965931Y-50520356D01*
X132003606Y-50517062D01*
X132049163Y-50515267D01*
X132104828Y-50514628D01*
X132114471Y-50514611D01*
X132246467Y-50514500D01*
X132242194Y-50598638D01*
X132240566Y-50629758D01*
X132239111Y-50655840D01*
X132237968Y-50674511D01*
X132237277Y-50683404D01*
X132237198Y-50683816D01*
X132230941Y-50684337D01*
X132213904Y-50685187D01*
X132188002Y-50686284D01*
X132155148Y-50687550D01*
X132117256Y-50688903D01*
X132109475Y-50689169D01*
X132065806Y-50690733D01*
X132032648Y-50692246D01*
X132007818Y-50693997D01*
X131989132Y-50696277D01*
X131974405Y-50699376D01*
X131961455Y-50703584D01*
X131948096Y-50709191D01*
X131943686Y-50711187D01*
X131912547Y-50728973D01*
X131888699Y-50751380D01*
X131871449Y-50779933D01*
X131860099Y-50816157D01*
X131853955Y-50861576D01*
X131852300Y-50911519D01*
X131854364Y-50964859D01*
X131861053Y-51007804D01*
X131873115Y-51042051D01*
X131891298Y-51069298D01*
X131916348Y-51091243D01*
X131936832Y-51103556D01*
X131969775Y-51120925D01*
X132228538Y-51122781D01*
X132487300Y-51124636D01*
X132487300Y-50514500D01*
X132812738Y-50514611D01*
X132891383Y-50514683D01*
X132958501Y-50514909D01*
X133015264Y-50515386D01*
X133062844Y-50516212D01*
X133102415Y-50517486D01*
X133135148Y-50519305D01*
X133162217Y-50521768D01*
X133184794Y-50524972D01*
X133204050Y-50529016D01*
X133221160Y-50533998D01*
X133237295Y-50540016D01*
X133253628Y-50547168D01*
X133264820Y-50552431D01*
X133316365Y-50583803D01*
X133359516Y-50624676D01*
X133394205Y-50674959D01*
X133420363Y-50734564D01*
X133431186Y-50771675D01*
X133437392Y-50807488D01*
X133441152Y-50851994D01*
X133442508Y-50901431D01*
X133441501Y-50952039D01*
X133438173Y-51000056D01*
X133432564Y-51041721D01*
X133427992Y-51062594D01*
X133406411Y-51124850D01*
X133377323Y-51177100D01*
X133340017Y-51220062D01*
X133293781Y-51254451D01*
X133237905Y-51280984D01*
X133198500Y-51293694D01*
X133190897Y-51295610D01*
X133182306Y-51297300D01*
X133171926Y-51298776D01*
X133158952Y-51300055D01*
X133142583Y-51301149D01*
X133122016Y-51302072D01*
X133096449Y-51302840D01*
X133065077Y-51303467D01*
X133027099Y-51303965D01*
X132981713Y-51304350D01*
X132928114Y-51304636D01*
X132865501Y-51304837D01*
X132793071Y-51304967D01*
X132710021Y-51305041D01*
X132615549Y-51305072D01*
X132553975Y-51305075D01*
X131950725Y-51305075D01*
X131898926Y-51287523D01*
X131845279Y-51264699D01*
X131798096Y-51235337D01*
X131758952Y-51200806D01*
X131729427Y-51162480D01*
X131712114Y-51125046D01*
X131705882Y-51108354D01*
X131700018Y-51096958D01*
X131699133Y-51095843D01*
X131697893Y-51100623D01*
X131696765Y-51117049D01*
X131695772Y-51144066D01*
X131694935Y-51180620D01*
X131694276Y-51225657D01*
X131693817Y-51278123D01*
X131693580Y-51336963D01*
X131693550Y-51367305D01*
X131693550Y-51644800D01*
X133255650Y-51644800D01*
X133255650Y-51447950D01*
X133420750Y-51447950D01*
X133420750Y-51645035D01*
X133568388Y-51643330D01*
X133716025Y-51641625D01*
X133717820Y-49165125D01*
X133717980Y-48922007D01*
X133718100Y-48691530D01*
X133718179Y-48473637D01*
X133718216Y-48268271D01*
X133718213Y-48075374D01*
G37*
X133718213Y-48075374D02*
X133718169Y-47894887D01*
X133718083Y-47726753D01*
X133717956Y-47570915D01*
X133717788Y-47427314D01*
X133717577Y-47295892D01*
X133717326Y-47176592D01*
X133717032Y-47069356D01*
X133716696Y-46974126D01*
X133716319Y-46890845D01*
X133715899Y-46819453D01*
X133715437Y-46759895D01*
X133714932Y-46712111D01*
X133714385Y-46676044D01*
X133713796Y-46651636D01*
X133713164Y-46638829D01*
X133713055Y-46637825D01*
X133699438Y-46578619D01*
X133674870Y-46525695D01*
X133639683Y-46479511D01*
X133594212Y-46440523D01*
X133550084Y-46414539D01*
X133500793Y-46390175D01*
X132751159Y-46387000D01*
X132653591Y-46386624D01*
X132558881Y-46386332D01*
X132467883Y-46386121D01*
X132381449Y-46385992D01*
X132300434Y-46385943D01*
X132225691Y-46385972D01*
X132158074Y-46386080D01*
X132098436Y-46386264D01*
X132047631Y-46386524D01*
X132006512Y-46386858D01*
X131975933Y-46387266D01*
X131956748Y-46387746D01*
X131951489Y-46388030D01*
X131895479Y-46398882D01*
X131843307Y-46420929D01*
X131796495Y-46452878D01*
X131756566Y-46493436D01*
X131725042Y-46541310D01*
X131703444Y-46595209D01*
X131702195Y-46599725D01*
X131697171Y-46621613D01*
X131694083Y-46641037D01*
X131693626Y-46647792D01*
X131693550Y-46664109D01*
X132431738Y-46664925D01*
X132545640Y-46665066D01*
X132647543Y-46665229D01*
X132738147Y-46665425D01*
X132818151Y-46665662D01*
X132888256Y-46665952D01*
X132949162Y-46666303D01*
X133001570Y-46666726D01*
X133046180Y-46667230D01*
X133083691Y-46667825D01*
X133114805Y-46668522D01*
X133140222Y-46669328D01*
X133160642Y-46670256D01*
X133176764Y-46671313D01*
X133189290Y-46672511D01*
X133198919Y-46673859D01*
X133206353Y-46675366D01*
X133208025Y-46675789D01*
X133267945Y-46696766D01*
X133318670Y-46725818D01*
X133360380Y-46763219D01*
X133393256Y-46809246D01*
X133417478Y-46864171D01*
X133433227Y-46928272D01*
X133440683Y-47001821D01*
X133441376Y-47031525D01*
X133437696Y-47110831D01*
X133425765Y-47180617D01*
X133405403Y-47241167D01*
X133376431Y-47292766D01*
X133338669Y-47335699D01*
X133291937Y-47370251D01*
X133236056Y-47396707D01*
X133204563Y-47407007D01*
X133186973Y-47410758D01*
X133162174Y-47413838D01*
X133128860Y-47416338D01*
X133085723Y-47418354D01*
X133031457Y-47419978D01*
X133019113Y-47420265D01*
X132868300Y-47423630D01*
X132868300Y-47245307D01*
X133009588Y-47243145D01*
X133060400Y-47242185D01*
X133100382Y-47240748D01*
X133131401Y-47238386D01*
X133155327Y-47234653D01*
X133174028Y-47229104D01*
X133189373Y-47221291D01*
X133203231Y-47210769D01*
X133217471Y-47197091D01*
X133221988Y-47192419D01*
X133243216Y-47166052D01*
X133257656Y-47137075D01*
X133266203Y-47102668D01*
X133269752Y-47060012D01*
X133269978Y-47041285D01*
X133266633Y-46985740D01*
X133256512Y-46940473D01*
X133239032Y-46904674D01*
X133213613Y-46877536D01*
X133179674Y-46858250D01*
X133136634Y-46846007D01*
X133128650Y-46844614D01*
X133111540Y-46842825D01*
X133085327Y-46841304D01*
X133052041Y-46840062D01*
X133013712Y-46839109D01*
X132972370Y-46838457D01*
X132930043Y-46838116D01*
X132888763Y-46838096D01*
X132850558Y-46838410D01*
X132817458Y-46839066D01*
X132791492Y-46840077D01*
X132774691Y-46841453D01*
X132769353Y-46842710D01*
X132765378Y-46849728D01*
X132757768Y-46867048D01*
X132747185Y-46893022D01*
X132734286Y-46925999D01*
X132719731Y-46964329D01*
X132706591Y-46999775D01*
X132679787Y-47072088D01*
X132656337Y-47133468D01*
X132635685Y-47185067D01*
X132617276Y-47228035D01*
X132600554Y-47263523D01*
X132584965Y-47292683D01*
X132569953Y-47316665D01*
X132554962Y-47336620D01*
X132539438Y-47353700D01*
X132532719Y-47360205D01*
X132501505Y-47386030D01*
X132468495Y-47405592D01*
X132428836Y-47421634D01*
X132417450Y-47425373D01*
X132406003Y-47428480D01*
X132392216Y-47431036D01*
X132374654Y-47433119D01*
X132351876Y-47434812D01*
X132322447Y-47436194D01*
X132284926Y-47437348D01*
X132237878Y-47438353D01*
X132179862Y-47439291D01*
X132166456Y-47439482D01*
X132097823Y-47440272D01*
X132040396Y-47440471D01*
X131992691Y-47439975D01*
X131953224Y-47438679D01*
X131920511Y-47436480D01*
X131893068Y-47433273D01*
X131869410Y-47428953D01*
X131848053Y-47423417D01*
X131827513Y-47416560D01*
X131824523Y-47415454D01*
X131785474Y-47395024D01*
X131749149Y-47365219D01*
X131719324Y-47329318D01*
X131712299Y-47318005D01*
X131693670Y-47285525D01*
X131693610Y-47483963D01*
X131693550Y-47682400D01*
X132441263Y-47682511D01*
X132557855Y-47682531D01*
X132662460Y-47682572D01*
X132755791Y-47682659D01*
X132838561Y-47682818D01*
X132911482Y-47683073D01*
X132975269Y-47683451D01*
X133030633Y-47683976D01*
X133078288Y-47684674D01*
X133118947Y-47685569D01*
X133153323Y-47686689D01*
X133182128Y-47688056D01*
X133206076Y-47689698D01*
X133225880Y-47691639D01*
X133242252Y-47693904D01*
X133255906Y-47696520D01*
X133267554Y-47699510D01*
X133277910Y-47702901D01*
X133287687Y-47706718D01*
X133297597Y-47710986D01*
X133302317Y-47713072D01*
X133345541Y-47738772D01*
X133381088Y-47773402D01*
X133408743Y-47815612D01*
X133428289Y-47864054D01*
X133439509Y-47917379D01*
X133442186Y-47974238D01*
X133436105Y-48033281D01*
X133421048Y-48093161D01*
X133396799Y-48152528D01*
X133378316Y-48186396D01*
X133361135Y-48213439D01*
X133341150Y-48242681D01*
X133327517Y-48261356D01*
X133313990Y-48279821D01*
X133304199Y-48294503D01*
X133300131Y-48302406D01*
X133300112Y-48302631D01*
X133305055Y-48308660D01*
X133317761Y-48318589D01*
X133329313Y-48326317D01*
X133368001Y-48358042D01*
X133399140Y-48398662D01*
X133422285Y-48446544D01*
X133436991Y-48500057D01*
X133442813Y-48557566D01*
X133439305Y-48617439D01*
X133426021Y-48678044D01*
X133425623Y-48679350D01*
X133413630Y-48713697D01*
X133398445Y-48747769D01*
X133378835Y-48783758D01*
X133353567Y-48823856D01*
X133321406Y-48870254D01*
X133306827Y-48890394D01*
X133301210Y-48900498D01*
X133305165Y-48906849D01*
X133310002Y-48909786D01*
X133326858Y-48921912D01*
X133347957Y-48940835D01*
X133369967Y-48963160D01*
X133389555Y-48985491D01*
X133403386Y-49004433D01*
X133404117Y-49005655D01*
X133426097Y-49055467D01*
X133438464Y-49113384D01*
X133441397Y-49164967D01*
X133437661Y-49220857D01*
X133426215Y-49274976D01*
X133406291Y-49329400D01*
X133377118Y-49386204D01*
X133337931Y-49447465D01*
X133335560Y-49450875D01*
X133300115Y-49501675D01*
X133320745Y-49517344D01*
X133367566Y-49560166D01*
X133403621Y-49608873D01*
X133428488Y-49662452D01*
X133441742Y-49719891D01*
X133442962Y-49780179D01*
X133440247Y-49803204D01*
X133432449Y-49844648D01*
X133422041Y-49881533D01*
X133407669Y-49916972D01*
X133387979Y-49954079D01*
X133361616Y-49995969D01*
X133347106Y-50017368D01*
X133306785Y-50075861D01*
X133417575Y-50079525D01*
X133417575Y-50257325D01*
X132555563Y-50258936D01*
X131693550Y-50260546D01*
X131693980Y-50500236D01*
X131694194Y-50564843D01*
X131694597Y-50617459D01*
X131695212Y-50658794D01*
X131696062Y-50689555D01*
X131697170Y-50710452D01*
X131698559Y-50722192D01*
X131700254Y-50725485D01*
X131701281Y-50724050D01*
X131716369Y-50690655D01*
X131729651Y-50665435D01*
X131743482Y-50644567D01*
X131760220Y-50624228D01*
X131768230Y-50615414D01*
X131802215Y-50583954D01*
X131840563Y-50559845D01*
X131849550Y-50555367D01*
X131877949Y-50542654D01*
X131905328Y-50532810D01*
X131933914Y-50525491D01*
X131965931Y-50520356D01*
X132003606Y-50517062D01*
X132049163Y-50515267D01*
X132104828Y-50514628D01*
X132114471Y-50514611D01*
X132246467Y-50514500D01*
X132242194Y-50598638D01*
X132240566Y-50629758D01*
X132239111Y-50655840D01*
X132237968Y-50674511D01*
X132237277Y-50683404D01*
X132237198Y-50683816D01*
X132230941Y-50684337D01*
X132213904Y-50685187D01*
X132188002Y-50686284D01*
X132155148Y-50687550D01*
X132117256Y-50688903D01*
X132109475Y-50689169D01*
X132065806Y-50690733D01*
X132032648Y-50692246D01*
X132007818Y-50693997D01*
X131989132Y-50696277D01*
X131974405Y-50699376D01*
X131961455Y-50703584D01*
X131948096Y-50709191D01*
X131943686Y-50711187D01*
X131912547Y-50728973D01*
X131888699Y-50751380D01*
X131871449Y-50779933D01*
X131860099Y-50816157D01*
X131853955Y-50861576D01*
X131852300Y-50911519D01*
X131854364Y-50964859D01*
X131861053Y-51007804D01*
X131873115Y-51042051D01*
X131891298Y-51069298D01*
X131916348Y-51091243D01*
X131936832Y-51103556D01*
X131969775Y-51120925D01*
X132228538Y-51122781D01*
X132487300Y-51124636D01*
X132487300Y-50514500D01*
X132812738Y-50514611D01*
X132891383Y-50514683D01*
X132958501Y-50514909D01*
X133015264Y-50515386D01*
X133062844Y-50516212D01*
X133102415Y-50517486D01*
X133135148Y-50519305D01*
X133162217Y-50521768D01*
X133184794Y-50524972D01*
X133204050Y-50529016D01*
X133221160Y-50533998D01*
X133237295Y-50540016D01*
X133253628Y-50547168D01*
X133264820Y-50552431D01*
X133316365Y-50583803D01*
X133359516Y-50624676D01*
X133394205Y-50674959D01*
X133420363Y-50734564D01*
X133431186Y-50771675D01*
X133437392Y-50807488D01*
X133441152Y-50851994D01*
X133442508Y-50901431D01*
X133441501Y-50952039D01*
X133438173Y-51000056D01*
X133432564Y-51041721D01*
X133427992Y-51062594D01*
X133406411Y-51124850D01*
X133377323Y-51177100D01*
X133340017Y-51220062D01*
X133293781Y-51254451D01*
X133237905Y-51280984D01*
X133198500Y-51293694D01*
X133190897Y-51295610D01*
X133182306Y-51297300D01*
X133171926Y-51298776D01*
X133158952Y-51300055D01*
X133142583Y-51301149D01*
X133122016Y-51302072D01*
X133096449Y-51302840D01*
X133065077Y-51303467D01*
X133027099Y-51303965D01*
X132981713Y-51304350D01*
X132928114Y-51304636D01*
X132865501Y-51304837D01*
X132793071Y-51304967D01*
X132710021Y-51305041D01*
X132615549Y-51305072D01*
X132553975Y-51305075D01*
X131950725Y-51305075D01*
X131898926Y-51287523D01*
X131845279Y-51264699D01*
X131798096Y-51235337D01*
X131758952Y-51200806D01*
X131729427Y-51162480D01*
X131712114Y-51125046D01*
X131705882Y-51108354D01*
X131700018Y-51096958D01*
X131699133Y-51095843D01*
X131697893Y-51100623D01*
X131696765Y-51117049D01*
X131695772Y-51144066D01*
X131694935Y-51180620D01*
X131694276Y-51225657D01*
X131693817Y-51278123D01*
X131693580Y-51336963D01*
X131693550Y-51367305D01*
X131693550Y-51644800D01*
X133255650Y-51644800D01*
X133255650Y-51447950D01*
X133420750Y-51447950D01*
X133420750Y-51645035D01*
X133568388Y-51643330D01*
X133716025Y-51641625D01*
X133717820Y-49165125D01*
X133717980Y-48922007D01*
X133718100Y-48691530D01*
X133718179Y-48473637D01*
X133718216Y-48268271D01*
X133718213Y-48075374D01*
G36*
X133718147Y-52502697D02*
G01*
X133717931Y-52399677D01*
X133717834Y-52368700D01*
X133716025Y-51832125D01*
X133652525Y-51830073D01*
X133619934Y-51829612D01*
X133580062Y-51829928D01*
X133538304Y-51830940D01*
X133505050Y-51832303D01*
X133421074Y-51836584D01*
X133419325Y-51932780D01*
X133417575Y-52028975D01*
X133336775Y-52030752D01*
X133255975Y-52032528D01*
X133254225Y-51932327D01*
X133252475Y-51832125D01*
X132473013Y-51830513D01*
X131693550Y-51828900D01*
X131693796Y-52100388D01*
X131694042Y-52371875D01*
X131718854Y-52320612D01*
X131744639Y-52276061D01*
X131775376Y-52240744D01*
X131813867Y-52211909D01*
X131848128Y-52193531D01*
X131875669Y-52181306D01*
X131902172Y-52171744D01*
X131929737Y-52164536D01*
X131960464Y-52159377D01*
X131996454Y-52155960D01*
X132039806Y-52153977D01*
X132092623Y-52153122D01*
X132125350Y-52153021D01*
X132184358Y-52153415D01*
X132232735Y-52154786D01*
X132272533Y-52157417D01*
X132305803Y-52161591D01*
X132334595Y-52167590D01*
X132360962Y-52175698D01*
X132386952Y-52186198D01*
X132396088Y-52190372D01*
X132438004Y-52215355D01*
X132479452Y-52250020D01*
X132517274Y-52291638D01*
X132525217Y-52302025D01*
X132534762Y-52315863D01*
X132549781Y-52338770D01*
X132569145Y-52368969D01*
X132591723Y-52404685D01*
X132616383Y-52444139D01*
X132641995Y-52485555D01*
X132642377Y-52486175D01*
X132668075Y-52527704D01*
X132692925Y-52567376D01*
X132715779Y-52603396D01*
X132735488Y-52633968D01*
X132750903Y-52657295D01*
X132760877Y-52671580D01*
X132760929Y-52671649D01*
X132783344Y-52697559D01*
X132808372Y-52717927D01*
X132837705Y-52733303D01*
X132873038Y-52744239D01*
X132916063Y-52751283D01*
X132968473Y-52754987D01*
X133020284Y-52755918D01*
X133072378Y-52755198D01*
X133113956Y-52752562D01*
X133147123Y-52747535D01*
X133173980Y-52739640D01*
X133196632Y-52728402D01*
X133217181Y-52713344D01*
X133220328Y-52710624D01*
X133238959Y-52692102D01*
X133252613Y-52672565D01*
X133261994Y-52649671D01*
X133267805Y-52621079D01*
X133270747Y-52584446D01*
X133271525Y-52539981D01*
X133271355Y-52504637D01*
X133270583Y-52479163D01*
X133268820Y-52460732D01*
X133265674Y-52446515D01*
X133260754Y-52433683D01*
X133255304Y-52422564D01*
X133234152Y-52392176D01*
X133205732Y-52366137D01*
X133174076Y-52347854D01*
X133161828Y-52343590D01*
X133148592Y-52341671D01*
X133124705Y-52339981D01*
X133092215Y-52338597D01*
X133053168Y-52337597D01*
X133009613Y-52337058D01*
X132987363Y-52336986D01*
X132836550Y-52336950D01*
X132836550Y-52247441D01*
X132836551Y-52157932D01*
X133006413Y-52160869D01*
X133061653Y-52161982D01*
X133105852Y-52163276D01*
X133140670Y-52164861D01*
X133167766Y-52166848D01*
X133188799Y-52169347D01*
X133205429Y-52172469D01*
X133214030Y-52174700D01*
X133268080Y-52194727D01*
X133316865Y-52221410D01*
X133331117Y-52231394D01*
X133364834Y-52264127D01*
X133393265Y-52307082D01*
X133415918Y-52358720D01*
X133432301Y-52417503D01*
X133441924Y-52481891D01*
X133444293Y-52550347D01*
X133442923Y-52581186D01*
X133433545Y-52657530D01*
X133416447Y-52723887D01*
X133391457Y-52780481D01*
X133358407Y-52827539D01*
X133317126Y-52865283D01*
X133267445Y-52893940D01*
X133209192Y-52913733D01*
X133187694Y-52918428D01*
X133152891Y-52923527D01*
X133109032Y-52927601D01*
X133059557Y-52930546D01*
X133007907Y-52932263D01*
X132957521Y-52932649D01*
X132911840Y-52931601D01*
X132874305Y-52929020D01*
X132865375Y-52927962D01*
X132800770Y-52915667D01*
X132745728Y-52896947D01*
X132698349Y-52870837D01*
X132656730Y-52836375D01*
X132632860Y-52810240D01*
X132620199Y-52793614D01*
X132602106Y-52767917D01*
X132579759Y-52734923D01*
X132554339Y-52696404D01*
X132527023Y-52654134D01*
X132498991Y-52609886D01*
X132489323Y-52594410D01*
X132454844Y-52539701D01*
X132423737Y-52491730D01*
X132396645Y-52451440D01*
X132374208Y-52419773D01*
X132357070Y-52397675D01*
X132350127Y-52389933D01*
X132334052Y-52374527D01*
X132318506Y-52362413D01*
X132301718Y-52353202D01*
X132281920Y-52346503D01*
X132257340Y-52341926D01*
X132226208Y-52339082D01*
X132186755Y-52337579D01*
X132137211Y-52337027D01*
X132109910Y-52336986D01*
X132065020Y-52337309D01*
X132024225Y-52338198D01*
X131989585Y-52339568D01*
X131963154Y-52341333D01*
X131946992Y-52343409D01*
X131945320Y-52343812D01*
X131921401Y-52355391D01*
X131896914Y-52375229D01*
X131875576Y-52399627D01*
X131861108Y-52424891D01*
X131859593Y-52429025D01*
X131855701Y-52446222D01*
X131852012Y-52472042D01*
X131849042Y-52502413D01*
X131847765Y-52522228D01*
X131847643Y-52582198D01*
X131854089Y-52632033D01*
X131867467Y-52672679D01*
X131888141Y-52705082D01*
X131916474Y-52730189D01*
X131931074Y-52738962D01*
X131939521Y-52743153D01*
X131948437Y-52746436D01*
X131959469Y-52748946D01*
X131974267Y-52750816D01*
X131994480Y-52752180D01*
X132021756Y-52753171D01*
X132057746Y-52753923D01*
X132104096Y-52754570D01*
X132126938Y-52754842D01*
X132296800Y-52756808D01*
X132296800Y-52933850D01*
X132140958Y-52933850D01*
X132078649Y-52933478D01*
X132027118Y-52932183D01*
X131984457Y-52929701D01*
X131948760Y-52925766D01*
X131918121Y-52920112D01*
X131890633Y-52912474D01*
X131864391Y-52902587D01*
X131841493Y-52892144D01*
X131794463Y-52863959D01*
X131756721Y-52828805D01*
X131726132Y-52784543D01*
X131717367Y-52767825D01*
X131694408Y-52721125D01*
X131694617Y-52844950D01*
X131694968Y-52885045D01*
X131695819Y-52922294D01*
X131697074Y-52954246D01*
X131698636Y-52978450D01*
X131700408Y-52992455D01*
X131700445Y-52992614D01*
X131715075Y-53032999D01*
X131738970Y-53074467D01*
X131769507Y-53113628D01*
X131804063Y-53147092D01*
X131838021Y-53170410D01*
X131847716Y-53175757D01*
X131856462Y-53180561D01*
X131864956Y-53184849D01*
X131873892Y-53188649D01*
X131883968Y-53191988D01*
X131895878Y-53194895D01*
X131910318Y-53197396D01*
X131927983Y-53199519D01*
X131949569Y-53201293D01*
X131975772Y-53202744D01*
X132007288Y-53203900D01*
X132044811Y-53204789D01*
X132089038Y-53205439D01*
X132140664Y-53205877D01*
X132200385Y-53206130D01*
X132268896Y-53206227D01*
X132346893Y-53206196D01*
X132435071Y-53206063D01*
X132534127Y-53205856D01*
X132644755Y-53205603D01*
X132719535Y-53205436D01*
X133500125Y-53203725D01*
X133547750Y-53180418D01*
X133601241Y-53147782D01*
X133645178Y-53107219D01*
X133679020Y-53059469D01*
X133702224Y-53005269D01*
X133713133Y-52955038D01*
X133714384Y-52938549D01*
X133715463Y-52909780D01*
X133716367Y-52869148D01*
X133717093Y-52817072D01*
X133717638Y-52753971D01*
X133717997Y-52680262D01*
X133718168Y-52596365D01*
X133718147Y-52502697D01*
G37*
X133718147Y-52502697D02*
X133717931Y-52399677D01*
X133717834Y-52368700D01*
X133716025Y-51832125D01*
X133652525Y-51830073D01*
X133619934Y-51829612D01*
X133580062Y-51829928D01*
X133538304Y-51830940D01*
X133505050Y-51832303D01*
X133421074Y-51836584D01*
X133419325Y-51932780D01*
X133417575Y-52028975D01*
X133336775Y-52030752D01*
X133255975Y-52032528D01*
X133254225Y-51932327D01*
X133252475Y-51832125D01*
X132473013Y-51830513D01*
X131693550Y-51828900D01*
X131693796Y-52100388D01*
X131694042Y-52371875D01*
X131718854Y-52320612D01*
X131744639Y-52276061D01*
X131775376Y-52240744D01*
X131813867Y-52211909D01*
X131848128Y-52193531D01*
X131875669Y-52181306D01*
X131902172Y-52171744D01*
X131929737Y-52164536D01*
X131960464Y-52159377D01*
X131996454Y-52155960D01*
X132039806Y-52153977D01*
X132092623Y-52153122D01*
X132125350Y-52153021D01*
X132184358Y-52153415D01*
X132232735Y-52154786D01*
X132272533Y-52157417D01*
X132305803Y-52161591D01*
X132334595Y-52167590D01*
X132360962Y-52175698D01*
X132386952Y-52186198D01*
X132396088Y-52190372D01*
X132438004Y-52215355D01*
X132479452Y-52250020D01*
X132517274Y-52291638D01*
X132525217Y-52302025D01*
X132534762Y-52315863D01*
X132549781Y-52338770D01*
X132569145Y-52368969D01*
X132591723Y-52404685D01*
X132616383Y-52444139D01*
X132641995Y-52485555D01*
X132642377Y-52486175D01*
X132668075Y-52527704D01*
X132692925Y-52567376D01*
X132715779Y-52603396D01*
X132735488Y-52633968D01*
X132750903Y-52657295D01*
X132760877Y-52671580D01*
X132760929Y-52671649D01*
X132783344Y-52697559D01*
X132808372Y-52717927D01*
X132837705Y-52733303D01*
X132873038Y-52744239D01*
X132916063Y-52751283D01*
X132968473Y-52754987D01*
X133020284Y-52755918D01*
X133072378Y-52755198D01*
X133113956Y-52752562D01*
X133147123Y-52747535D01*
X133173980Y-52739640D01*
X133196632Y-52728402D01*
X133217181Y-52713344D01*
X133220328Y-52710624D01*
X133238959Y-52692102D01*
X133252613Y-52672565D01*
X133261994Y-52649671D01*
X133267805Y-52621079D01*
X133270747Y-52584446D01*
X133271525Y-52539981D01*
X133271355Y-52504637D01*
X133270583Y-52479163D01*
X133268820Y-52460732D01*
X133265674Y-52446515D01*
X133260754Y-52433683D01*
X133255304Y-52422564D01*
X133234152Y-52392176D01*
X133205732Y-52366137D01*
X133174076Y-52347854D01*
X133161828Y-52343590D01*
X133148592Y-52341671D01*
X133124705Y-52339981D01*
X133092215Y-52338597D01*
X133053168Y-52337597D01*
X133009613Y-52337058D01*
X132987363Y-52336986D01*
X132836550Y-52336950D01*
X132836550Y-52247441D01*
X132836551Y-52157932D01*
X133006413Y-52160869D01*
X133061653Y-52161982D01*
X133105852Y-52163276D01*
X133140670Y-52164861D01*
X133167766Y-52166848D01*
X133188799Y-52169347D01*
X133205429Y-52172469D01*
X133214030Y-52174700D01*
X133268080Y-52194727D01*
X133316865Y-52221410D01*
X133331117Y-52231394D01*
X133364834Y-52264127D01*
X133393265Y-52307082D01*
X133415918Y-52358720D01*
X133432301Y-52417503D01*
X133441924Y-52481891D01*
X133444293Y-52550347D01*
X133442923Y-52581186D01*
X133433545Y-52657530D01*
X133416447Y-52723887D01*
X133391457Y-52780481D01*
X133358407Y-52827539D01*
X133317126Y-52865283D01*
X133267445Y-52893940D01*
X133209192Y-52913733D01*
X133187694Y-52918428D01*
X133152891Y-52923527D01*
X133109032Y-52927601D01*
X133059557Y-52930546D01*
X133007907Y-52932263D01*
X132957521Y-52932649D01*
X132911840Y-52931601D01*
X132874305Y-52929020D01*
X132865375Y-52927962D01*
X132800770Y-52915667D01*
X132745728Y-52896947D01*
X132698349Y-52870837D01*
X132656730Y-52836375D01*
X132632860Y-52810240D01*
X132620199Y-52793614D01*
X132602106Y-52767917D01*
X132579759Y-52734923D01*
X132554339Y-52696404D01*
X132527023Y-52654134D01*
X132498991Y-52609886D01*
X132489323Y-52594410D01*
X132454844Y-52539701D01*
X132423737Y-52491730D01*
X132396645Y-52451440D01*
X132374208Y-52419773D01*
X132357070Y-52397675D01*
X132350127Y-52389933D01*
X132334052Y-52374527D01*
X132318506Y-52362413D01*
X132301718Y-52353202D01*
X132281920Y-52346503D01*
X132257340Y-52341926D01*
X132226208Y-52339082D01*
X132186755Y-52337579D01*
X132137211Y-52337027D01*
X132109910Y-52336986D01*
X132065020Y-52337309D01*
X132024225Y-52338198D01*
X131989585Y-52339568D01*
X131963154Y-52341333D01*
X131946992Y-52343409D01*
X131945320Y-52343812D01*
X131921401Y-52355391D01*
X131896914Y-52375229D01*
X131875576Y-52399627D01*
X131861108Y-52424891D01*
X131859593Y-52429025D01*
X131855701Y-52446222D01*
X131852012Y-52472042D01*
X131849042Y-52502413D01*
X131847765Y-52522228D01*
X131847643Y-52582198D01*
X131854089Y-52632033D01*
X131867467Y-52672679D01*
X131888141Y-52705082D01*
X131916474Y-52730189D01*
X131931074Y-52738962D01*
X131939521Y-52743153D01*
X131948437Y-52746436D01*
X131959469Y-52748946D01*
X131974267Y-52750816D01*
X131994480Y-52752180D01*
X132021756Y-52753171D01*
X132057746Y-52753923D01*
X132104096Y-52754570D01*
X132126938Y-52754842D01*
X132296800Y-52756808D01*
X132296800Y-52933850D01*
X132140958Y-52933850D01*
X132078649Y-52933478D01*
X132027118Y-52932183D01*
X131984457Y-52929701D01*
X131948760Y-52925766D01*
X131918121Y-52920112D01*
X131890633Y-52912474D01*
X131864391Y-52902587D01*
X131841493Y-52892144D01*
X131794463Y-52863959D01*
X131756721Y-52828805D01*
X131726132Y-52784543D01*
X131717367Y-52767825D01*
X131694408Y-52721125D01*
X131694617Y-52844950D01*
X131694968Y-52885045D01*
X131695819Y-52922294D01*
X131697074Y-52954246D01*
X131698636Y-52978450D01*
X131700408Y-52992455D01*
X131700445Y-52992614D01*
X131715075Y-53032999D01*
X131738970Y-53074467D01*
X131769507Y-53113628D01*
X131804063Y-53147092D01*
X131838021Y-53170410D01*
X131847716Y-53175757D01*
X131856462Y-53180561D01*
X131864956Y-53184849D01*
X131873892Y-53188649D01*
X131883968Y-53191988D01*
X131895878Y-53194895D01*
X131910318Y-53197396D01*
X131927983Y-53199519D01*
X131949569Y-53201293D01*
X131975772Y-53202744D01*
X132007288Y-53203900D01*
X132044811Y-53204789D01*
X132089038Y-53205439D01*
X132140664Y-53205877D01*
X132200385Y-53206130D01*
X132268896Y-53206227D01*
X132346893Y-53206196D01*
X132435071Y-53206063D01*
X132534127Y-53205856D01*
X132644755Y-53205603D01*
X132719535Y-53205436D01*
X133500125Y-53203725D01*
X133547750Y-53180418D01*
X133601241Y-53147782D01*
X133645178Y-53107219D01*
X133679020Y-53059469D01*
X133702224Y-53005269D01*
X133713133Y-52955038D01*
X133714384Y-52938549D01*
X133715463Y-52909780D01*
X133716367Y-52869148D01*
X133717093Y-52817072D01*
X133717638Y-52753971D01*
X133717997Y-52680262D01*
X133718168Y-52596365D01*
X133718147Y-52502697D01*
G36*
X133731389Y-45666264D02*
G01*
X133729752Y-45622190D01*
X133726957Y-45584246D01*
X133723002Y-45555549D01*
X133722587Y-45553517D01*
X133704264Y-45494891D01*
X133675955Y-45442571D01*
X133638650Y-45397857D01*
X133593339Y-45362046D01*
X133564518Y-45346214D01*
X133553419Y-45340938D01*
X133543181Y-45336211D01*
X133533081Y-45332004D01*
X133522394Y-45328285D01*
X133510398Y-45325026D01*
X133496369Y-45322195D01*
X133479584Y-45319763D01*
X133459319Y-45317699D01*
X133434851Y-45315973D01*
X133405456Y-45314555D01*
X133370412Y-45313415D01*
X133328994Y-45312522D01*
X133280479Y-45311847D01*
X133224145Y-45311360D01*
X133159267Y-45311029D01*
X133085121Y-45310825D01*
X133000986Y-45310718D01*
X132906137Y-45310677D01*
X132799850Y-45310673D01*
X132712725Y-45310675D01*
X132597613Y-45310661D01*
X132494474Y-45310644D01*
X132402579Y-45310663D01*
X132321202Y-45310755D01*
X132249615Y-45310960D01*
X132187091Y-45311316D01*
X132132902Y-45311861D01*
X132086321Y-45312633D01*
X132046620Y-45313671D01*
X132013072Y-45315013D01*
X131984950Y-45316698D01*
X131961526Y-45318764D01*
X131942072Y-45321250D01*
X131925862Y-45324193D01*
X131912168Y-45327632D01*
X131900261Y-45331606D01*
X131889416Y-45336153D01*
X131878904Y-45341312D01*
X131867998Y-45347120D01*
X131855971Y-45353616D01*
X131851219Y-45356134D01*
X131803725Y-45388007D01*
X131764875Y-45428811D01*
X131740407Y-45467838D01*
X131730918Y-45484702D01*
X131722988Y-45495650D01*
X131719724Y-45498000D01*
X131715009Y-45492545D01*
X131707102Y-45478008D01*
X131697445Y-45457133D01*
X131693897Y-45448788D01*
X131673207Y-45399751D01*
X131654538Y-45356912D01*
X131638402Y-45321368D01*
X131625313Y-45294217D01*
X131615784Y-45276557D01*
X131610330Y-45269485D01*
X131609974Y-45269400D01*
X131603351Y-45272635D01*
X131588920Y-45281280D01*
X131569100Y-45293749D01*
X131546311Y-45308455D01*
X131522973Y-45323810D01*
X131501504Y-45338229D01*
X131484325Y-45350123D01*
X131473855Y-45357906D01*
X131471798Y-45360030D01*
X131475113Y-45365605D01*
X131484189Y-45380558D01*
X131498145Y-45403442D01*
X131516098Y-45432812D01*
X131537164Y-45467223D01*
X131557976Y-45501175D01*
X131588317Y-45550618D01*
X131612771Y-45590716D01*
X131631999Y-45623011D01*
X131646658Y-45649042D01*
X131657407Y-45670350D01*
X131664905Y-45688475D01*
X131669811Y-45704956D01*
X131672784Y-45721334D01*
X131674482Y-45739149D01*
X131675565Y-45759940D01*
X131676345Y-45777871D01*
X131683643Y-45851038D01*
X131698713Y-45914391D01*
X131721966Y-45968463D01*
X131753811Y-46013788D01*
X131794659Y-46050901D01*
X131844919Y-46080334D01*
X131905003Y-46102622D01*
X131931066Y-46109465D01*
X131939658Y-46110716D01*
X131954651Y-46111838D01*
X131976564Y-46112836D01*
X132005920Y-46113715D01*
X132043238Y-46114480D01*
X132089040Y-46115136D01*
X132143846Y-46115689D01*
X132208176Y-46116144D01*
X132282553Y-46116506D01*
X132367495Y-46116780D01*
X132463525Y-46116971D01*
X132478684Y-46116986D01*
X132478684Y-45941457D01*
X132372754Y-45941414D01*
X132278849Y-45941221D01*
X132197056Y-45940880D01*
X132127466Y-45940391D01*
X132070168Y-45939754D01*
X132025252Y-45938971D01*
X131992808Y-45938041D01*
X131972925Y-45936965D01*
X131967430Y-45936322D01*
X131926595Y-45923134D01*
X131892538Y-45900376D01*
X131867119Y-45869325D01*
X131865370Y-45866260D01*
X131856214Y-45848209D01*
X131849593Y-45830553D01*
X131845172Y-45810858D01*
X131842614Y-45786691D01*
X131841583Y-45755620D01*
X131841745Y-45715212D01*
X131842042Y-45697235D01*
X131842923Y-45659277D01*
X131844160Y-45631428D01*
X131846103Y-45611098D01*
X131849101Y-45595695D01*
X131853506Y-45582628D01*
X131859180Y-45570282D01*
X131882673Y-45536666D01*
X131914918Y-45510563D01*
X131953188Y-45494054D01*
X131961757Y-45491997D01*
X131972558Y-45490802D01*
X131992933Y-45489754D01*
X132023178Y-45488852D01*
X132063591Y-45488092D01*
X132114470Y-45487474D01*
X132176112Y-45486995D01*
X132248814Y-45486653D01*
X132332874Y-45486445D01*
X132428589Y-45486371D01*
X132536256Y-45486428D01*
X132656173Y-45486613D01*
X132722302Y-45486757D01*
X132833760Y-45487022D01*
X132933230Y-45487273D01*
X133021425Y-45487522D01*
X133099057Y-45487785D01*
X133166838Y-45488076D01*
X133225480Y-45488408D01*
X133275695Y-45488797D01*
X133318197Y-45489256D01*
X133353696Y-45489800D01*
X133382906Y-45490443D01*
X133406539Y-45491200D01*
X133425306Y-45492084D01*
X133439921Y-45493111D01*
X133451095Y-45494294D01*
X133459541Y-45495648D01*
X133465971Y-45497187D01*
X133471097Y-45498925D01*
X133475632Y-45500877D01*
X133477900Y-45501937D01*
X133510632Y-45522670D01*
X133537699Y-45552164D01*
X133553726Y-45577827D01*
X133558780Y-45587762D01*
X133562407Y-45597684D01*
X133564793Y-45609749D01*
X133566122Y-45626114D01*
X133566580Y-45648934D01*
X133566351Y-45680366D01*
X133565716Y-45717527D01*
X133564400Y-45765336D01*
X133562109Y-45802492D01*
X133558284Y-45831034D01*
X133552366Y-45853003D01*
X133543795Y-45870437D01*
X133532012Y-45885377D01*
X133516458Y-45899863D01*
X133515512Y-45900662D01*
X133508833Y-45906522D01*
X133503020Y-45911759D01*
X133497361Y-45916410D01*
X133491145Y-45920511D01*
X133483662Y-45924099D01*
X133474200Y-45927210D01*
X133462049Y-45929880D01*
X133446499Y-45932146D01*
X133426837Y-45934044D01*
X133402353Y-45935611D01*
X133372336Y-45936883D01*
X133336076Y-45937897D01*
X133292861Y-45938689D01*
X133241980Y-45939294D01*
X133182723Y-45939751D01*
X133114378Y-45940095D01*
X133036236Y-45940363D01*
X132947584Y-45940590D01*
X132847712Y-45940814D01*
X132735909Y-45941071D01*
X132726255Y-45941095D01*
X132596547Y-45941351D01*
X132478684Y-45941457D01*
X132478684Y-46116986D01*
X132571163Y-46117084D01*
X132690929Y-46117125D01*
X132703200Y-46117125D01*
X132818734Y-46117132D01*
X132922293Y-46117131D01*
X133014604Y-46117087D01*
X133096392Y-46116969D01*
X133168383Y-46116743D01*
X133231302Y-46116375D01*
X133285876Y-46115833D01*
X133332829Y-46115083D01*
X133372889Y-46114092D01*
X133406780Y-46112828D01*
X133435228Y-46111255D01*
X133458959Y-46109343D01*
X133478698Y-46107057D01*
X133495172Y-46104363D01*
X133509107Y-46101230D01*
X133521226Y-46097623D01*
X133532258Y-46093510D01*
X133542926Y-46088858D01*
X133553958Y-46083632D01*
X133566078Y-46077800D01*
X133566426Y-46077634D01*
X133616758Y-46047008D01*
X133658262Y-46007325D01*
X133690751Y-45958836D01*
X133714034Y-45901795D01*
X133722306Y-45869475D01*
X133726416Y-45841512D01*
X133729382Y-45804092D01*
X133731201Y-45760332D01*
X133731871Y-45713350D01*
X133731389Y-45666264D01*
G37*
X133731389Y-45666264D02*
X133729752Y-45622190D01*
X133726957Y-45584246D01*
X133723002Y-45555549D01*
X133722587Y-45553517D01*
X133704264Y-45494891D01*
X133675955Y-45442571D01*
X133638650Y-45397857D01*
X133593339Y-45362046D01*
X133564518Y-45346214D01*
X133553419Y-45340938D01*
X133543181Y-45336211D01*
X133533081Y-45332004D01*
X133522394Y-45328285D01*
X133510398Y-45325026D01*
X133496369Y-45322195D01*
X133479584Y-45319763D01*
X133459319Y-45317699D01*
X133434851Y-45315973D01*
X133405456Y-45314555D01*
X133370412Y-45313415D01*
X133328994Y-45312522D01*
X133280479Y-45311847D01*
X133224145Y-45311360D01*
X133159267Y-45311029D01*
X133085121Y-45310825D01*
X133000986Y-45310718D01*
X132906137Y-45310677D01*
X132799850Y-45310673D01*
X132712725Y-45310675D01*
X132597613Y-45310661D01*
X132494474Y-45310644D01*
X132402579Y-45310663D01*
X132321202Y-45310755D01*
X132249615Y-45310960D01*
X132187091Y-45311316D01*
X132132902Y-45311861D01*
X132086321Y-45312633D01*
X132046620Y-45313671D01*
X132013072Y-45315013D01*
X131984950Y-45316698D01*
X131961526Y-45318764D01*
X131942072Y-45321250D01*
X131925862Y-45324193D01*
X131912168Y-45327632D01*
X131900261Y-45331606D01*
X131889416Y-45336153D01*
X131878904Y-45341312D01*
X131867998Y-45347120D01*
X131855971Y-45353616D01*
X131851219Y-45356134D01*
X131803725Y-45388007D01*
X131764875Y-45428811D01*
X131740407Y-45467838D01*
X131730918Y-45484702D01*
X131722988Y-45495650D01*
X131719724Y-45498000D01*
X131715009Y-45492545D01*
X131707102Y-45478008D01*
X131697445Y-45457133D01*
X131693897Y-45448788D01*
X131673207Y-45399751D01*
X131654538Y-45356912D01*
X131638402Y-45321368D01*
X131625313Y-45294217D01*
X131615784Y-45276557D01*
X131610330Y-45269485D01*
X131609974Y-45269400D01*
X131603351Y-45272635D01*
X131588920Y-45281280D01*
X131569100Y-45293749D01*
X131546311Y-45308455D01*
X131522973Y-45323810D01*
X131501504Y-45338229D01*
X131484325Y-45350123D01*
X131473855Y-45357906D01*
X131471798Y-45360030D01*
X131475113Y-45365605D01*
X131484189Y-45380558D01*
X131498145Y-45403442D01*
X131516098Y-45432812D01*
X131537164Y-45467223D01*
X131557976Y-45501175D01*
X131588317Y-45550618D01*
X131612771Y-45590716D01*
X131631999Y-45623011D01*
X131646658Y-45649042D01*
X131657407Y-45670350D01*
X131664905Y-45688475D01*
X131669811Y-45704956D01*
X131672784Y-45721334D01*
X131674482Y-45739149D01*
X131675565Y-45759940D01*
X131676345Y-45777871D01*
X131683643Y-45851038D01*
X131698713Y-45914391D01*
X131721966Y-45968463D01*
X131753811Y-46013788D01*
X131794659Y-46050901D01*
X131844919Y-46080334D01*
X131905003Y-46102622D01*
X131931066Y-46109465D01*
X131939658Y-46110716D01*
X131954651Y-46111838D01*
X131976564Y-46112836D01*
X132005920Y-46113715D01*
X132043238Y-46114480D01*
X132089040Y-46115136D01*
X132143846Y-46115689D01*
X132208176Y-46116144D01*
X132282553Y-46116506D01*
X132367495Y-46116780D01*
X132463525Y-46116971D01*
X132478684Y-46116986D01*
X132478684Y-45941457D01*
X132372754Y-45941414D01*
X132278849Y-45941221D01*
X132197056Y-45940880D01*
X132127466Y-45940391D01*
X132070168Y-45939754D01*
X132025252Y-45938971D01*
X131992808Y-45938041D01*
X131972925Y-45936965D01*
X131967430Y-45936322D01*
X131926595Y-45923134D01*
X131892538Y-45900376D01*
X131867119Y-45869325D01*
X131865370Y-45866260D01*
X131856214Y-45848209D01*
X131849593Y-45830553D01*
X131845172Y-45810858D01*
X131842614Y-45786691D01*
X131841583Y-45755620D01*
X131841745Y-45715212D01*
X131842042Y-45697235D01*
X131842923Y-45659277D01*
X131844160Y-45631428D01*
X131846103Y-45611098D01*
X131849101Y-45595695D01*
X131853506Y-45582628D01*
X131859180Y-45570282D01*
X131882673Y-45536666D01*
X131914918Y-45510563D01*
X131953188Y-45494054D01*
X131961757Y-45491997D01*
X131972558Y-45490802D01*
X131992933Y-45489754D01*
X132023178Y-45488852D01*
X132063591Y-45488092D01*
X132114470Y-45487474D01*
X132176112Y-45486995D01*
X132248814Y-45486653D01*
X132332874Y-45486445D01*
X132428589Y-45486371D01*
X132536256Y-45486428D01*
X132656173Y-45486613D01*
X132722302Y-45486757D01*
X132833760Y-45487022D01*
X132933230Y-45487273D01*
X133021425Y-45487522D01*
X133099057Y-45487785D01*
X133166838Y-45488076D01*
X133225480Y-45488408D01*
X133275695Y-45488797D01*
X133318197Y-45489256D01*
X133353696Y-45489800D01*
X133382906Y-45490443D01*
X133406539Y-45491200D01*
X133425306Y-45492084D01*
X133439921Y-45493111D01*
X133451095Y-45494294D01*
X133459541Y-45495648D01*
X133465971Y-45497187D01*
X133471097Y-45498925D01*
X133475632Y-45500877D01*
X133477900Y-45501937D01*
X133510632Y-45522670D01*
X133537699Y-45552164D01*
X133553726Y-45577827D01*
X133558780Y-45587762D01*
X133562407Y-45597684D01*
X133564793Y-45609749D01*
X133566122Y-45626114D01*
X133566580Y-45648934D01*
X133566351Y-45680366D01*
X133565716Y-45717527D01*
X133564400Y-45765336D01*
X133562109Y-45802492D01*
X133558284Y-45831034D01*
X133552366Y-45853003D01*
X133543795Y-45870437D01*
X133532012Y-45885377D01*
X133516458Y-45899863D01*
X133515512Y-45900662D01*
X133508833Y-45906522D01*
X133503020Y-45911759D01*
X133497361Y-45916410D01*
X133491145Y-45920511D01*
X133483662Y-45924099D01*
X133474200Y-45927210D01*
X133462049Y-45929880D01*
X133446499Y-45932146D01*
X133426837Y-45934044D01*
X133402353Y-45935611D01*
X133372336Y-45936883D01*
X133336076Y-45937897D01*
X133292861Y-45938689D01*
X133241980Y-45939294D01*
X133182723Y-45939751D01*
X133114378Y-45940095D01*
X133036236Y-45940363D01*
X132947584Y-45940590D01*
X132847712Y-45940814D01*
X132735909Y-45941071D01*
X132726255Y-45941095D01*
X132596547Y-45941351D01*
X132478684Y-45941457D01*
X132478684Y-46116986D01*
X132571163Y-46117084D01*
X132690929Y-46117125D01*
X132703200Y-46117125D01*
X132818734Y-46117132D01*
X132922293Y-46117131D01*
X133014604Y-46117087D01*
X133096392Y-46116969D01*
X133168383Y-46116743D01*
X133231302Y-46116375D01*
X133285876Y-46115833D01*
X133332829Y-46115083D01*
X133372889Y-46114092D01*
X133406780Y-46112828D01*
X133435228Y-46111255D01*
X133458959Y-46109343D01*
X133478698Y-46107057D01*
X133495172Y-46104363D01*
X133509107Y-46101230D01*
X133521226Y-46097623D01*
X133532258Y-46093510D01*
X133542926Y-46088858D01*
X133553958Y-46083632D01*
X133566078Y-46077800D01*
X133566426Y-46077634D01*
X133616758Y-46047008D01*
X133658262Y-46007325D01*
X133690751Y-45958836D01*
X133714034Y-45901795D01*
X133722306Y-45869475D01*
X133726416Y-45841512D01*
X133729382Y-45804092D01*
X133731201Y-45760332D01*
X133731871Y-45713350D01*
X133731389Y-45666264D01*
G36*
X131198250Y-47866550D02*
G01*
X131198250Y-48073125D01*
X131198358Y-48132682D01*
X131198707Y-48180592D01*
X131199337Y-48217906D01*
X131200289Y-48245674D01*
X131201603Y-48264947D01*
X131203319Y-48276777D01*
X131205477Y-48282214D01*
X131206246Y-48282767D01*
X131214362Y-48283470D01*
X131233581Y-48284010D01*
X131262305Y-48284378D01*
X131298938Y-48284563D01*
X131341885Y-48284553D01*
X131389547Y-48284339D01*
X131414209Y-48284156D01*
X131614175Y-48282475D01*
X131615850Y-48074513D01*
X131617524Y-47866550D01*
X131198250Y-47866550D01*
G37*
X131198250Y-47866550D02*
X131198250Y-48073125D01*
X131198358Y-48132682D01*
X131198707Y-48180592D01*
X131199337Y-48217906D01*
X131200289Y-48245674D01*
X131201603Y-48264947D01*
X131203319Y-48276777D01*
X131205477Y-48282214D01*
X131206246Y-48282767D01*
X131214362Y-48283470D01*
X131233581Y-48284010D01*
X131262305Y-48284378D01*
X131298938Y-48284563D01*
X131341885Y-48284553D01*
X131389547Y-48284339D01*
X131414209Y-48284156D01*
X131614175Y-48282475D01*
X131615850Y-48074513D01*
X131617524Y-47866550D01*
X131198250Y-47866550D01*
G36*
X131615992Y-48687023D02*
G01*
X131615854Y-48669395D01*
X131614175Y-48466625D01*
X131406213Y-48464951D01*
X131198250Y-48463277D01*
X131198250Y-48882550D01*
X131399863Y-48882453D01*
X131449467Y-48882274D01*
X131495144Y-48881812D01*
X131535304Y-48881105D01*
X131568357Y-48880195D01*
X131592714Y-48879119D01*
X131606784Y-48877918D01*
X131609504Y-48877260D01*
X131611813Y-48873067D01*
X131613606Y-48863032D01*
X131614915Y-48846064D01*
X131615776Y-48821071D01*
X131616219Y-48786961D01*
X131616280Y-48742643D01*
X131615992Y-48687023D01*
G37*
X131615992Y-48687023D02*
X131615854Y-48669395D01*
X131614175Y-48466625D01*
X131406213Y-48464951D01*
X131198250Y-48463277D01*
X131198250Y-48882550D01*
X131399863Y-48882453D01*
X131449467Y-48882274D01*
X131495144Y-48881812D01*
X131535304Y-48881105D01*
X131568357Y-48880195D01*
X131592714Y-48879119D01*
X131606784Y-48877918D01*
X131609504Y-48877260D01*
X131611813Y-48873067D01*
X131613606Y-48863032D01*
X131614915Y-48846064D01*
X131615776Y-48821071D01*
X131616219Y-48786961D01*
X131616280Y-48742643D01*
X131615992Y-48687023D01*
G36*
X131198250Y-49066700D02*
G01*
X131198250Y-49479624D01*
X131406213Y-49477950D01*
X131614175Y-49476275D01*
X131615851Y-49271488D01*
X131617526Y-49066700D01*
X131198250Y-49066700D01*
G37*
X131198250Y-49066700D02*
X131198250Y-49479624D01*
X131406213Y-49477950D01*
X131614175Y-49476275D01*
X131615851Y-49271488D01*
X131617526Y-49066700D01*
X131198250Y-49066700D01*
G36*
X131198250Y-49663600D02*
G01*
X131198250Y-50076350D01*
X131617350Y-50076350D01*
X131617350Y-49663600D01*
X131198250Y-49663600D01*
G37*
X131198250Y-49663600D02*
X131198250Y-50076350D01*
X131617350Y-50076350D01*
X131617350Y-49663600D01*
X131198250Y-49663600D01*
G36*
X111801750Y-48136400D02*
G01*
X111801750Y-47723650D01*
X111382650Y-47723650D01*
X111382650Y-48136400D01*
X111801750Y-48136400D01*
G37*
X111801750Y-48136400D02*
X111801750Y-47723650D01*
X111382650Y-47723650D01*
X111382650Y-48136400D01*
X111801750Y-48136400D01*
G36*
X111801750Y-48733300D02*
G01*
X111801750Y-48320376D01*
X111593787Y-48322050D01*
X111385825Y-48323725D01*
X111384149Y-48528512D01*
X111382474Y-48733300D01*
X111801750Y-48733300D01*
G37*
X111801750Y-48733300D02*
X111801750Y-48320376D01*
X111593787Y-48322050D01*
X111385825Y-48323725D01*
X111384149Y-48528512D01*
X111382474Y-48733300D01*
X111801750Y-48733300D01*
G36*
X111384008Y-49112977D02*
G01*
X111384146Y-49130605D01*
X111385825Y-49333375D01*
X111593787Y-49335049D01*
X111801750Y-49336723D01*
X111801750Y-48917450D01*
X111600137Y-48917547D01*
X111550533Y-48917726D01*
X111504856Y-48918188D01*
X111464696Y-48918895D01*
X111431643Y-48919805D01*
X111407286Y-48920881D01*
X111393216Y-48922082D01*
X111390496Y-48922740D01*
X111388187Y-48926933D01*
X111386394Y-48936968D01*
X111385085Y-48953936D01*
X111384224Y-48978929D01*
X111383781Y-49013039D01*
X111383720Y-49057357D01*
X111384008Y-49112977D01*
G37*
X111384008Y-49112977D02*
X111384146Y-49130605D01*
X111385825Y-49333375D01*
X111593787Y-49335049D01*
X111801750Y-49336723D01*
X111801750Y-48917450D01*
X111600137Y-48917547D01*
X111550533Y-48917726D01*
X111504856Y-48918188D01*
X111464696Y-48918895D01*
X111431643Y-48919805D01*
X111407286Y-48920881D01*
X111393216Y-48922082D01*
X111390496Y-48922740D01*
X111388187Y-48926933D01*
X111386394Y-48936968D01*
X111385085Y-48953936D01*
X111384224Y-48978929D01*
X111383781Y-49013039D01*
X111383720Y-49057357D01*
X111384008Y-49112977D01*
G36*
X111801750Y-49933450D02*
G01*
X111801750Y-49726875D01*
X111801642Y-49667318D01*
X111801293Y-49619408D01*
X111800663Y-49582094D01*
X111799711Y-49554326D01*
X111798397Y-49535053D01*
X111796681Y-49523223D01*
X111794523Y-49517786D01*
X111793754Y-49517233D01*
X111785638Y-49516530D01*
X111766419Y-49515990D01*
X111737695Y-49515622D01*
X111701062Y-49515437D01*
X111658115Y-49515447D01*
X111610453Y-49515661D01*
X111585791Y-49515844D01*
X111385825Y-49517525D01*
X111384150Y-49725487D01*
X111382476Y-49933450D01*
X111801750Y-49933450D01*
G37*
X111801750Y-49933450D02*
X111801750Y-49726875D01*
X111801642Y-49667318D01*
X111801293Y-49619408D01*
X111800663Y-49582094D01*
X111799711Y-49554326D01*
X111798397Y-49535053D01*
X111796681Y-49523223D01*
X111794523Y-49517786D01*
X111793754Y-49517233D01*
X111785638Y-49516530D01*
X111766419Y-49515990D01*
X111737695Y-49515622D01*
X111701062Y-49515437D01*
X111658115Y-49515447D01*
X111610453Y-49515661D01*
X111585791Y-49515844D01*
X111385825Y-49517525D01*
X111384150Y-49725487D01*
X111382476Y-49933450D01*
X111801750Y-49933450D01*
G36*
X109268611Y-52133736D02*
G01*
X109270248Y-52177810D01*
X109273043Y-52215754D01*
X109276998Y-52244451D01*
X109277413Y-52246483D01*
X109295736Y-52305109D01*
X109324045Y-52357429D01*
X109361350Y-52402143D01*
X109406661Y-52437954D01*
X109435482Y-52453786D01*
X109446581Y-52459062D01*
X109456819Y-52463789D01*
X109466919Y-52467996D01*
X109477606Y-52471715D01*
X109489602Y-52474974D01*
X109503631Y-52477805D01*
X109520416Y-52480237D01*
X109540681Y-52482301D01*
X109565149Y-52484027D01*
X109594544Y-52485445D01*
X109629588Y-52486585D01*
X109671006Y-52487478D01*
X109719521Y-52488153D01*
X109775855Y-52488640D01*
X109840733Y-52488971D01*
X109914879Y-52489175D01*
X109999014Y-52489282D01*
X110093863Y-52489323D01*
X110200150Y-52489327D01*
X110287275Y-52489325D01*
X110402387Y-52489339D01*
X110505526Y-52489356D01*
X110597421Y-52489337D01*
X110678798Y-52489245D01*
X110750385Y-52489040D01*
X110812909Y-52488684D01*
X110867098Y-52488139D01*
X110913679Y-52487367D01*
X110953380Y-52486329D01*
X110986928Y-52484987D01*
X111015050Y-52483302D01*
X111038474Y-52481236D01*
X111057928Y-52478750D01*
X111074138Y-52475807D01*
X111087832Y-52472368D01*
X111099739Y-52468394D01*
X111110584Y-52463847D01*
X111121096Y-52458688D01*
X111132002Y-52452880D01*
X111144029Y-52446384D01*
X111148781Y-52443866D01*
X111196275Y-52411993D01*
X111235125Y-52371189D01*
X111259593Y-52332162D01*
X111269082Y-52315298D01*
X111277012Y-52304350D01*
X111280276Y-52302000D01*
X111284991Y-52307455D01*
X111292898Y-52321992D01*
X111302555Y-52342867D01*
X111306103Y-52351212D01*
X111326793Y-52400249D01*
X111345462Y-52443088D01*
X111361598Y-52478632D01*
X111374687Y-52505783D01*
X111384216Y-52523443D01*
X111389670Y-52530515D01*
X111390026Y-52530600D01*
X111396649Y-52527365D01*
X111411080Y-52518720D01*
X111430900Y-52506251D01*
X111453689Y-52491545D01*
X111477027Y-52476190D01*
X111498496Y-52461771D01*
X111515675Y-52449877D01*
X111526145Y-52442094D01*
X111528202Y-52439970D01*
X111524887Y-52434395D01*
X111515811Y-52419442D01*
X111501855Y-52396558D01*
X111483902Y-52367188D01*
X111462836Y-52332777D01*
X111442024Y-52298825D01*
X111411683Y-52249382D01*
X111387229Y-52209284D01*
X111368001Y-52176989D01*
X111353342Y-52150958D01*
X111342593Y-52129650D01*
X111335095Y-52111525D01*
X111330189Y-52095044D01*
X111327216Y-52078666D01*
X111325518Y-52060851D01*
X111324435Y-52040060D01*
X111323655Y-52022129D01*
X111316357Y-51948962D01*
X111301287Y-51885609D01*
X111278034Y-51831537D01*
X111246189Y-51786212D01*
X111205341Y-51749099D01*
X111155081Y-51719666D01*
X111094997Y-51697378D01*
X111068934Y-51690535D01*
X111060342Y-51689284D01*
X111045349Y-51688162D01*
X111023436Y-51687164D01*
X110994080Y-51686285D01*
X110956762Y-51685520D01*
X110910960Y-51684864D01*
X110856154Y-51684311D01*
X110791824Y-51683856D01*
X110717447Y-51683494D01*
X110632505Y-51683220D01*
X110536475Y-51683029D01*
X110521316Y-51683014D01*
X110521316Y-51858543D01*
X110627246Y-51858586D01*
X110721151Y-51858779D01*
X110802944Y-51859120D01*
X110872534Y-51859609D01*
X110929832Y-51860246D01*
X110974748Y-51861029D01*
X111007192Y-51861959D01*
X111027075Y-51863035D01*
X111032570Y-51863678D01*
X111073405Y-51876866D01*
X111107462Y-51899624D01*
X111132881Y-51930675D01*
X111134630Y-51933740D01*
X111143786Y-51951791D01*
X111150407Y-51969447D01*
X111154828Y-51989142D01*
X111157386Y-52013309D01*
X111158417Y-52044380D01*
X111158255Y-52084788D01*
X111157958Y-52102765D01*
X111157077Y-52140723D01*
X111155840Y-52168572D01*
X111153897Y-52188902D01*
X111150899Y-52204305D01*
X111146494Y-52217372D01*
X111140820Y-52229718D01*
X111117327Y-52263334D01*
X111085082Y-52289437D01*
X111046812Y-52305946D01*
X111038243Y-52308003D01*
X111027442Y-52309198D01*
X111007067Y-52310246D01*
X110976822Y-52311148D01*
X110936409Y-52311908D01*
X110885530Y-52312526D01*
X110823888Y-52313005D01*
X110751186Y-52313347D01*
X110667126Y-52313555D01*
X110571411Y-52313629D01*
X110463744Y-52313572D01*
X110343827Y-52313387D01*
X110277698Y-52313243D01*
X110166240Y-52312978D01*
X110066770Y-52312727D01*
X109978575Y-52312478D01*
X109900943Y-52312215D01*
X109833162Y-52311924D01*
X109774520Y-52311592D01*
X109724305Y-52311203D01*
X109681803Y-52310744D01*
X109646304Y-52310200D01*
X109617094Y-52309557D01*
X109593461Y-52308800D01*
X109574694Y-52307916D01*
X109560079Y-52306889D01*
X109548905Y-52305706D01*
X109540459Y-52304352D01*
X109534029Y-52302813D01*
X109528903Y-52301075D01*
X109524368Y-52299123D01*
X109522100Y-52298063D01*
X109489368Y-52277330D01*
X109462301Y-52247836D01*
X109446274Y-52222173D01*
X109441220Y-52212238D01*
X109437593Y-52202316D01*
X109435207Y-52190251D01*
X109433878Y-52173886D01*
X109433420Y-52151066D01*
X109433649Y-52119634D01*
X109434284Y-52082473D01*
X109435600Y-52034664D01*
X109437891Y-51997508D01*
X109441716Y-51968966D01*
X109447634Y-51946997D01*
X109456205Y-51929563D01*
X109467988Y-51914623D01*
X109483542Y-51900137D01*
X109484488Y-51899338D01*
X109491167Y-51893478D01*
X109496980Y-51888241D01*
X109502639Y-51883590D01*
X109508855Y-51879489D01*
X109516338Y-51875901D01*
X109525800Y-51872790D01*
X109537951Y-51870120D01*
X109553501Y-51867854D01*
X109573163Y-51865956D01*
X109597647Y-51864389D01*
X109627664Y-51863117D01*
X109663924Y-51862103D01*
X109707139Y-51861311D01*
X109758020Y-51860706D01*
X109817277Y-51860249D01*
X109885622Y-51859905D01*
X109963764Y-51859637D01*
X110052416Y-51859410D01*
X110152288Y-51859186D01*
X110264091Y-51858929D01*
X110273745Y-51858905D01*
X110403453Y-51858649D01*
X110521316Y-51858543D01*
X110521316Y-51683014D01*
X110428837Y-51682916D01*
X110309071Y-51682875D01*
X110296800Y-51682875D01*
X110181266Y-51682868D01*
X110077707Y-51682869D01*
X109985396Y-51682913D01*
X109903608Y-51683031D01*
X109831617Y-51683257D01*
X109768698Y-51683625D01*
X109714124Y-51684167D01*
X109667171Y-51684917D01*
X109627111Y-51685908D01*
X109593220Y-51687172D01*
X109564772Y-51688745D01*
X109541041Y-51690657D01*
X109521302Y-51692943D01*
X109504828Y-51695637D01*
X109490893Y-51698770D01*
X109478774Y-51702377D01*
X109467742Y-51706490D01*
X109457074Y-51711142D01*
X109446042Y-51716368D01*
X109433922Y-51722200D01*
X109433574Y-51722366D01*
X109383242Y-51752992D01*
X109341738Y-51792675D01*
X109309249Y-51841164D01*
X109285966Y-51898205D01*
X109277694Y-51930525D01*
X109273584Y-51958488D01*
X109270618Y-51995908D01*
X109268799Y-52039668D01*
X109268129Y-52086650D01*
X109268611Y-52133736D01*
G37*
X109268611Y-52133736D02*
X109270248Y-52177810D01*
X109273043Y-52215754D01*
X109276998Y-52244451D01*
X109277413Y-52246483D01*
X109295736Y-52305109D01*
X109324045Y-52357429D01*
X109361350Y-52402143D01*
X109406661Y-52437954D01*
X109435482Y-52453786D01*
X109446581Y-52459062D01*
X109456819Y-52463789D01*
X109466919Y-52467996D01*
X109477606Y-52471715D01*
X109489602Y-52474974D01*
X109503631Y-52477805D01*
X109520416Y-52480237D01*
X109540681Y-52482301D01*
X109565149Y-52484027D01*
X109594544Y-52485445D01*
X109629588Y-52486585D01*
X109671006Y-52487478D01*
X109719521Y-52488153D01*
X109775855Y-52488640D01*
X109840733Y-52488971D01*
X109914879Y-52489175D01*
X109999014Y-52489282D01*
X110093863Y-52489323D01*
X110200150Y-52489327D01*
X110287275Y-52489325D01*
X110402387Y-52489339D01*
X110505526Y-52489356D01*
X110597421Y-52489337D01*
X110678798Y-52489245D01*
X110750385Y-52489040D01*
X110812909Y-52488684D01*
X110867098Y-52488139D01*
X110913679Y-52487367D01*
X110953380Y-52486329D01*
X110986928Y-52484987D01*
X111015050Y-52483302D01*
X111038474Y-52481236D01*
X111057928Y-52478750D01*
X111074138Y-52475807D01*
X111087832Y-52472368D01*
X111099739Y-52468394D01*
X111110584Y-52463847D01*
X111121096Y-52458688D01*
X111132002Y-52452880D01*
X111144029Y-52446384D01*
X111148781Y-52443866D01*
X111196275Y-52411993D01*
X111235125Y-52371189D01*
X111259593Y-52332162D01*
X111269082Y-52315298D01*
X111277012Y-52304350D01*
X111280276Y-52302000D01*
X111284991Y-52307455D01*
X111292898Y-52321992D01*
X111302555Y-52342867D01*
X111306103Y-52351212D01*
X111326793Y-52400249D01*
X111345462Y-52443088D01*
X111361598Y-52478632D01*
X111374687Y-52505783D01*
X111384216Y-52523443D01*
X111389670Y-52530515D01*
X111390026Y-52530600D01*
X111396649Y-52527365D01*
X111411080Y-52518720D01*
X111430900Y-52506251D01*
X111453689Y-52491545D01*
X111477027Y-52476190D01*
X111498496Y-52461771D01*
X111515675Y-52449877D01*
X111526145Y-52442094D01*
X111528202Y-52439970D01*
X111524887Y-52434395D01*
X111515811Y-52419442D01*
X111501855Y-52396558D01*
X111483902Y-52367188D01*
X111462836Y-52332777D01*
X111442024Y-52298825D01*
X111411683Y-52249382D01*
X111387229Y-52209284D01*
X111368001Y-52176989D01*
X111353342Y-52150958D01*
X111342593Y-52129650D01*
X111335095Y-52111525D01*
X111330189Y-52095044D01*
X111327216Y-52078666D01*
X111325518Y-52060851D01*
X111324435Y-52040060D01*
X111323655Y-52022129D01*
X111316357Y-51948962D01*
X111301287Y-51885609D01*
X111278034Y-51831537D01*
X111246189Y-51786212D01*
X111205341Y-51749099D01*
X111155081Y-51719666D01*
X111094997Y-51697378D01*
X111068934Y-51690535D01*
X111060342Y-51689284D01*
X111045349Y-51688162D01*
X111023436Y-51687164D01*
X110994080Y-51686285D01*
X110956762Y-51685520D01*
X110910960Y-51684864D01*
X110856154Y-51684311D01*
X110791824Y-51683856D01*
X110717447Y-51683494D01*
X110632505Y-51683220D01*
X110536475Y-51683029D01*
X110521316Y-51683014D01*
X110521316Y-51858543D01*
X110627246Y-51858586D01*
X110721151Y-51858779D01*
X110802944Y-51859120D01*
X110872534Y-51859609D01*
X110929832Y-51860246D01*
X110974748Y-51861029D01*
X111007192Y-51861959D01*
X111027075Y-51863035D01*
X111032570Y-51863678D01*
X111073405Y-51876866D01*
X111107462Y-51899624D01*
X111132881Y-51930675D01*
X111134630Y-51933740D01*
X111143786Y-51951791D01*
X111150407Y-51969447D01*
X111154828Y-51989142D01*
X111157386Y-52013309D01*
X111158417Y-52044380D01*
X111158255Y-52084788D01*
X111157958Y-52102765D01*
X111157077Y-52140723D01*
X111155840Y-52168572D01*
X111153897Y-52188902D01*
X111150899Y-52204305D01*
X111146494Y-52217372D01*
X111140820Y-52229718D01*
X111117327Y-52263334D01*
X111085082Y-52289437D01*
X111046812Y-52305946D01*
X111038243Y-52308003D01*
X111027442Y-52309198D01*
X111007067Y-52310246D01*
X110976822Y-52311148D01*
X110936409Y-52311908D01*
X110885530Y-52312526D01*
X110823888Y-52313005D01*
X110751186Y-52313347D01*
X110667126Y-52313555D01*
X110571411Y-52313629D01*
X110463744Y-52313572D01*
X110343827Y-52313387D01*
X110277698Y-52313243D01*
X110166240Y-52312978D01*
X110066770Y-52312727D01*
X109978575Y-52312478D01*
X109900943Y-52312215D01*
X109833162Y-52311924D01*
X109774520Y-52311592D01*
X109724305Y-52311203D01*
X109681803Y-52310744D01*
X109646304Y-52310200D01*
X109617094Y-52309557D01*
X109593461Y-52308800D01*
X109574694Y-52307916D01*
X109560079Y-52306889D01*
X109548905Y-52305706D01*
X109540459Y-52304352D01*
X109534029Y-52302813D01*
X109528903Y-52301075D01*
X109524368Y-52299123D01*
X109522100Y-52298063D01*
X109489368Y-52277330D01*
X109462301Y-52247836D01*
X109446274Y-52222173D01*
X109441220Y-52212238D01*
X109437593Y-52202316D01*
X109435207Y-52190251D01*
X109433878Y-52173886D01*
X109433420Y-52151066D01*
X109433649Y-52119634D01*
X109434284Y-52082473D01*
X109435600Y-52034664D01*
X109437891Y-51997508D01*
X109441716Y-51968966D01*
X109447634Y-51946997D01*
X109456205Y-51929563D01*
X109467988Y-51914623D01*
X109483542Y-51900137D01*
X109484488Y-51899338D01*
X109491167Y-51893478D01*
X109496980Y-51888241D01*
X109502639Y-51883590D01*
X109508855Y-51879489D01*
X109516338Y-51875901D01*
X109525800Y-51872790D01*
X109537951Y-51870120D01*
X109553501Y-51867854D01*
X109573163Y-51865956D01*
X109597647Y-51864389D01*
X109627664Y-51863117D01*
X109663924Y-51862103D01*
X109707139Y-51861311D01*
X109758020Y-51860706D01*
X109817277Y-51860249D01*
X109885622Y-51859905D01*
X109963764Y-51859637D01*
X110052416Y-51859410D01*
X110152288Y-51859186D01*
X110264091Y-51858929D01*
X110273745Y-51858905D01*
X110403453Y-51858649D01*
X110521316Y-51858543D01*
X110521316Y-51683014D01*
X110428837Y-51682916D01*
X110309071Y-51682875D01*
X110296800Y-51682875D01*
X110181266Y-51682868D01*
X110077707Y-51682869D01*
X109985396Y-51682913D01*
X109903608Y-51683031D01*
X109831617Y-51683257D01*
X109768698Y-51683625D01*
X109714124Y-51684167D01*
X109667171Y-51684917D01*
X109627111Y-51685908D01*
X109593220Y-51687172D01*
X109564772Y-51688745D01*
X109541041Y-51690657D01*
X109521302Y-51692943D01*
X109504828Y-51695637D01*
X109490893Y-51698770D01*
X109478774Y-51702377D01*
X109467742Y-51706490D01*
X109457074Y-51711142D01*
X109446042Y-51716368D01*
X109433922Y-51722200D01*
X109433574Y-51722366D01*
X109383242Y-51752992D01*
X109341738Y-51792675D01*
X109309249Y-51841164D01*
X109285966Y-51898205D01*
X109277694Y-51930525D01*
X109273584Y-51958488D01*
X109270618Y-51995908D01*
X109268799Y-52039668D01*
X109268129Y-52086650D01*
X109268611Y-52133736D01*
G36*
X109281853Y-45297303D02*
G01*
X109282069Y-45400323D01*
X109282166Y-45431300D01*
X109283975Y-45967875D01*
X109347475Y-45969927D01*
X109380066Y-45970388D01*
X109419938Y-45970072D01*
X109461696Y-45969060D01*
X109494950Y-45967697D01*
X109578926Y-45963416D01*
X109580675Y-45867220D01*
X109582425Y-45771025D01*
X109663225Y-45769248D01*
X109744025Y-45767472D01*
X109745775Y-45867673D01*
X109747525Y-45967875D01*
X110526987Y-45969487D01*
X111306450Y-45971100D01*
X111306204Y-45699612D01*
X111305958Y-45428125D01*
X111281146Y-45479388D01*
X111255361Y-45523939D01*
X111224624Y-45559256D01*
X111186133Y-45588091D01*
X111151872Y-45606469D01*
X111124331Y-45618694D01*
X111097828Y-45628256D01*
X111070263Y-45635464D01*
X111039536Y-45640623D01*
X111003546Y-45644040D01*
X110960194Y-45646023D01*
X110907377Y-45646878D01*
X110874650Y-45646979D01*
X110815642Y-45646585D01*
X110767265Y-45645214D01*
X110727467Y-45642583D01*
X110694197Y-45638409D01*
X110665405Y-45632410D01*
X110639038Y-45624302D01*
X110613048Y-45613802D01*
X110603912Y-45609628D01*
X110561996Y-45584645D01*
X110520548Y-45549980D01*
X110482726Y-45508362D01*
X110474783Y-45497975D01*
X110465238Y-45484137D01*
X110450219Y-45461230D01*
X110430855Y-45431031D01*
X110408277Y-45395315D01*
X110383617Y-45355861D01*
X110358005Y-45314445D01*
X110357623Y-45313825D01*
X110331925Y-45272296D01*
X110307075Y-45232624D01*
X110284221Y-45196604D01*
X110264512Y-45166032D01*
X110249097Y-45142705D01*
X110239123Y-45128420D01*
X110239071Y-45128351D01*
X110216656Y-45102441D01*
X110191628Y-45082073D01*
X110162295Y-45066697D01*
X110126962Y-45055761D01*
X110083937Y-45048717D01*
X110031527Y-45045013D01*
X109979716Y-45044082D01*
X109927622Y-45044802D01*
X109886044Y-45047438D01*
X109852877Y-45052465D01*
X109826020Y-45060360D01*
X109803368Y-45071598D01*
X109782819Y-45086656D01*
X109779672Y-45089376D01*
X109761041Y-45107898D01*
X109747387Y-45127435D01*
X109738006Y-45150329D01*
X109732195Y-45178921D01*
X109729253Y-45215554D01*
X109728475Y-45260019D01*
X109728645Y-45295363D01*
X109729417Y-45320837D01*
X109731180Y-45339268D01*
X109734326Y-45353485D01*
X109739246Y-45366317D01*
X109744696Y-45377436D01*
X109765848Y-45407824D01*
X109794268Y-45433863D01*
X109825924Y-45452146D01*
X109838172Y-45456410D01*
X109851408Y-45458329D01*
X109875295Y-45460019D01*
X109907785Y-45461403D01*
X109946832Y-45462403D01*
X109990387Y-45462942D01*
X110012637Y-45463014D01*
X110163450Y-45463050D01*
X110163450Y-45552559D01*
X110163449Y-45642068D01*
X109993587Y-45639131D01*
X109938347Y-45638018D01*
X109894148Y-45636724D01*
X109859330Y-45635139D01*
X109832234Y-45633152D01*
X109811201Y-45630653D01*
X109794571Y-45627531D01*
X109785970Y-45625300D01*
X109731920Y-45605273D01*
X109683135Y-45578590D01*
X109668883Y-45568606D01*
X109635166Y-45535873D01*
X109606735Y-45492918D01*
X109584082Y-45441280D01*
X109567699Y-45382497D01*
X109558076Y-45318109D01*
X109555707Y-45249653D01*
X109557077Y-45218814D01*
X109566455Y-45142470D01*
X109583553Y-45076113D01*
X109608543Y-45019519D01*
X109641593Y-44972461D01*
X109682874Y-44934717D01*
X109732555Y-44906060D01*
X109790808Y-44886267D01*
X109812306Y-44881572D01*
X109847109Y-44876473D01*
X109890968Y-44872399D01*
X109940443Y-44869454D01*
X109992093Y-44867737D01*
X110042479Y-44867351D01*
X110088160Y-44868399D01*
X110125695Y-44870980D01*
X110134625Y-44872038D01*
X110199230Y-44884333D01*
X110254272Y-44903053D01*
X110301651Y-44929163D01*
X110343270Y-44963625D01*
X110367140Y-44989760D01*
X110379801Y-45006386D01*
X110397894Y-45032083D01*
X110420241Y-45065077D01*
X110445661Y-45103596D01*
X110472977Y-45145866D01*
X110501009Y-45190114D01*
X110510677Y-45205590D01*
X110545156Y-45260299D01*
X110576263Y-45308270D01*
X110603355Y-45348560D01*
X110625792Y-45380227D01*
X110642930Y-45402325D01*
X110649873Y-45410067D01*
X110665948Y-45425473D01*
X110681494Y-45437587D01*
X110698282Y-45446798D01*
X110718080Y-45453497D01*
X110742660Y-45458074D01*
X110773792Y-45460918D01*
X110813245Y-45462421D01*
X110862789Y-45462973D01*
X110890090Y-45463014D01*
X110934980Y-45462691D01*
X110975775Y-45461802D01*
X111010415Y-45460432D01*
X111036846Y-45458667D01*
X111053008Y-45456591D01*
X111054680Y-45456188D01*
X111078599Y-45444609D01*
X111103086Y-45424771D01*
X111124424Y-45400373D01*
X111138892Y-45375109D01*
X111140407Y-45370975D01*
X111144299Y-45353778D01*
X111147988Y-45327958D01*
X111150958Y-45297587D01*
X111152235Y-45277772D01*
X111152357Y-45217802D01*
X111145911Y-45167967D01*
X111132533Y-45127321D01*
X111111859Y-45094918D01*
X111083526Y-45069811D01*
X111068926Y-45061038D01*
X111060479Y-45056847D01*
X111051563Y-45053564D01*
X111040531Y-45051054D01*
X111025733Y-45049184D01*
X111005520Y-45047820D01*
X110978244Y-45046829D01*
X110942254Y-45046077D01*
X110895904Y-45045430D01*
X110873062Y-45045158D01*
X110703200Y-45043192D01*
X110703200Y-44866150D01*
X110859042Y-44866150D01*
X110921351Y-44866522D01*
X110972882Y-44867817D01*
X111015543Y-44870299D01*
X111051240Y-44874234D01*
X111081879Y-44879888D01*
X111109367Y-44887526D01*
X111135609Y-44897413D01*
X111158507Y-44907856D01*
X111205537Y-44936041D01*
X111243279Y-44971195D01*
X111273868Y-45015457D01*
X111282633Y-45032175D01*
X111305592Y-45078875D01*
X111305383Y-44955050D01*
X111305032Y-44914955D01*
X111304181Y-44877706D01*
X111302926Y-44845754D01*
X111301364Y-44821550D01*
X111299592Y-44807545D01*
X111299555Y-44807386D01*
X111284925Y-44767001D01*
X111261030Y-44725533D01*
X111230493Y-44686372D01*
X111195937Y-44652908D01*
X111161979Y-44629590D01*
X111152284Y-44624243D01*
X111143538Y-44619439D01*
X111135044Y-44615151D01*
X111126108Y-44611351D01*
X111116032Y-44608012D01*
X111104122Y-44605105D01*
X111089682Y-44602604D01*
X111072017Y-44600481D01*
X111050431Y-44598707D01*
X111024228Y-44597256D01*
X110992712Y-44596100D01*
X110955189Y-44595211D01*
X110910962Y-44594561D01*
X110859336Y-44594123D01*
X110799615Y-44593870D01*
X110731104Y-44593773D01*
X110653107Y-44593804D01*
X110564929Y-44593937D01*
X110465873Y-44594144D01*
X110355245Y-44594397D01*
X110280465Y-44594564D01*
X109499875Y-44596275D01*
X109452250Y-44619582D01*
X109398759Y-44652218D01*
X109354822Y-44692781D01*
X109320980Y-44740531D01*
X109297776Y-44794731D01*
X109286867Y-44844962D01*
X109285616Y-44861451D01*
X109284537Y-44890220D01*
X109283633Y-44930852D01*
X109282907Y-44982928D01*
X109282362Y-45046029D01*
X109282003Y-45119738D01*
X109281832Y-45203635D01*
X109281853Y-45297303D01*
G37*
X109281853Y-45297303D02*
X109282069Y-45400323D01*
X109282166Y-45431300D01*
X109283975Y-45967875D01*
X109347475Y-45969927D01*
X109380066Y-45970388D01*
X109419938Y-45970072D01*
X109461696Y-45969060D01*
X109494950Y-45967697D01*
X109578926Y-45963416D01*
X109580675Y-45867220D01*
X109582425Y-45771025D01*
X109663225Y-45769248D01*
X109744025Y-45767472D01*
X109745775Y-45867673D01*
X109747525Y-45967875D01*
X110526987Y-45969487D01*
X111306450Y-45971100D01*
X111306204Y-45699612D01*
X111305958Y-45428125D01*
X111281146Y-45479388D01*
X111255361Y-45523939D01*
X111224624Y-45559256D01*
X111186133Y-45588091D01*
X111151872Y-45606469D01*
X111124331Y-45618694D01*
X111097828Y-45628256D01*
X111070263Y-45635464D01*
X111039536Y-45640623D01*
X111003546Y-45644040D01*
X110960194Y-45646023D01*
X110907377Y-45646878D01*
X110874650Y-45646979D01*
X110815642Y-45646585D01*
X110767265Y-45645214D01*
X110727467Y-45642583D01*
X110694197Y-45638409D01*
X110665405Y-45632410D01*
X110639038Y-45624302D01*
X110613048Y-45613802D01*
X110603912Y-45609628D01*
X110561996Y-45584645D01*
X110520548Y-45549980D01*
X110482726Y-45508362D01*
X110474783Y-45497975D01*
X110465238Y-45484137D01*
X110450219Y-45461230D01*
X110430855Y-45431031D01*
X110408277Y-45395315D01*
X110383617Y-45355861D01*
X110358005Y-45314445D01*
X110357623Y-45313825D01*
X110331925Y-45272296D01*
X110307075Y-45232624D01*
X110284221Y-45196604D01*
X110264512Y-45166032D01*
X110249097Y-45142705D01*
X110239123Y-45128420D01*
X110239071Y-45128351D01*
X110216656Y-45102441D01*
X110191628Y-45082073D01*
X110162295Y-45066697D01*
X110126962Y-45055761D01*
X110083937Y-45048717D01*
X110031527Y-45045013D01*
X109979716Y-45044082D01*
X109927622Y-45044802D01*
X109886044Y-45047438D01*
X109852877Y-45052465D01*
X109826020Y-45060360D01*
X109803368Y-45071598D01*
X109782819Y-45086656D01*
X109779672Y-45089376D01*
X109761041Y-45107898D01*
X109747387Y-45127435D01*
X109738006Y-45150329D01*
X109732195Y-45178921D01*
X109729253Y-45215554D01*
X109728475Y-45260019D01*
X109728645Y-45295363D01*
X109729417Y-45320837D01*
X109731180Y-45339268D01*
X109734326Y-45353485D01*
X109739246Y-45366317D01*
X109744696Y-45377436D01*
X109765848Y-45407824D01*
X109794268Y-45433863D01*
X109825924Y-45452146D01*
X109838172Y-45456410D01*
X109851408Y-45458329D01*
X109875295Y-45460019D01*
X109907785Y-45461403D01*
X109946832Y-45462403D01*
X109990387Y-45462942D01*
X110012637Y-45463014D01*
X110163450Y-45463050D01*
X110163450Y-45552559D01*
X110163449Y-45642068D01*
X109993587Y-45639131D01*
X109938347Y-45638018D01*
X109894148Y-45636724D01*
X109859330Y-45635139D01*
X109832234Y-45633152D01*
X109811201Y-45630653D01*
X109794571Y-45627531D01*
X109785970Y-45625300D01*
X109731920Y-45605273D01*
X109683135Y-45578590D01*
X109668883Y-45568606D01*
X109635166Y-45535873D01*
X109606735Y-45492918D01*
X109584082Y-45441280D01*
X109567699Y-45382497D01*
X109558076Y-45318109D01*
X109555707Y-45249653D01*
X109557077Y-45218814D01*
X109566455Y-45142470D01*
X109583553Y-45076113D01*
X109608543Y-45019519D01*
X109641593Y-44972461D01*
X109682874Y-44934717D01*
X109732555Y-44906060D01*
X109790808Y-44886267D01*
X109812306Y-44881572D01*
X109847109Y-44876473D01*
X109890968Y-44872399D01*
X109940443Y-44869454D01*
X109992093Y-44867737D01*
X110042479Y-44867351D01*
X110088160Y-44868399D01*
X110125695Y-44870980D01*
X110134625Y-44872038D01*
X110199230Y-44884333D01*
X110254272Y-44903053D01*
X110301651Y-44929163D01*
X110343270Y-44963625D01*
X110367140Y-44989760D01*
X110379801Y-45006386D01*
X110397894Y-45032083D01*
X110420241Y-45065077D01*
X110445661Y-45103596D01*
X110472977Y-45145866D01*
X110501009Y-45190114D01*
X110510677Y-45205590D01*
X110545156Y-45260299D01*
X110576263Y-45308270D01*
X110603355Y-45348560D01*
X110625792Y-45380227D01*
X110642930Y-45402325D01*
X110649873Y-45410067D01*
X110665948Y-45425473D01*
X110681494Y-45437587D01*
X110698282Y-45446798D01*
X110718080Y-45453497D01*
X110742660Y-45458074D01*
X110773792Y-45460918D01*
X110813245Y-45462421D01*
X110862789Y-45462973D01*
X110890090Y-45463014D01*
X110934980Y-45462691D01*
X110975775Y-45461802D01*
X111010415Y-45460432D01*
X111036846Y-45458667D01*
X111053008Y-45456591D01*
X111054680Y-45456188D01*
X111078599Y-45444609D01*
X111103086Y-45424771D01*
X111124424Y-45400373D01*
X111138892Y-45375109D01*
X111140407Y-45370975D01*
X111144299Y-45353778D01*
X111147988Y-45327958D01*
X111150958Y-45297587D01*
X111152235Y-45277772D01*
X111152357Y-45217802D01*
X111145911Y-45167967D01*
X111132533Y-45127321D01*
X111111859Y-45094918D01*
X111083526Y-45069811D01*
X111068926Y-45061038D01*
X111060479Y-45056847D01*
X111051563Y-45053564D01*
X111040531Y-45051054D01*
X111025733Y-45049184D01*
X111005520Y-45047820D01*
X110978244Y-45046829D01*
X110942254Y-45046077D01*
X110895904Y-45045430D01*
X110873062Y-45045158D01*
X110703200Y-45043192D01*
X110703200Y-44866150D01*
X110859042Y-44866150D01*
X110921351Y-44866522D01*
X110972882Y-44867817D01*
X111015543Y-44870299D01*
X111051240Y-44874234D01*
X111081879Y-44879888D01*
X111109367Y-44887526D01*
X111135609Y-44897413D01*
X111158507Y-44907856D01*
X111205537Y-44936041D01*
X111243279Y-44971195D01*
X111273868Y-45015457D01*
X111282633Y-45032175D01*
X111305592Y-45078875D01*
X111305383Y-44955050D01*
X111305032Y-44914955D01*
X111304181Y-44877706D01*
X111302926Y-44845754D01*
X111301364Y-44821550D01*
X111299592Y-44807545D01*
X111299555Y-44807386D01*
X111284925Y-44767001D01*
X111261030Y-44725533D01*
X111230493Y-44686372D01*
X111195937Y-44652908D01*
X111161979Y-44629590D01*
X111152284Y-44624243D01*
X111143538Y-44619439D01*
X111135044Y-44615151D01*
X111126108Y-44611351D01*
X111116032Y-44608012D01*
X111104122Y-44605105D01*
X111089682Y-44602604D01*
X111072017Y-44600481D01*
X111050431Y-44598707D01*
X111024228Y-44597256D01*
X110992712Y-44596100D01*
X110955189Y-44595211D01*
X110910962Y-44594561D01*
X110859336Y-44594123D01*
X110799615Y-44593870D01*
X110731104Y-44593773D01*
X110653107Y-44593804D01*
X110564929Y-44593937D01*
X110465873Y-44594144D01*
X110355245Y-44594397D01*
X110280465Y-44594564D01*
X109499875Y-44596275D01*
X109452250Y-44619582D01*
X109398759Y-44652218D01*
X109354822Y-44692781D01*
X109320980Y-44740531D01*
X109297776Y-44794731D01*
X109286867Y-44844962D01*
X109285616Y-44861451D01*
X109284537Y-44890220D01*
X109283633Y-44930852D01*
X109282907Y-44982928D01*
X109282362Y-45046029D01*
X109282003Y-45119738D01*
X109281832Y-45203635D01*
X109281853Y-45297303D01*
G36*
X109281787Y-49724626D02*
G01*
X109281831Y-49905113D01*
X109281917Y-50073247D01*
X109282044Y-50229085D01*
X109282212Y-50372686D01*
X109282423Y-50504108D01*
X109282674Y-50623408D01*
X109282968Y-50730644D01*
X109283304Y-50825874D01*
X109283681Y-50909155D01*
X109284101Y-50980547D01*
X109284563Y-51040105D01*
X109285068Y-51087889D01*
X109285615Y-51123956D01*
X109286204Y-51148364D01*
X109286836Y-51161171D01*
X109286945Y-51162175D01*
X109300562Y-51221381D01*
X109325130Y-51274305D01*
X109360317Y-51320489D01*
X109405788Y-51359477D01*
X109449916Y-51385461D01*
X109499207Y-51409825D01*
X110248841Y-51413000D01*
X110346409Y-51413376D01*
X110441119Y-51413668D01*
X110532117Y-51413879D01*
X110618551Y-51414008D01*
X110699566Y-51414057D01*
X110774309Y-51414028D01*
X110841926Y-51413920D01*
X110901564Y-51413736D01*
X110952369Y-51413476D01*
X110993488Y-51413142D01*
X111024067Y-51412734D01*
X111043252Y-51412254D01*
X111048511Y-51411970D01*
X111104521Y-51401118D01*
X111156693Y-51379071D01*
X111203505Y-51347122D01*
X111243434Y-51306564D01*
X111274958Y-51258690D01*
X111296556Y-51204791D01*
X111297805Y-51200275D01*
X111302829Y-51178387D01*
X111305917Y-51158963D01*
X111306374Y-51152208D01*
X111306450Y-51135891D01*
X110568262Y-51135075D01*
X110454360Y-51134934D01*
X110352457Y-51134771D01*
X110261853Y-51134575D01*
X110181849Y-51134338D01*
X110111744Y-51134048D01*
X110050838Y-51133697D01*
X109998430Y-51133274D01*
X109953820Y-51132770D01*
X109916309Y-51132175D01*
X109885195Y-51131478D01*
X109859778Y-51130672D01*
X109839358Y-51129744D01*
X109823236Y-51128687D01*
X109810710Y-51127489D01*
X109801081Y-51126141D01*
X109793647Y-51124634D01*
X109791975Y-51124211D01*
X109732055Y-51103234D01*
X109681330Y-51074182D01*
X109639620Y-51036781D01*
X109606744Y-50990754D01*
X109582522Y-50935829D01*
X109566773Y-50871728D01*
X109559317Y-50798179D01*
X109558624Y-50768475D01*
X109562304Y-50689169D01*
X109574235Y-50619383D01*
X109594597Y-50558833D01*
X109623569Y-50507234D01*
X109661331Y-50464301D01*
X109708063Y-50429749D01*
X109763944Y-50403293D01*
X109795437Y-50392993D01*
X109813027Y-50389242D01*
X109837826Y-50386162D01*
X109871140Y-50383662D01*
X109914277Y-50381646D01*
X109968543Y-50380022D01*
X109980887Y-50379735D01*
X110131700Y-50376370D01*
X110131700Y-50554693D01*
X109990412Y-50556855D01*
X109939600Y-50557815D01*
X109899618Y-50559252D01*
X109868599Y-50561614D01*
X109844673Y-50565347D01*
X109825972Y-50570896D01*
X109810627Y-50578709D01*
X109796769Y-50589231D01*
X109782529Y-50602909D01*
X109778012Y-50607581D01*
X109756784Y-50633948D01*
X109742344Y-50662925D01*
X109733797Y-50697332D01*
X109730248Y-50739988D01*
X109730022Y-50758715D01*
X109733367Y-50814260D01*
X109743488Y-50859527D01*
X109760968Y-50895326D01*
X109786387Y-50922464D01*
X109820326Y-50941750D01*
X109863366Y-50953993D01*
X109871350Y-50955386D01*
X109888460Y-50957175D01*
X109914673Y-50958696D01*
X109947959Y-50959938D01*
X109986288Y-50960891D01*
X110027630Y-50961543D01*
X110069957Y-50961884D01*
X110111237Y-50961904D01*
X110149442Y-50961590D01*
X110182542Y-50960934D01*
X110208508Y-50959923D01*
X110225309Y-50958547D01*
X110230647Y-50957290D01*
X110234622Y-50950272D01*
X110242232Y-50932952D01*
X110252815Y-50906978D01*
X110265714Y-50874001D01*
X110280269Y-50835671D01*
X110293409Y-50800225D01*
X110320213Y-50727912D01*
X110343663Y-50666532D01*
X110364315Y-50614933D01*
X110382724Y-50571965D01*
X110399446Y-50536477D01*
X110415035Y-50507317D01*
X110430047Y-50483335D01*
X110445038Y-50463380D01*
X110460562Y-50446300D01*
X110467281Y-50439795D01*
X110498495Y-50413970D01*
X110531505Y-50394408D01*
X110571164Y-50378366D01*
X110582550Y-50374627D01*
X110593997Y-50371520D01*
X110607784Y-50368964D01*
X110625346Y-50366881D01*
X110648124Y-50365188D01*
X110677553Y-50363806D01*
X110715074Y-50362652D01*
X110762122Y-50361647D01*
X110820138Y-50360709D01*
X110833544Y-50360518D01*
X110902177Y-50359728D01*
X110959604Y-50359529D01*
X111007309Y-50360025D01*
X111046776Y-50361321D01*
X111079489Y-50363520D01*
X111106932Y-50366727D01*
X111130590Y-50371047D01*
X111151947Y-50376583D01*
X111172487Y-50383440D01*
X111175477Y-50384546D01*
X111214526Y-50404976D01*
X111250851Y-50434781D01*
X111280676Y-50470682D01*
X111287701Y-50481995D01*
X111306330Y-50514475D01*
X111306390Y-50316037D01*
X111306450Y-50117600D01*
X110558737Y-50117489D01*
X110442145Y-50117469D01*
X110337540Y-50117428D01*
X110244209Y-50117341D01*
X110161439Y-50117182D01*
X110088518Y-50116927D01*
X110024731Y-50116549D01*
X109969367Y-50116024D01*
X109921712Y-50115326D01*
X109881053Y-50114431D01*
X109846677Y-50113311D01*
X109817872Y-50111944D01*
X109793924Y-50110302D01*
X109774120Y-50108361D01*
X109757748Y-50106096D01*
X109744094Y-50103480D01*
X109732446Y-50100490D01*
X109722090Y-50097099D01*
X109712313Y-50093282D01*
X109702403Y-50089014D01*
X109697683Y-50086928D01*
X109654459Y-50061228D01*
X109618912Y-50026598D01*
X109591257Y-49984388D01*
X109571711Y-49935946D01*
X109560491Y-49882621D01*
X109557814Y-49825762D01*
X109563895Y-49766719D01*
X109578952Y-49706839D01*
X109603201Y-49647472D01*
X109621684Y-49613604D01*
X109638865Y-49586561D01*
X109658850Y-49557319D01*
X109672483Y-49538644D01*
X109686010Y-49520179D01*
X109695801Y-49505497D01*
X109699869Y-49497594D01*
X109699888Y-49497369D01*
X109694945Y-49491340D01*
X109682239Y-49481411D01*
X109670687Y-49473683D01*
X109631999Y-49441958D01*
X109600860Y-49401338D01*
X109577715Y-49353456D01*
X109563009Y-49299943D01*
X109557187Y-49242434D01*
X109560695Y-49182561D01*
X109573979Y-49121956D01*
X109574377Y-49120650D01*
X109586370Y-49086303D01*
X109601555Y-49052231D01*
X109621165Y-49016242D01*
X109646433Y-48976144D01*
X109678594Y-48929746D01*
X109693173Y-48909606D01*
X109698790Y-48899502D01*
X109694835Y-48893151D01*
X109689998Y-48890214D01*
X109673142Y-48878088D01*
X109652043Y-48859165D01*
X109630033Y-48836840D01*
X109610445Y-48814509D01*
X109596614Y-48795567D01*
X109595883Y-48794345D01*
X109573903Y-48744533D01*
X109561536Y-48686616D01*
X109558603Y-48635033D01*
X109562339Y-48579143D01*
X109573785Y-48525024D01*
X109593709Y-48470600D01*
X109622882Y-48413796D01*
X109662069Y-48352535D01*
X109664440Y-48349125D01*
X109699885Y-48298325D01*
X109679255Y-48282656D01*
X109632434Y-48239834D01*
X109596379Y-48191127D01*
X109571512Y-48137548D01*
X109558258Y-48080109D01*
X109557038Y-48019821D01*
X109559753Y-47996796D01*
X109567551Y-47955352D01*
X109577959Y-47918467D01*
X109592331Y-47883028D01*
X109612021Y-47845921D01*
X109638384Y-47804031D01*
X109652894Y-47782632D01*
X109693215Y-47724139D01*
X109582425Y-47720475D01*
X109582425Y-47542675D01*
X110444437Y-47541064D01*
X111306450Y-47539454D01*
X111306020Y-47299764D01*
X111305806Y-47235157D01*
X111305403Y-47182541D01*
X111304788Y-47141206D01*
X111303938Y-47110445D01*
X111302830Y-47089548D01*
X111301441Y-47077808D01*
X111299746Y-47074515D01*
X111298719Y-47075950D01*
X111283631Y-47109345D01*
X111270349Y-47134565D01*
X111256518Y-47155433D01*
X111239780Y-47175772D01*
X111231770Y-47184586D01*
X111197785Y-47216046D01*
X111159437Y-47240155D01*
X111150450Y-47244633D01*
X111122051Y-47257346D01*
X111094672Y-47267190D01*
X111066086Y-47274509D01*
X111034069Y-47279644D01*
X110996394Y-47282938D01*
X110950837Y-47284733D01*
X110895172Y-47285372D01*
X110885529Y-47285389D01*
X110753533Y-47285500D01*
X110757806Y-47201362D01*
X110759434Y-47170242D01*
X110760889Y-47144160D01*
X110762032Y-47125489D01*
X110762723Y-47116596D01*
X110762802Y-47116184D01*
X110769059Y-47115663D01*
X110786096Y-47114813D01*
X110811998Y-47113716D01*
X110844852Y-47112450D01*
X110882744Y-47111097D01*
X110890525Y-47110831D01*
X110934194Y-47109267D01*
X110967352Y-47107754D01*
X110992182Y-47106003D01*
X111010868Y-47103723D01*
X111025595Y-47100624D01*
X111038545Y-47096416D01*
X111051904Y-47090809D01*
X111056314Y-47088813D01*
X111087453Y-47071027D01*
X111111301Y-47048620D01*
X111128551Y-47020067D01*
X111139901Y-46983843D01*
X111146045Y-46938424D01*
X111147700Y-46888481D01*
X111145636Y-46835141D01*
X111138947Y-46792196D01*
X111126885Y-46757949D01*
X111108702Y-46730702D01*
X111083652Y-46708757D01*
X111063168Y-46696444D01*
X111030225Y-46679075D01*
X110771462Y-46677219D01*
X110512700Y-46675364D01*
X110512700Y-47285500D01*
X110187262Y-47285389D01*
X110108617Y-47285317D01*
X110041499Y-47285091D01*
X109984736Y-47284614D01*
X109937156Y-47283788D01*
X109897585Y-47282514D01*
X109864852Y-47280695D01*
X109837783Y-47278232D01*
X109815206Y-47275028D01*
X109795950Y-47270984D01*
X109778840Y-47266002D01*
X109762705Y-47259984D01*
X109746372Y-47252832D01*
X109735180Y-47247569D01*
X109683635Y-47216197D01*
X109640484Y-47175324D01*
X109605795Y-47125041D01*
X109579637Y-47065436D01*
X109568814Y-47028325D01*
X109562608Y-46992512D01*
X109558848Y-46948006D01*
X109557492Y-46898569D01*
X109558499Y-46847961D01*
X109561827Y-46799944D01*
X109567436Y-46758279D01*
X109572008Y-46737406D01*
X109593589Y-46675150D01*
X109622677Y-46622900D01*
X109659983Y-46579938D01*
X109706219Y-46545549D01*
X109762095Y-46519016D01*
X109801500Y-46506306D01*
X109809103Y-46504390D01*
X109817694Y-46502700D01*
X109828074Y-46501224D01*
X109841048Y-46499945D01*
X109857417Y-46498851D01*
X109877984Y-46497928D01*
X109903551Y-46497160D01*
X109934923Y-46496533D01*
X109972901Y-46496035D01*
X110018287Y-46495650D01*
X110071886Y-46495364D01*
X110134499Y-46495163D01*
X110206929Y-46495033D01*
X110289979Y-46494959D01*
X110384451Y-46494928D01*
X110446025Y-46494925D01*
X111049275Y-46494925D01*
X111101074Y-46512477D01*
X111154721Y-46535301D01*
X111201904Y-46564663D01*
X111241048Y-46599194D01*
X111270573Y-46637520D01*
X111287886Y-46674954D01*
X111294118Y-46691646D01*
X111299982Y-46703042D01*
X111300867Y-46704157D01*
X111302107Y-46699377D01*
X111303235Y-46682951D01*
X111304228Y-46655934D01*
X111305065Y-46619380D01*
X111305724Y-46574343D01*
X111306183Y-46521877D01*
X111306420Y-46463037D01*
X111306450Y-46432695D01*
X111306450Y-46155200D01*
X109744350Y-46155200D01*
X109744350Y-46352050D01*
X109579250Y-46352050D01*
X109579250Y-46154965D01*
X109431612Y-46156670D01*
X109283975Y-46158375D01*
X109282180Y-48634875D01*
X109282020Y-48877993D01*
X109281900Y-49108470D01*
X109281821Y-49326363D01*
X109281784Y-49531729D01*
X109281787Y-49724626D01*
G37*
X109281787Y-49724626D02*
X109281831Y-49905113D01*
X109281917Y-50073247D01*
X109282044Y-50229085D01*
X109282212Y-50372686D01*
X109282423Y-50504108D01*
X109282674Y-50623408D01*
X109282968Y-50730644D01*
X109283304Y-50825874D01*
X109283681Y-50909155D01*
X109284101Y-50980547D01*
X109284563Y-51040105D01*
X109285068Y-51087889D01*
X109285615Y-51123956D01*
X109286204Y-51148364D01*
X109286836Y-51161171D01*
X109286945Y-51162175D01*
X109300562Y-51221381D01*
X109325130Y-51274305D01*
X109360317Y-51320489D01*
X109405788Y-51359477D01*
X109449916Y-51385461D01*
X109499207Y-51409825D01*
X110248841Y-51413000D01*
X110346409Y-51413376D01*
X110441119Y-51413668D01*
X110532117Y-51413879D01*
X110618551Y-51414008D01*
X110699566Y-51414057D01*
X110774309Y-51414028D01*
X110841926Y-51413920D01*
X110901564Y-51413736D01*
X110952369Y-51413476D01*
X110993488Y-51413142D01*
X111024067Y-51412734D01*
X111043252Y-51412254D01*
X111048511Y-51411970D01*
X111104521Y-51401118D01*
X111156693Y-51379071D01*
X111203505Y-51347122D01*
X111243434Y-51306564D01*
X111274958Y-51258690D01*
X111296556Y-51204791D01*
X111297805Y-51200275D01*
X111302829Y-51178387D01*
X111305917Y-51158963D01*
X111306374Y-51152208D01*
X111306450Y-51135891D01*
X110568262Y-51135075D01*
X110454360Y-51134934D01*
X110352457Y-51134771D01*
X110261853Y-51134575D01*
X110181849Y-51134338D01*
X110111744Y-51134048D01*
X110050838Y-51133697D01*
X109998430Y-51133274D01*
X109953820Y-51132770D01*
X109916309Y-51132175D01*
X109885195Y-51131478D01*
X109859778Y-51130672D01*
X109839358Y-51129744D01*
X109823236Y-51128687D01*
X109810710Y-51127489D01*
X109801081Y-51126141D01*
X109793647Y-51124634D01*
X109791975Y-51124211D01*
X109732055Y-51103234D01*
X109681330Y-51074182D01*
X109639620Y-51036781D01*
X109606744Y-50990754D01*
X109582522Y-50935829D01*
X109566773Y-50871728D01*
X109559317Y-50798179D01*
X109558624Y-50768475D01*
X109562304Y-50689169D01*
X109574235Y-50619383D01*
X109594597Y-50558833D01*
X109623569Y-50507234D01*
X109661331Y-50464301D01*
X109708063Y-50429749D01*
X109763944Y-50403293D01*
X109795437Y-50392993D01*
X109813027Y-50389242D01*
X109837826Y-50386162D01*
X109871140Y-50383662D01*
X109914277Y-50381646D01*
X109968543Y-50380022D01*
X109980887Y-50379735D01*
X110131700Y-50376370D01*
X110131700Y-50554693D01*
X109990412Y-50556855D01*
X109939600Y-50557815D01*
X109899618Y-50559252D01*
X109868599Y-50561614D01*
X109844673Y-50565347D01*
X109825972Y-50570896D01*
X109810627Y-50578709D01*
X109796769Y-50589231D01*
X109782529Y-50602909D01*
X109778012Y-50607581D01*
X109756784Y-50633948D01*
X109742344Y-50662925D01*
X109733797Y-50697332D01*
X109730248Y-50739988D01*
X109730022Y-50758715D01*
X109733367Y-50814260D01*
X109743488Y-50859527D01*
X109760968Y-50895326D01*
X109786387Y-50922464D01*
X109820326Y-50941750D01*
X109863366Y-50953993D01*
X109871350Y-50955386D01*
X109888460Y-50957175D01*
X109914673Y-50958696D01*
X109947959Y-50959938D01*
X109986288Y-50960891D01*
X110027630Y-50961543D01*
X110069957Y-50961884D01*
X110111237Y-50961904D01*
X110149442Y-50961590D01*
X110182542Y-50960934D01*
X110208508Y-50959923D01*
X110225309Y-50958547D01*
X110230647Y-50957290D01*
X110234622Y-50950272D01*
X110242232Y-50932952D01*
X110252815Y-50906978D01*
X110265714Y-50874001D01*
X110280269Y-50835671D01*
X110293409Y-50800225D01*
X110320213Y-50727912D01*
X110343663Y-50666532D01*
X110364315Y-50614933D01*
X110382724Y-50571965D01*
X110399446Y-50536477D01*
X110415035Y-50507317D01*
X110430047Y-50483335D01*
X110445038Y-50463380D01*
X110460562Y-50446300D01*
X110467281Y-50439795D01*
X110498495Y-50413970D01*
X110531505Y-50394408D01*
X110571164Y-50378366D01*
X110582550Y-50374627D01*
X110593997Y-50371520D01*
X110607784Y-50368964D01*
X110625346Y-50366881D01*
X110648124Y-50365188D01*
X110677553Y-50363806D01*
X110715074Y-50362652D01*
X110762122Y-50361647D01*
X110820138Y-50360709D01*
X110833544Y-50360518D01*
X110902177Y-50359728D01*
X110959604Y-50359529D01*
X111007309Y-50360025D01*
X111046776Y-50361321D01*
X111079489Y-50363520D01*
X111106932Y-50366727D01*
X111130590Y-50371047D01*
X111151947Y-50376583D01*
X111172487Y-50383440D01*
X111175477Y-50384546D01*
X111214526Y-50404976D01*
X111250851Y-50434781D01*
X111280676Y-50470682D01*
X111287701Y-50481995D01*
X111306330Y-50514475D01*
X111306390Y-50316037D01*
X111306450Y-50117600D01*
X110558737Y-50117489D01*
X110442145Y-50117469D01*
X110337540Y-50117428D01*
X110244209Y-50117341D01*
X110161439Y-50117182D01*
X110088518Y-50116927D01*
X110024731Y-50116549D01*
X109969367Y-50116024D01*
X109921712Y-50115326D01*
X109881053Y-50114431D01*
X109846677Y-50113311D01*
X109817872Y-50111944D01*
X109793924Y-50110302D01*
X109774120Y-50108361D01*
X109757748Y-50106096D01*
X109744094Y-50103480D01*
X109732446Y-50100490D01*
X109722090Y-50097099D01*
X109712313Y-50093282D01*
X109702403Y-50089014D01*
X109697683Y-50086928D01*
X109654459Y-50061228D01*
X109618912Y-50026598D01*
X109591257Y-49984388D01*
X109571711Y-49935946D01*
X109560491Y-49882621D01*
X109557814Y-49825762D01*
X109563895Y-49766719D01*
X109578952Y-49706839D01*
X109603201Y-49647472D01*
X109621684Y-49613604D01*
X109638865Y-49586561D01*
X109658850Y-49557319D01*
X109672483Y-49538644D01*
X109686010Y-49520179D01*
X109695801Y-49505497D01*
X109699869Y-49497594D01*
X109699888Y-49497369D01*
X109694945Y-49491340D01*
X109682239Y-49481411D01*
X109670687Y-49473683D01*
X109631999Y-49441958D01*
X109600860Y-49401338D01*
X109577715Y-49353456D01*
X109563009Y-49299943D01*
X109557187Y-49242434D01*
X109560695Y-49182561D01*
X109573979Y-49121956D01*
X109574377Y-49120650D01*
X109586370Y-49086303D01*
X109601555Y-49052231D01*
X109621165Y-49016242D01*
X109646433Y-48976144D01*
X109678594Y-48929746D01*
X109693173Y-48909606D01*
X109698790Y-48899502D01*
X109694835Y-48893151D01*
X109689998Y-48890214D01*
X109673142Y-48878088D01*
X109652043Y-48859165D01*
X109630033Y-48836840D01*
X109610445Y-48814509D01*
X109596614Y-48795567D01*
X109595883Y-48794345D01*
X109573903Y-48744533D01*
X109561536Y-48686616D01*
X109558603Y-48635033D01*
X109562339Y-48579143D01*
X109573785Y-48525024D01*
X109593709Y-48470600D01*
X109622882Y-48413796D01*
X109662069Y-48352535D01*
X109664440Y-48349125D01*
X109699885Y-48298325D01*
X109679255Y-48282656D01*
X109632434Y-48239834D01*
X109596379Y-48191127D01*
X109571512Y-48137548D01*
X109558258Y-48080109D01*
X109557038Y-48019821D01*
X109559753Y-47996796D01*
X109567551Y-47955352D01*
X109577959Y-47918467D01*
X109592331Y-47883028D01*
X109612021Y-47845921D01*
X109638384Y-47804031D01*
X109652894Y-47782632D01*
X109693215Y-47724139D01*
X109582425Y-47720475D01*
X109582425Y-47542675D01*
X110444437Y-47541064D01*
X111306450Y-47539454D01*
X111306020Y-47299764D01*
X111305806Y-47235157D01*
X111305403Y-47182541D01*
X111304788Y-47141206D01*
X111303938Y-47110445D01*
X111302830Y-47089548D01*
X111301441Y-47077808D01*
X111299746Y-47074515D01*
X111298719Y-47075950D01*
X111283631Y-47109345D01*
X111270349Y-47134565D01*
X111256518Y-47155433D01*
X111239780Y-47175772D01*
X111231770Y-47184586D01*
X111197785Y-47216046D01*
X111159437Y-47240155D01*
X111150450Y-47244633D01*
X111122051Y-47257346D01*
X111094672Y-47267190D01*
X111066086Y-47274509D01*
X111034069Y-47279644D01*
X110996394Y-47282938D01*
X110950837Y-47284733D01*
X110895172Y-47285372D01*
X110885529Y-47285389D01*
X110753533Y-47285500D01*
X110757806Y-47201362D01*
X110759434Y-47170242D01*
X110760889Y-47144160D01*
X110762032Y-47125489D01*
X110762723Y-47116596D01*
X110762802Y-47116184D01*
X110769059Y-47115663D01*
X110786096Y-47114813D01*
X110811998Y-47113716D01*
X110844852Y-47112450D01*
X110882744Y-47111097D01*
X110890525Y-47110831D01*
X110934194Y-47109267D01*
X110967352Y-47107754D01*
X110992182Y-47106003D01*
X111010868Y-47103723D01*
X111025595Y-47100624D01*
X111038545Y-47096416D01*
X111051904Y-47090809D01*
X111056314Y-47088813D01*
X111087453Y-47071027D01*
X111111301Y-47048620D01*
X111128551Y-47020067D01*
X111139901Y-46983843D01*
X111146045Y-46938424D01*
X111147700Y-46888481D01*
X111145636Y-46835141D01*
X111138947Y-46792196D01*
X111126885Y-46757949D01*
X111108702Y-46730702D01*
X111083652Y-46708757D01*
X111063168Y-46696444D01*
X111030225Y-46679075D01*
X110771462Y-46677219D01*
X110512700Y-46675364D01*
X110512700Y-47285500D01*
X110187262Y-47285389D01*
X110108617Y-47285317D01*
X110041499Y-47285091D01*
X109984736Y-47284614D01*
X109937156Y-47283788D01*
X109897585Y-47282514D01*
X109864852Y-47280695D01*
X109837783Y-47278232D01*
X109815206Y-47275028D01*
X109795950Y-47270984D01*
X109778840Y-47266002D01*
X109762705Y-47259984D01*
X109746372Y-47252832D01*
X109735180Y-47247569D01*
X109683635Y-47216197D01*
X109640484Y-47175324D01*
X109605795Y-47125041D01*
X109579637Y-47065436D01*
X109568814Y-47028325D01*
X109562608Y-46992512D01*
X109558848Y-46948006D01*
X109557492Y-46898569D01*
X109558499Y-46847961D01*
X109561827Y-46799944D01*
X109567436Y-46758279D01*
X109572008Y-46737406D01*
X109593589Y-46675150D01*
X109622677Y-46622900D01*
X109659983Y-46579938D01*
X109706219Y-46545549D01*
X109762095Y-46519016D01*
X109801500Y-46506306D01*
X109809103Y-46504390D01*
X109817694Y-46502700D01*
X109828074Y-46501224D01*
X109841048Y-46499945D01*
X109857417Y-46498851D01*
X109877984Y-46497928D01*
X109903551Y-46497160D01*
X109934923Y-46496533D01*
X109972901Y-46496035D01*
X110018287Y-46495650D01*
X110071886Y-46495364D01*
X110134499Y-46495163D01*
X110206929Y-46495033D01*
X110289979Y-46494959D01*
X110384451Y-46494928D01*
X110446025Y-46494925D01*
X111049275Y-46494925D01*
X111101074Y-46512477D01*
X111154721Y-46535301D01*
X111201904Y-46564663D01*
X111241048Y-46599194D01*
X111270573Y-46637520D01*
X111287886Y-46674954D01*
X111294118Y-46691646D01*
X111299982Y-46703042D01*
X111300867Y-46704157D01*
X111302107Y-46699377D01*
X111303235Y-46682951D01*
X111304228Y-46655934D01*
X111305065Y-46619380D01*
X111305724Y-46574343D01*
X111306183Y-46521877D01*
X111306420Y-46463037D01*
X111306450Y-46432695D01*
X111306450Y-46155200D01*
X109744350Y-46155200D01*
X109744350Y-46352050D01*
X109579250Y-46352050D01*
X109579250Y-46154965D01*
X109431612Y-46156670D01*
X109283975Y-46158375D01*
X109282180Y-48634875D01*
X109282020Y-48877993D01*
X109281900Y-49108470D01*
X109281821Y-49326363D01*
X109281784Y-49531729D01*
X109281787Y-49724626D01*
G36*
X109734275Y-48030819D02*
G01*
X109745958Y-48067013D01*
X109766340Y-48096059D01*
X109787758Y-48114132D01*
X109815291Y-48133225D01*
X110560870Y-48134889D01*
X111306450Y-48136554D01*
X111306450Y-47723650D01*
X109833611Y-47723650D01*
X109795111Y-47788737D01*
X109767974Y-47838034D01*
X109748942Y-47881334D01*
X109737062Y-47921545D01*
X109731383Y-47961575D01*
X109730555Y-47985832D01*
X109734275Y-48030819D01*
G37*
X109734275Y-48030819D02*
X109745958Y-48067013D01*
X109766340Y-48096059D01*
X109787758Y-48114132D01*
X109815291Y-48133225D01*
X110560870Y-48134889D01*
X111306450Y-48136554D01*
X111306450Y-47723650D01*
X109833611Y-47723650D01*
X109795111Y-47788737D01*
X109767974Y-47838034D01*
X109748942Y-47881334D01*
X109737062Y-47921545D01*
X109731383Y-47961575D01*
X109730555Y-47985832D01*
X109734275Y-48030819D01*
G36*
X109734294Y-48628498D02*
G01*
X109747395Y-48666972D01*
X109769508Y-48696798D01*
X109800863Y-48718345D01*
X109819910Y-48726073D01*
X109827554Y-48727281D01*
X109843168Y-48728366D01*
X109867169Y-48729331D01*
X109899973Y-48730181D01*
X109941996Y-48730919D01*
X109993656Y-48731549D01*
X110055370Y-48732076D01*
X110127553Y-48732503D01*
X110210622Y-48732834D01*
X110304994Y-48733074D01*
X110411086Y-48733226D01*
X110529314Y-48733295D01*
X110573972Y-48733300D01*
X111306450Y-48733300D01*
X111306450Y-48320550D01*
X110586518Y-48320550D01*
X110491614Y-48320582D01*
X110400043Y-48320677D01*
X110312632Y-48320829D01*
X110230206Y-48321035D01*
X110153593Y-48321291D01*
X110083618Y-48321593D01*
X110021108Y-48321935D01*
X109966889Y-48322315D01*
X109921788Y-48322727D01*
X109886630Y-48323168D01*
X109862241Y-48323634D01*
X109849449Y-48324120D01*
X109847899Y-48324287D01*
X109834816Y-48329863D01*
X109821222Y-48342583D01*
X109804892Y-48364578D01*
X109803170Y-48367150D01*
X109770829Y-48420950D01*
X109748493Y-48471021D01*
X109735230Y-48520084D01*
X109730108Y-48570865D01*
X109729978Y-48581007D01*
X109734294Y-48628498D01*
G37*
X109734294Y-48628498D02*
X109747395Y-48666972D01*
X109769508Y-48696798D01*
X109800863Y-48718345D01*
X109819910Y-48726073D01*
X109827554Y-48727281D01*
X109843168Y-48728366D01*
X109867169Y-48729331D01*
X109899973Y-48730181D01*
X109941996Y-48730919D01*
X109993656Y-48731549D01*
X110055370Y-48732076D01*
X110127553Y-48732503D01*
X110210622Y-48732834D01*
X110304994Y-48733074D01*
X110411086Y-48733226D01*
X110529314Y-48733295D01*
X110573972Y-48733300D01*
X111306450Y-48733300D01*
X111306450Y-48320550D01*
X110586518Y-48320550D01*
X110491614Y-48320582D01*
X110400043Y-48320677D01*
X110312632Y-48320829D01*
X110230206Y-48321035D01*
X110153593Y-48321291D01*
X110083618Y-48321593D01*
X110021108Y-48321935D01*
X109966889Y-48322315D01*
X109921788Y-48322727D01*
X109886630Y-48323168D01*
X109862241Y-48323634D01*
X109849449Y-48324120D01*
X109847899Y-48324287D01*
X109834816Y-48329863D01*
X109821222Y-48342583D01*
X109804892Y-48364578D01*
X109803170Y-48367150D01*
X109770829Y-48420950D01*
X109748493Y-48471021D01*
X109735230Y-48520084D01*
X109730108Y-48570865D01*
X109729978Y-48581007D01*
X109734294Y-48628498D01*
G36*
X109733169Y-49225847D02*
G01*
X109745636Y-49264063D01*
X109766348Y-49294486D01*
X109777157Y-49304346D01*
X109783298Y-49309161D01*
X109789305Y-49313471D01*
X109795880Y-49317303D01*
X109803727Y-49320686D01*
X109813547Y-49323647D01*
X109826043Y-49326215D01*
X109841917Y-49328417D01*
X109861872Y-49330282D01*
X109886609Y-49331838D01*
X109916832Y-49333113D01*
X109953242Y-49334134D01*
X109996543Y-49334930D01*
X110047436Y-49335528D01*
X110106624Y-49335958D01*
X110174809Y-49336246D01*
X110252693Y-49336422D01*
X110340980Y-49336512D01*
X110440370Y-49336545D01*
X110551568Y-49336550D01*
X111306450Y-49336550D01*
X111306450Y-48917192D01*
X110570122Y-48918908D01*
X110457903Y-48919173D01*
X110357695Y-48919424D01*
X110268806Y-48919675D01*
X110190547Y-48919939D01*
X110122227Y-48920229D01*
X110063157Y-48920559D01*
X110012647Y-48920942D01*
X109970005Y-48921391D01*
X109934543Y-48921920D01*
X109905570Y-48922541D01*
X109882396Y-48923269D01*
X109864331Y-48924117D01*
X109850685Y-48925098D01*
X109840767Y-48926225D01*
X109833888Y-48927512D01*
X109829357Y-48928971D01*
X109826485Y-48930617D01*
X109824581Y-48932463D01*
X109823886Y-48933325D01*
X109802423Y-48964736D01*
X109780574Y-49003322D01*
X109761040Y-49043935D01*
X109747215Y-49079333D01*
X109733760Y-49131993D01*
X109729144Y-49181327D01*
X109733169Y-49225847D01*
G37*
X109733169Y-49225847D02*
X109745636Y-49264063D01*
X109766348Y-49294486D01*
X109777157Y-49304346D01*
X109783298Y-49309161D01*
X109789305Y-49313471D01*
X109795880Y-49317303D01*
X109803727Y-49320686D01*
X109813547Y-49323647D01*
X109826043Y-49326215D01*
X109841917Y-49328417D01*
X109861872Y-49330282D01*
X109886609Y-49331838D01*
X109916832Y-49333113D01*
X109953242Y-49334134D01*
X109996543Y-49334930D01*
X110047436Y-49335528D01*
X110106624Y-49335958D01*
X110174809Y-49336246D01*
X110252693Y-49336422D01*
X110340980Y-49336512D01*
X110440370Y-49336545D01*
X110551568Y-49336550D01*
X111306450Y-49336550D01*
X111306450Y-48917192D01*
X110570122Y-48918908D01*
X110457903Y-48919173D01*
X110357695Y-48919424D01*
X110268806Y-48919675D01*
X110190547Y-48919939D01*
X110122227Y-48920229D01*
X110063157Y-48920559D01*
X110012647Y-48920942D01*
X109970005Y-48921391D01*
X109934543Y-48921920D01*
X109905570Y-48922541D01*
X109882396Y-48923269D01*
X109864331Y-48924117D01*
X109850685Y-48925098D01*
X109840767Y-48926225D01*
X109833888Y-48927512D01*
X109829357Y-48928971D01*
X109826485Y-48930617D01*
X109824581Y-48932463D01*
X109823886Y-48933325D01*
X109802423Y-48964736D01*
X109780574Y-49003322D01*
X109761040Y-49043935D01*
X109747215Y-49079333D01*
X109733760Y-49131993D01*
X109729144Y-49181327D01*
X109733169Y-49225847D01*
G36*
X109732734Y-49819879D02*
G01*
X109741119Y-49854422D01*
X109756624Y-49881658D01*
X109780215Y-49903729D01*
X109791474Y-49911191D01*
X109822724Y-49930275D01*
X111306450Y-49933655D01*
X111306450Y-49514350D01*
X109839679Y-49514350D01*
X109820067Y-49541337D01*
X109780992Y-49601503D01*
X109753417Y-49659101D01*
X109736790Y-49715574D01*
X109730560Y-49772365D01*
X109730504Y-49775887D01*
X109732734Y-49819879D01*
G37*
X109732734Y-49819879D02*
X109741119Y-49854422D01*
X109756624Y-49881658D01*
X109780215Y-49903729D01*
X109791474Y-49911191D01*
X109822724Y-49930275D01*
X111306450Y-49933655D01*
X111306450Y-49514350D01*
X109839679Y-49514350D01*
X109820067Y-49541337D01*
X109780992Y-49601503D01*
X109753417Y-49659101D01*
X109736790Y-49715574D01*
X109730560Y-49772365D01*
X109730504Y-49775887D01*
X109732734Y-49819879D01*
G36*
X111232042Y-50958160D02*
G01*
X111256122Y-50960360D01*
X111277779Y-50961809D01*
X111288331Y-50962150D01*
X111306450Y-50962150D01*
X111306221Y-50865312D01*
X111305993Y-50768475D01*
X111284918Y-50812925D01*
X111270802Y-50839670D01*
X111252335Y-50870601D01*
X111233016Y-50899918D01*
X111228857Y-50905772D01*
X111193872Y-50954170D01*
X111232042Y-50958160D01*
G37*
X111232042Y-50958160D02*
X111256122Y-50960360D01*
X111277779Y-50961809D01*
X111288331Y-50962150D01*
X111306450Y-50962150D01*
X111306221Y-50865312D01*
X111305993Y-50768475D01*
X111284918Y-50812925D01*
X111270802Y-50839670D01*
X111252335Y-50870601D01*
X111233016Y-50899918D01*
X111228857Y-50905772D01*
X111193872Y-50954170D01*
X111232042Y-50958160D01*
G36*
X109445678Y-53425950D02*
G01*
X109447376Y-53268787D01*
X109449075Y-53111625D01*
X110377762Y-53113942D01*
X111306450Y-53116260D01*
X111306450Y-52930730D01*
X110377762Y-52932277D01*
X109449075Y-52933825D01*
X109447376Y-52776662D01*
X109445678Y-52619500D01*
X109289216Y-52619500D01*
X109285016Y-52881437D01*
X109284056Y-52945043D01*
X109283173Y-53010758D01*
X109282392Y-53076115D01*
X109281739Y-53138645D01*
X109281241Y-53195884D01*
X109280921Y-53245362D01*
X109280808Y-53284613D01*
X109280808Y-53284662D01*
X109280800Y-53425950D01*
X109445678Y-53425950D01*
G37*
X109445678Y-53425950D02*
X109447376Y-53268787D01*
X109449075Y-53111625D01*
X110377762Y-53113942D01*
X111306450Y-53116260D01*
X111306450Y-52930730D01*
X110377762Y-52932277D01*
X109449075Y-52933825D01*
X109447376Y-52776662D01*
X109445678Y-52619500D01*
X109289216Y-52619500D01*
X109285016Y-52881437D01*
X109284056Y-52945043D01*
X109283173Y-53010758D01*
X109282392Y-53076115D01*
X109281739Y-53138645D01*
X109281241Y-53195884D01*
X109280921Y-53245362D01*
X109280808Y-53284613D01*
X109280808Y-53284662D01*
X109280800Y-53425950D01*
X109445678Y-53425950D01*
G36*
X110413895Y-50954361D02*
G01*
X110420945Y-50955244D01*
X110439471Y-50956072D01*
X110468247Y-50956827D01*
X110506050Y-50957492D01*
X110551655Y-50958051D01*
X110603837Y-50958485D01*
X110661371Y-50958777D01*
X110723034Y-50958911D01*
X110736169Y-50958917D01*
X111053946Y-50958975D01*
X111079382Y-50914525D01*
X111103252Y-50871205D01*
X111120659Y-50835116D01*
X111132606Y-50803213D01*
X111140100Y-50772456D01*
X111144144Y-50739801D01*
X111145451Y-50714500D01*
X111145656Y-50675288D01*
X111143610Y-50646066D01*
X111139673Y-50628775D01*
X111127670Y-50603130D01*
X111114811Y-50585414D01*
X111097396Y-50571178D01*
X111085670Y-50563886D01*
X111055625Y-50546225D01*
X110866366Y-50544287D01*
X110805027Y-50543814D01*
X110754859Y-50543913D01*
X110714339Y-50544791D01*
X110681943Y-50546654D01*
X110656148Y-50549709D01*
X110635429Y-50554161D01*
X110618264Y-50560217D01*
X110603129Y-50568084D01*
X110588500Y-50577968D01*
X110582112Y-50582792D01*
X110564495Y-50599532D01*
X110545733Y-50622190D01*
X110532478Y-50641744D01*
X110524089Y-50657853D01*
X110513049Y-50682104D01*
X110500080Y-50712591D01*
X110485904Y-50747410D01*
X110471244Y-50784658D01*
X110456822Y-50822430D01*
X110443360Y-50858823D01*
X110431581Y-50891931D01*
X110422206Y-50919851D01*
X110415958Y-50940679D01*
X110413559Y-50952510D01*
X110413895Y-50954361D01*
G37*
X110413895Y-50954361D02*
X110420945Y-50955244D01*
X110439471Y-50956072D01*
X110468247Y-50956827D01*
X110506050Y-50957492D01*
X110551655Y-50958051D01*
X110603837Y-50958485D01*
X110661371Y-50958777D01*
X110723034Y-50958911D01*
X110736169Y-50958917D01*
X111053946Y-50958975D01*
X111079382Y-50914525D01*
X111103252Y-50871205D01*
X111120659Y-50835116D01*
X111132606Y-50803213D01*
X111140100Y-50772456D01*
X111144144Y-50739801D01*
X111145451Y-50714500D01*
X111145656Y-50675288D01*
X111143610Y-50646066D01*
X111139673Y-50628775D01*
X111127670Y-50603130D01*
X111114811Y-50585414D01*
X111097396Y-50571178D01*
X111085670Y-50563886D01*
X111055625Y-50546225D01*
X110866366Y-50544287D01*
X110805027Y-50543814D01*
X110754859Y-50543913D01*
X110714339Y-50544791D01*
X110681943Y-50546654D01*
X110656148Y-50549709D01*
X110635429Y-50554161D01*
X110618264Y-50560217D01*
X110603129Y-50568084D01*
X110588500Y-50577968D01*
X110582112Y-50582792D01*
X110564495Y-50599532D01*
X110545733Y-50622190D01*
X110532478Y-50641744D01*
X110524089Y-50657853D01*
X110513049Y-50682104D01*
X110500080Y-50712591D01*
X110485904Y-50747410D01*
X110471244Y-50784658D01*
X110456822Y-50822430D01*
X110443360Y-50858823D01*
X110431581Y-50891931D01*
X110422206Y-50919851D01*
X110415958Y-50940679D01*
X110413559Y-50952510D01*
X110413895Y-50954361D01*
G36*
X109730173Y-46931809D02*
G01*
X109734872Y-46968442D01*
X109743666Y-46998049D01*
X109757290Y-47023330D01*
X109771366Y-47041354D01*
X109786037Y-47056935D01*
X109801019Y-47069873D01*
X109817613Y-47080412D01*
X109837124Y-47088794D01*
X109860852Y-47095263D01*
X109890100Y-47100061D01*
X109926170Y-47103433D01*
X109970365Y-47105620D01*
X110023987Y-47106866D01*
X110088337Y-47107414D01*
X110125723Y-47107503D01*
X110181890Y-47107454D01*
X110226646Y-47107137D01*
X110261280Y-47106498D01*
X110287080Y-47105480D01*
X110305333Y-47104027D01*
X110317329Y-47102083D01*
X110324354Y-47099593D01*
X110325558Y-47098825D01*
X110328899Y-47095751D01*
X110331594Y-47091041D01*
X110333735Y-47083357D01*
X110335412Y-47071364D01*
X110336716Y-47053726D01*
X110337737Y-47029105D01*
X110338566Y-46996166D01*
X110339295Y-46953573D01*
X110340014Y-46899988D01*
X110340225Y-46882925D01*
X110342756Y-46675900D01*
X110111237Y-46675900D01*
X110045554Y-46675986D01*
X109991220Y-46676338D01*
X109946884Y-46677094D01*
X109911197Y-46678392D01*
X109882808Y-46680371D01*
X109860367Y-46683169D01*
X109842523Y-46686926D01*
X109827926Y-46691778D01*
X109815225Y-46697865D01*
X109803072Y-46705326D01*
X109799273Y-46707891D01*
X109771133Y-46732401D01*
X109750638Y-46762856D01*
X109737193Y-46800757D01*
X109730203Y-46847604D01*
X109728832Y-46885450D01*
X109730173Y-46931809D01*
G37*
X109730173Y-46931809D02*
X109734872Y-46968442D01*
X109743666Y-46998049D01*
X109757290Y-47023330D01*
X109771366Y-47041354D01*
X109786037Y-47056935D01*
X109801019Y-47069873D01*
X109817613Y-47080412D01*
X109837124Y-47088794D01*
X109860852Y-47095263D01*
X109890100Y-47100061D01*
X109926170Y-47103433D01*
X109970365Y-47105620D01*
X110023987Y-47106866D01*
X110088337Y-47107414D01*
X110125723Y-47107503D01*
X110181890Y-47107454D01*
X110226646Y-47107137D01*
X110261280Y-47106498D01*
X110287080Y-47105480D01*
X110305333Y-47104027D01*
X110317329Y-47102083D01*
X110324354Y-47099593D01*
X110325558Y-47098825D01*
X110328899Y-47095751D01*
X110331594Y-47091041D01*
X110333735Y-47083357D01*
X110335412Y-47071364D01*
X110336716Y-47053726D01*
X110337737Y-47029105D01*
X110338566Y-46996166D01*
X110339295Y-46953573D01*
X110340014Y-46899988D01*
X110340225Y-46882925D01*
X110342756Y-46675900D01*
X110111237Y-46675900D01*
X110045554Y-46675986D01*
X109991220Y-46676338D01*
X109946884Y-46677094D01*
X109911197Y-46678392D01*
X109882808Y-46680371D01*
X109860367Y-46683169D01*
X109842523Y-46686926D01*
X109827926Y-46691778D01*
X109815225Y-46697865D01*
X109803072Y-46705326D01*
X109799273Y-46707891D01*
X109771133Y-46732401D01*
X109750638Y-46762856D01*
X109737193Y-46800757D01*
X109730203Y-46847604D01*
X109728832Y-46885450D01*
X109730173Y-46931809D01*
D12*
%TO.C,ALERT*%
X129700000Y-56900000D02*
G75*
G03*
X129700000Y-56900000I-700000J0D01*
G01*
%TO.C,GPIO*%
X125600000Y-54800000D02*
G75*
G03*
X125600000Y-54800000I-700000J0D01*
G01*
%TO.C,ATTACH*%
X121400000Y-53500000D02*
G75*
G03*
X121400000Y-53500000I-700000J0D01*
G01*
%TO.C,ALERT*%
D10*
X127980952Y-57033333D02*
X127600000Y-57033333D01*
X128057142Y-57261904D02*
X127790476Y-56461904D01*
X127523809Y-57261904D01*
X126876190Y-57261904D02*
X127257142Y-57261904D01*
X127257142Y-56461904D01*
X126609523Y-56842857D02*
X126342857Y-56842857D01*
X126228571Y-57261904D02*
X126609523Y-57261904D01*
X126609523Y-56461904D01*
X126228571Y-56461904D01*
X125428571Y-57261904D02*
X125695238Y-56880952D01*
X125885714Y-57261904D02*
X125885714Y-56461904D01*
X125580952Y-56461904D01*
X125504761Y-56500000D01*
X125466666Y-56538095D01*
X125428571Y-56614285D01*
X125428571Y-56728571D01*
X125466666Y-56804761D01*
X125504761Y-56842857D01*
X125580952Y-56880952D01*
X125885714Y-56880952D01*
X125200000Y-56461904D02*
X124742857Y-56461904D01*
X124971428Y-57261904D02*
X124971428Y-56461904D01*
%TO.C,GPIO*%
X123400000Y-54450000D02*
X123476190Y-54407142D01*
X123590476Y-54407142D01*
X123704761Y-54450000D01*
X123780952Y-54535714D01*
X123819047Y-54621428D01*
X123857142Y-54792857D01*
X123857142Y-54921428D01*
X123819047Y-55092857D01*
X123780952Y-55178571D01*
X123704761Y-55264285D01*
X123590476Y-55307142D01*
X123514285Y-55307142D01*
X123400000Y-55264285D01*
X123361904Y-55221428D01*
X123361904Y-54921428D01*
X123514285Y-54921428D01*
X123019047Y-55307142D02*
X123019047Y-54407142D01*
X122714285Y-54407142D01*
X122638095Y-54450000D01*
X122600000Y-54492857D01*
X122561904Y-54578571D01*
X122561904Y-54707142D01*
X122600000Y-54792857D01*
X122638095Y-54835714D01*
X122714285Y-54878571D01*
X123019047Y-54878571D01*
X122219047Y-55307142D02*
X122219047Y-54407142D01*
X121685714Y-54407142D02*
X121533333Y-54407142D01*
X121457142Y-54450000D01*
X121380952Y-54535714D01*
X121342857Y-54707142D01*
X121342857Y-55007142D01*
X121380952Y-55178571D01*
X121457142Y-55264285D01*
X121533333Y-55307142D01*
X121685714Y-55307142D01*
X121761904Y-55264285D01*
X121838095Y-55178571D01*
X121876190Y-55007142D01*
X121876190Y-54707142D01*
X121838095Y-54535714D01*
X121761904Y-54450000D01*
X121685714Y-54407142D01*
%TO.C,ATTACH*%
X119661904Y-53633333D02*
X119280952Y-53633333D01*
X119738095Y-53861904D02*
X119471428Y-53061904D01*
X119204761Y-53861904D01*
X119052380Y-53061904D02*
X118595238Y-53061904D01*
X118823809Y-53861904D02*
X118823809Y-53061904D01*
X118442857Y-53061904D02*
X117985714Y-53061904D01*
X118214285Y-53861904D02*
X118214285Y-53061904D01*
X117757142Y-53633333D02*
X117376190Y-53633333D01*
X117833333Y-53861904D02*
X117566666Y-53061904D01*
X117300000Y-53861904D01*
X116576190Y-53785714D02*
X116614285Y-53823809D01*
X116728571Y-53861904D01*
X116804761Y-53861904D01*
X116919047Y-53823809D01*
X116995238Y-53747619D01*
X117033333Y-53671428D01*
X117071428Y-53519047D01*
X117071428Y-53404761D01*
X117033333Y-53252380D01*
X116995238Y-53176190D01*
X116919047Y-53100000D01*
X116804761Y-53061904D01*
X116728571Y-53061904D01*
X116614285Y-53100000D01*
X116576190Y-53138095D01*
X116233333Y-53861904D02*
X116233333Y-53061904D01*
X116233333Y-53442857D02*
X115776190Y-53442857D01*
X115776190Y-53861904D02*
X115776190Y-53061904D01*
%TD*%
M02*
