%TF.GenerationSoftware,KiCad,Pcbnew,(5.1.7-0-10_14)*%
%TF.CreationDate,2020-10-21T09:17:32+08:00*%
%TF.ProjectId,STUSB4500_Breakout,53545553-4234-4353-9030-5f427265616b,rev?*%
%TF.SameCoordinates,Original*%
%TF.FileFunction,Copper,L4,Bot*%
%TF.FilePolarity,Positive*%
%FSLAX46Y46*%
G04 Gerber Fmt 4.6, Leading zero omitted, Abs format (unit mm)*
G04 Created by KiCad (PCBNEW (5.1.7-0-10_14)) date 2020-10-21 09:17:32*
%MOMM*%
%LPD*%
G01*
G04 APERTURE LIST*
%TA.AperFunction,SMDPad,CuDef*%
%ADD10C,1.000000*%
%TD*%
%TA.AperFunction,ComponentPad*%
%ADD11O,1.000000X2.100000*%
%TD*%
%TA.AperFunction,ComponentPad*%
%ADD12O,1.000000X1.600000*%
%TD*%
%TA.AperFunction,ComponentPad*%
%ADD13C,3.700000*%
%TD*%
%TA.AperFunction,ComponentPad*%
%ADD14R,2.100000X2.100000*%
%TD*%
%TA.AperFunction,ComponentPad*%
%ADD15C,2.100000*%
%TD*%
%TA.AperFunction,ViaPad*%
%ADD16C,0.800000*%
%TD*%
%TA.AperFunction,ViaPad*%
%ADD17C,0.450000*%
%TD*%
%TA.AperFunction,Conductor*%
%ADD18C,0.500000*%
%TD*%
%TA.AperFunction,Conductor*%
%ADD19C,0.200000*%
%TD*%
%TA.AperFunction,Conductor*%
%ADD20C,0.254000*%
%TD*%
%TA.AperFunction,Conductor*%
%ADD21C,0.100000*%
%TD*%
G04 APERTURE END LIST*
D10*
%TO.P,ALERT,1*%
%TO.N,ALERT*%
X129000000Y-56900000D03*
%TD*%
%TO.P,GPIO,1*%
%TO.N,GPIO*%
X124900000Y-54800000D03*
%TD*%
%TO.P,ATTACH,1*%
%TO.N,ATTACH*%
X120700000Y-53500000D03*
%TD*%
D11*
%TO.P,J1,S1*%
%TO.N,GND*%
X126020000Y-42505000D03*
X117380000Y-42505000D03*
D12*
X126020000Y-38325000D03*
X117380000Y-38325000D03*
%TD*%
D13*
%TO.P,H4,1*%
%TO.N,GND*%
X131960000Y-59700000D03*
%TD*%
%TO.P,H3,1*%
%TO.N,GND*%
X110960000Y-59750000D03*
%TD*%
%TO.P,H2,1*%
%TO.N,GND*%
X131960000Y-38700000D03*
%TD*%
%TO.P,H1,1*%
%TO.N,GND*%
X110950000Y-38650000D03*
%TD*%
D14*
%TO.P,J4,1*%
%TO.N,VSNK*%
X120660000Y-58100000D03*
D15*
%TO.P,J4,2*%
%TO.N,GND*%
X123200000Y-58100000D03*
%TD*%
D16*
%TO.N,VSNK*%
X119800000Y-47600000D03*
X119000000Y-47600000D03*
X120600000Y-47600000D03*
X120600000Y-48400000D03*
X119800000Y-48400000D03*
X119000000Y-48400000D03*
X119000000Y-49200000D03*
X119800000Y-49200000D03*
X120600000Y-49200000D03*
X121400000Y-47600000D03*
X118200000Y-47600000D03*
X111600000Y-44500000D03*
%TO.N,GND*%
X123700000Y-50100000D03*
X124600000Y-50100000D03*
X125500000Y-50100000D03*
X123700000Y-51000000D03*
X124600000Y-51000000D03*
X125500000Y-51000000D03*
X124600000Y-51900000D03*
X125500000Y-51900000D03*
X123700000Y-51900000D03*
X112000000Y-46799994D03*
X132600000Y-53800006D03*
X129600000Y-51300000D03*
X112000000Y-54700000D03*
%TO.N,VCC*%
X130599999Y-56400001D03*
X132223078Y-49323080D03*
X112600000Y-48299996D03*
X132812500Y-42787506D03*
D17*
%TO.N,CC1*%
X125600000Y-48200000D03*
X129225010Y-41200000D03*
%TO.N,CC2*%
X124100000Y-48200000D03*
X128600004Y-39100000D03*
%TO.N,SDA*%
X121966939Y-50224990D03*
X112899992Y-49900000D03*
X130110208Y-48310210D03*
%TO.N,SCL*%
X122600000Y-49200000D03*
X129974990Y-47300000D03*
X112900000Y-50700000D03*
%TO.N,ATTACH*%
X120700000Y-53499998D03*
%TO.N,ALERT*%
X129000000Y-56900000D03*
%TO.N,GPIO*%
X124900014Y-54800000D03*
%TO.N,Net-(R8-Pad1)*%
X126200000Y-54199996D03*
X129100000Y-46100000D03*
%TO.N,PDO3*%
X123400000Y-54174990D03*
X117513022Y-54528478D03*
%TO.N,PDO2*%
X127585011Y-51772511D03*
X118570172Y-54501461D03*
%TD*%
D18*
%TO.N,VCC*%
X132223078Y-43376928D02*
X132812500Y-42787506D01*
X132223078Y-49323080D02*
X132223078Y-43376928D01*
X115093948Y-55975013D02*
X119079824Y-55975013D01*
X119104838Y-55949999D02*
X130149997Y-55949999D01*
X111824989Y-49075007D02*
X111824989Y-52706054D01*
X119079824Y-55975013D02*
X119104838Y-55949999D01*
X111824989Y-52706054D02*
X115093948Y-55975013D01*
X130149997Y-55949999D02*
X130599999Y-56400001D01*
X112600000Y-48299996D02*
X111824989Y-49075007D01*
X130599999Y-56400001D02*
X131235222Y-55764778D01*
X131235222Y-55764778D02*
X131235222Y-50310936D01*
X131235222Y-50310936D02*
X132223078Y-49323080D01*
D19*
%TO.N,CC1*%
X129225010Y-42025002D02*
X129225010Y-41200000D01*
X125100000Y-46150012D02*
X129225010Y-42025002D01*
X125100000Y-47600000D02*
X125100000Y-46150012D01*
X125600000Y-48100000D02*
X125100000Y-47600000D01*
%TO.N,CC2*%
X128600004Y-41834296D02*
X128600004Y-39100000D01*
X124600000Y-47600000D02*
X124600000Y-45834300D01*
X124100000Y-48100000D02*
X124600000Y-47600000D01*
X124600000Y-45834300D02*
X128600004Y-41834296D01*
X124100000Y-48200000D02*
X124100000Y-48100000D01*
%TO.N,SDA*%
X112374999Y-50952001D02*
X112374999Y-50424993D01*
X121966939Y-50224990D02*
X120966928Y-51225001D01*
X120966928Y-51225001D02*
X112647999Y-51225001D01*
X112647999Y-51225001D02*
X112374999Y-50952001D01*
X112374999Y-50424993D02*
X112899992Y-49900000D01*
X121966939Y-50224990D02*
X122335137Y-50224990D01*
X123410137Y-49149990D02*
X129270428Y-49149990D01*
X129270428Y-49149990D02*
X130110208Y-48310210D01*
X122335137Y-50224990D02*
X123410137Y-49149990D01*
%TO.N,SCL*%
X122600000Y-49200000D02*
X123050021Y-48749979D01*
X128525011Y-48749979D02*
X129974990Y-47300000D01*
X123050021Y-48749979D02*
X128525011Y-48749979D01*
X113200000Y-50400000D02*
X112900000Y-50700000D01*
X121014925Y-50400000D02*
X113200000Y-50400000D01*
X122214925Y-49200000D02*
X121014925Y-50400000D01*
X122600000Y-49200000D02*
X122214925Y-49200000D01*
%TO.N,Net-(R8-Pad1)*%
X129518198Y-46100000D02*
X129100000Y-46100000D01*
X130685211Y-47267013D02*
X129518198Y-46100000D01*
X129200004Y-54199996D02*
X130685211Y-52714789D01*
X130685211Y-52714789D02*
X130685211Y-47267013D01*
X126200000Y-54199996D02*
X129200004Y-54199996D01*
%TO.N,PDO3*%
X118011006Y-55026462D02*
X117513022Y-54528478D01*
X123400000Y-54174990D02*
X122548528Y-55026462D01*
X122548528Y-55026462D02*
X118011006Y-55026462D01*
%TO.N,PDO2*%
X126157522Y-53200000D02*
X123600000Y-53200000D01*
X122298539Y-54501461D02*
X118570172Y-54501461D01*
X123600000Y-53200000D02*
X122298539Y-54501461D01*
X127585011Y-51772511D02*
X126157522Y-53200000D01*
%TD*%
D20*
%TO.N,GND*%
X116506839Y-37288831D02*
X116379997Y-37473322D01*
X116291585Y-37679013D01*
X116245000Y-37898000D01*
X116245000Y-38198000D01*
X117253000Y-38198000D01*
X117253000Y-38178000D01*
X117507000Y-38178000D01*
X117507000Y-38198000D01*
X118515000Y-38198000D01*
X118515000Y-37898000D01*
X118468415Y-37679013D01*
X118380003Y-37473322D01*
X118253161Y-37288831D01*
X118120868Y-37160000D01*
X125279132Y-37160000D01*
X125146839Y-37288831D01*
X125019997Y-37473322D01*
X124931585Y-37679013D01*
X124885000Y-37898000D01*
X124885000Y-38198000D01*
X125893000Y-38198000D01*
X125893000Y-38178000D01*
X126147000Y-38178000D01*
X126147000Y-38198000D01*
X127155000Y-38198000D01*
X127155000Y-37898000D01*
X127108415Y-37679013D01*
X127020003Y-37473322D01*
X126893161Y-37288831D01*
X126760868Y-37160000D01*
X130181681Y-37160000D01*
X129867832Y-37336931D01*
X129642110Y-37771284D01*
X129505464Y-38241327D01*
X129463144Y-38728996D01*
X129516778Y-39215552D01*
X129664303Y-39682294D01*
X129867832Y-40063069D01*
X130219228Y-40261167D01*
X131780395Y-38700000D01*
X131766253Y-38685858D01*
X131945858Y-38506253D01*
X131960000Y-38520395D01*
X131974143Y-38506253D01*
X132153748Y-38685858D01*
X132139605Y-38700000D01*
X132153748Y-38714143D01*
X131974143Y-38893748D01*
X131960000Y-38879605D01*
X130398833Y-40440772D01*
X130596931Y-40792168D01*
X131031284Y-41017890D01*
X131501327Y-41154536D01*
X131988996Y-41196856D01*
X132475552Y-41143222D01*
X132942294Y-40995697D01*
X133323069Y-40792168D01*
X133500000Y-40478319D01*
X133500000Y-42011295D01*
X133472274Y-41983569D01*
X133302756Y-41870301D01*
X133114398Y-41792280D01*
X132914439Y-41752506D01*
X132710561Y-41752506D01*
X132510602Y-41792280D01*
X132322244Y-41870301D01*
X132152726Y-41983569D01*
X132008563Y-42127732D01*
X131895295Y-42297250D01*
X131817274Y-42485608D01*
X131805965Y-42542463D01*
X131628030Y-42720398D01*
X131594262Y-42748111D01*
X131566549Y-42781879D01*
X131566546Y-42781882D01*
X131483668Y-42882869D01*
X131401490Y-43036615D01*
X131350883Y-43203438D01*
X131333797Y-43376928D01*
X131338079Y-43420407D01*
X131338078Y-46929246D01*
X131299298Y-46856693D01*
X131281495Y-46835000D01*
X131207449Y-46744775D01*
X131179404Y-46721759D01*
X130063456Y-45605812D01*
X130040436Y-45577762D01*
X129928518Y-45485913D01*
X129800831Y-45417663D01*
X129662283Y-45375635D01*
X129554303Y-45365000D01*
X129546856Y-45364267D01*
X129507363Y-45337878D01*
X129350853Y-45273049D01*
X129184703Y-45240000D01*
X129015297Y-45240000D01*
X128849147Y-45273049D01*
X128692637Y-45337878D01*
X128551782Y-45431995D01*
X128431995Y-45551782D01*
X128337878Y-45692637D01*
X128273049Y-45849147D01*
X128240000Y-46015297D01*
X128240000Y-46184703D01*
X128273049Y-46350853D01*
X128337878Y-46507363D01*
X128431995Y-46648218D01*
X128551782Y-46768005D01*
X128692637Y-46862122D01*
X128849147Y-46926951D01*
X129015297Y-46960000D01*
X129184703Y-46960000D01*
X129184989Y-46959943D01*
X129148039Y-47049147D01*
X129138515Y-47097028D01*
X128220565Y-48014979D01*
X126440046Y-48014979D01*
X126426951Y-47949147D01*
X126362122Y-47792637D01*
X126268005Y-47651782D01*
X126148218Y-47531995D01*
X126007363Y-47437878D01*
X125956084Y-47416637D01*
X125835000Y-47295554D01*
X125835000Y-46454458D01*
X129719207Y-42570252D01*
X129747247Y-42547240D01*
X129770260Y-42519199D01*
X129770263Y-42519196D01*
X129797828Y-42485608D01*
X129839097Y-42435322D01*
X129907347Y-42307635D01*
X129949375Y-42169087D01*
X129960010Y-42061107D01*
X129960010Y-42061106D01*
X129963566Y-42025003D01*
X129960010Y-41988898D01*
X129960010Y-41647954D01*
X129987132Y-41607363D01*
X130051961Y-41450853D01*
X130085010Y-41284703D01*
X130085010Y-41115297D01*
X130051961Y-40949147D01*
X129987132Y-40792637D01*
X129893015Y-40651782D01*
X129773228Y-40531995D01*
X129632373Y-40437878D01*
X129475863Y-40373049D01*
X129335004Y-40345031D01*
X129335004Y-39547954D01*
X129362126Y-39507363D01*
X129426955Y-39350853D01*
X129460004Y-39184703D01*
X129460004Y-39015297D01*
X129426955Y-38849147D01*
X129362126Y-38692637D01*
X129268009Y-38551782D01*
X129148222Y-38431995D01*
X129007367Y-38337878D01*
X128850857Y-38273049D01*
X128684707Y-38240000D01*
X128515301Y-38240000D01*
X128349151Y-38273049D01*
X128192641Y-38337878D01*
X128051786Y-38431995D01*
X127931999Y-38551782D01*
X127837882Y-38692637D01*
X127773053Y-38849147D01*
X127740004Y-39015297D01*
X127740004Y-39184703D01*
X127773053Y-39350853D01*
X127837882Y-39507363D01*
X127865005Y-39547955D01*
X127865004Y-41529849D01*
X127155000Y-42239853D01*
X127155000Y-41828000D01*
X127108415Y-41609013D01*
X127020003Y-41403322D01*
X126893161Y-41218831D01*
X126732764Y-41062631D01*
X126544976Y-40940724D01*
X126321874Y-40860881D01*
X126147000Y-40987046D01*
X126147000Y-42378000D01*
X126167000Y-42378000D01*
X126167000Y-42632000D01*
X126147000Y-42632000D01*
X126147000Y-42652000D01*
X125893000Y-42652000D01*
X125893000Y-42632000D01*
X125873000Y-42632000D01*
X125873000Y-42378000D01*
X125893000Y-42378000D01*
X125893000Y-40987046D01*
X125718126Y-40860881D01*
X125495024Y-40940724D01*
X125307236Y-41062631D01*
X125146839Y-41218831D01*
X125145117Y-41221335D01*
X125044731Y-41154259D01*
X124870022Y-41081892D01*
X124684552Y-41045000D01*
X124495448Y-41045000D01*
X124309978Y-41081892D01*
X124135269Y-41154259D01*
X123978036Y-41259319D01*
X123844319Y-41393036D01*
X123739259Y-41550269D01*
X123666892Y-41724978D01*
X123630000Y-41910448D01*
X123630000Y-42099552D01*
X123666892Y-42285022D01*
X123739259Y-42459731D01*
X123844319Y-42616964D01*
X123978036Y-42750681D01*
X124135269Y-42855741D01*
X124309978Y-42928108D01*
X124495448Y-42965000D01*
X124684552Y-42965000D01*
X124870022Y-42928108D01*
X124885000Y-42921904D01*
X124885000Y-43182000D01*
X124931585Y-43400987D01*
X125019997Y-43606678D01*
X125146839Y-43791169D01*
X125307236Y-43947369D01*
X125392278Y-44002576D01*
X124105808Y-45289046D01*
X124077763Y-45312062D01*
X123985914Y-45423980D01*
X123926573Y-45535000D01*
X123917664Y-45551667D01*
X123875635Y-45690215D01*
X123861444Y-45834300D01*
X123865001Y-45870415D01*
X123865000Y-47295553D01*
X123743916Y-47416637D01*
X123692637Y-47437878D01*
X123551782Y-47531995D01*
X123431995Y-47651782D01*
X123337878Y-47792637D01*
X123273049Y-47949147D01*
X123259954Y-48014979D01*
X123086126Y-48014979D01*
X123050021Y-48011423D01*
X123013916Y-48014979D01*
X122905936Y-48025614D01*
X122767388Y-48067642D01*
X122639701Y-48135892D01*
X122527783Y-48227741D01*
X122504762Y-48255792D01*
X122397029Y-48363525D01*
X122349147Y-48373049D01*
X122192637Y-48437878D01*
X122147418Y-48468093D01*
X122070840Y-48475635D01*
X121932292Y-48517663D01*
X121804605Y-48585913D01*
X121692687Y-48677762D01*
X121669671Y-48705807D01*
X121560708Y-48814770D01*
X121554591Y-48800000D01*
X121595226Y-48701898D01*
X121612924Y-48612924D01*
X121701898Y-48595226D01*
X121890256Y-48517205D01*
X122059774Y-48403937D01*
X122203937Y-48259774D01*
X122317205Y-48090256D01*
X122395226Y-47901898D01*
X122435000Y-47701939D01*
X122435000Y-47498061D01*
X122395226Y-47298102D01*
X122317205Y-47109744D01*
X122203937Y-46940226D01*
X122059774Y-46796063D01*
X121890256Y-46682795D01*
X121701898Y-46604774D01*
X121501939Y-46565000D01*
X121298061Y-46565000D01*
X121098102Y-46604774D01*
X121000000Y-46645409D01*
X120901898Y-46604774D01*
X120701939Y-46565000D01*
X120498061Y-46565000D01*
X120298102Y-46604774D01*
X120200000Y-46645409D01*
X120101898Y-46604774D01*
X119901939Y-46565000D01*
X119698061Y-46565000D01*
X119498102Y-46604774D01*
X119400000Y-46645409D01*
X119301898Y-46604774D01*
X119101939Y-46565000D01*
X118898061Y-46565000D01*
X118698102Y-46604774D01*
X118600000Y-46645409D01*
X118501898Y-46604774D01*
X118301939Y-46565000D01*
X118098061Y-46565000D01*
X117898102Y-46604774D01*
X117709744Y-46682795D01*
X117540226Y-46796063D01*
X117396063Y-46940226D01*
X117282795Y-47109744D01*
X117204774Y-47298102D01*
X117165000Y-47498061D01*
X117165000Y-47701939D01*
X117204774Y-47901898D01*
X117282795Y-48090256D01*
X117396063Y-48259774D01*
X117540226Y-48403937D01*
X117709744Y-48517205D01*
X117898102Y-48595226D01*
X117987076Y-48612924D01*
X118004774Y-48701898D01*
X118045409Y-48800000D01*
X118004774Y-48898102D01*
X117965000Y-49098061D01*
X117965000Y-49301939D01*
X118004774Y-49501898D01*
X118072334Y-49665000D01*
X113730096Y-49665000D01*
X113726943Y-49649147D01*
X113662114Y-49492637D01*
X113567997Y-49351782D01*
X113448210Y-49231995D01*
X113307355Y-49137878D01*
X113246622Y-49112721D01*
X113259774Y-49103933D01*
X113403937Y-48959770D01*
X113517205Y-48790252D01*
X113595226Y-48601894D01*
X113635000Y-48401935D01*
X113635000Y-48198057D01*
X113595226Y-47998098D01*
X113517205Y-47809740D01*
X113403937Y-47640222D01*
X113259774Y-47496059D01*
X113090256Y-47382791D01*
X112901898Y-47304770D01*
X112701939Y-47264996D01*
X112498061Y-47264996D01*
X112298102Y-47304770D01*
X112109744Y-47382791D01*
X111940226Y-47496059D01*
X111796063Y-47640222D01*
X111682795Y-47809740D01*
X111604774Y-47998098D01*
X111593465Y-48054952D01*
X111229945Y-48418473D01*
X111196172Y-48446190D01*
X111085578Y-48580949D01*
X111003400Y-48734695D01*
X110971894Y-48838556D01*
X110958613Y-48882337D01*
X110952794Y-48901518D01*
X110939989Y-49031531D01*
X110939989Y-49031538D01*
X110935708Y-49075007D01*
X110939989Y-49118476D01*
X110939990Y-52662575D01*
X110935708Y-52706054D01*
X110952794Y-52879544D01*
X111003401Y-53046367D01*
X111085579Y-53200113D01*
X111168457Y-53301100D01*
X111168460Y-53301103D01*
X111196173Y-53334871D01*
X111229940Y-53362583D01*
X114437418Y-56570062D01*
X114465131Y-56603830D01*
X114498899Y-56631543D01*
X114498901Y-56631545D01*
X114520349Y-56649147D01*
X114599889Y-56714424D01*
X114753635Y-56796602D01*
X114920458Y-56847208D01*
X115050471Y-56860013D01*
X115050481Y-56860013D01*
X115093947Y-56864294D01*
X115137413Y-56860013D01*
X119004059Y-56860013D01*
X118984188Y-56925518D01*
X118971928Y-57050000D01*
X118971928Y-59150000D01*
X118984188Y-59274482D01*
X119020498Y-59394180D01*
X119079463Y-59504494D01*
X119158815Y-59601185D01*
X119255506Y-59680537D01*
X119365820Y-59739502D01*
X119485518Y-59775812D01*
X119610000Y-59788072D01*
X121710000Y-59788072D01*
X121834482Y-59775812D01*
X121954180Y-59739502D01*
X122064494Y-59680537D01*
X122161185Y-59601185D01*
X122240537Y-59504494D01*
X122273451Y-59442918D01*
X122310339Y-59540579D01*
X122608477Y-59686463D01*
X122929346Y-59771380D01*
X123260617Y-59792066D01*
X123589557Y-59747728D01*
X123903527Y-59640069D01*
X124089661Y-59540579D01*
X124191461Y-59271066D01*
X123200000Y-58279605D01*
X123185858Y-58293748D01*
X123006253Y-58114143D01*
X123020395Y-58100000D01*
X123379605Y-58100000D01*
X124371066Y-59091461D01*
X124640579Y-58989661D01*
X124786463Y-58691523D01*
X124871380Y-58370654D01*
X124892066Y-58039383D01*
X124847728Y-57710443D01*
X124740069Y-57396473D01*
X124640579Y-57210339D01*
X124371066Y-57108539D01*
X123379605Y-58100000D01*
X123020395Y-58100000D01*
X123006253Y-58085858D01*
X123185858Y-57906253D01*
X123200000Y-57920395D01*
X124191461Y-56928934D01*
X124155980Y-56834999D01*
X127865000Y-56834999D01*
X127865000Y-57011788D01*
X127908617Y-57231067D01*
X127994176Y-57437624D01*
X128118388Y-57623520D01*
X128276480Y-57781612D01*
X128462376Y-57905824D01*
X128668933Y-57991383D01*
X128888212Y-58035000D01*
X129111788Y-58035000D01*
X129331067Y-57991383D01*
X129537624Y-57905824D01*
X129723520Y-57781612D01*
X129881612Y-57623520D01*
X130005824Y-57437624D01*
X130067417Y-57288925D01*
X130109743Y-57317206D01*
X130298101Y-57395227D01*
X130498060Y-57435001D01*
X130701938Y-57435001D01*
X130901897Y-57395227D01*
X131090255Y-57317206D01*
X131259773Y-57203938D01*
X131403936Y-57059775D01*
X131517204Y-56890257D01*
X131595225Y-56701899D01*
X131606534Y-56645045D01*
X131830272Y-56421307D01*
X131864039Y-56393595D01*
X131898355Y-56351782D01*
X131974632Y-56258838D01*
X131974633Y-56258837D01*
X132056811Y-56105091D01*
X132103858Y-55950000D01*
X132107417Y-55938269D01*
X132110601Y-55905942D01*
X132120222Y-55808255D01*
X132120222Y-55808247D01*
X132124503Y-55764778D01*
X132120222Y-55721309D01*
X132120222Y-50677514D01*
X132468122Y-50329615D01*
X132524976Y-50318306D01*
X132713334Y-50240285D01*
X132882852Y-50127017D01*
X133027015Y-49982854D01*
X133140283Y-49813336D01*
X133218304Y-49624978D01*
X133258078Y-49425019D01*
X133258078Y-49221141D01*
X133218304Y-49021182D01*
X133140283Y-48832824D01*
X133108078Y-48784626D01*
X133108078Y-43783989D01*
X133114398Y-43782732D01*
X133302756Y-43704711D01*
X133472274Y-43591443D01*
X133500000Y-43563717D01*
X133500001Y-57921683D01*
X133323069Y-57607832D01*
X132888716Y-57382110D01*
X132418673Y-57245464D01*
X131931004Y-57203144D01*
X131444448Y-57256778D01*
X130977706Y-57404303D01*
X130596931Y-57607832D01*
X130398833Y-57959228D01*
X131960000Y-59520395D01*
X131974143Y-59506253D01*
X132153748Y-59685858D01*
X132139605Y-59700000D01*
X132153748Y-59714143D01*
X131974143Y-59893748D01*
X131960000Y-59879605D01*
X131945858Y-59893748D01*
X131766253Y-59714143D01*
X131780395Y-59700000D01*
X130219228Y-58138833D01*
X129867832Y-58336931D01*
X129642110Y-58771284D01*
X129505464Y-59241327D01*
X129463144Y-59728996D01*
X129516778Y-60215552D01*
X129664303Y-60682294D01*
X129867832Y-61063069D01*
X130181681Y-61240000D01*
X112827012Y-61240000D01*
X113052168Y-61113069D01*
X113277890Y-60678716D01*
X113414536Y-60208673D01*
X113456856Y-59721004D01*
X113403222Y-59234448D01*
X113255697Y-58767706D01*
X113052168Y-58386931D01*
X112700772Y-58188833D01*
X111139605Y-59750000D01*
X111153748Y-59764143D01*
X110974143Y-59943748D01*
X110960000Y-59929605D01*
X110945858Y-59943748D01*
X110766253Y-59764143D01*
X110780395Y-59750000D01*
X110766253Y-59735858D01*
X110945858Y-59556253D01*
X110960000Y-59570395D01*
X112521167Y-58009228D01*
X112323069Y-57657832D01*
X111888716Y-57432110D01*
X111418673Y-57295464D01*
X110931004Y-57253144D01*
X110444448Y-57306778D01*
X109977706Y-57454303D01*
X109596931Y-57657832D01*
X109460000Y-57900727D01*
X109460000Y-44398061D01*
X110565000Y-44398061D01*
X110565000Y-44601939D01*
X110604774Y-44801898D01*
X110682795Y-44990256D01*
X110796063Y-45159774D01*
X110940226Y-45303937D01*
X111109744Y-45417205D01*
X111298102Y-45495226D01*
X111498061Y-45535000D01*
X111701939Y-45535000D01*
X111901898Y-45495226D01*
X112090256Y-45417205D01*
X112259774Y-45303937D01*
X112403937Y-45159774D01*
X112517205Y-44990256D01*
X112595226Y-44801898D01*
X112635000Y-44601939D01*
X112635000Y-44398061D01*
X112595226Y-44198102D01*
X112517205Y-44009744D01*
X112403937Y-43840226D01*
X112259774Y-43696063D01*
X112090256Y-43582795D01*
X111901898Y-43504774D01*
X111701939Y-43465000D01*
X111498061Y-43465000D01*
X111298102Y-43504774D01*
X111109744Y-43582795D01*
X110940226Y-43696063D01*
X110796063Y-43840226D01*
X110682795Y-44009744D01*
X110604774Y-44198102D01*
X110565000Y-44398061D01*
X109460000Y-44398061D01*
X109460000Y-42632000D01*
X116245000Y-42632000D01*
X116245000Y-43182000D01*
X116291585Y-43400987D01*
X116379997Y-43606678D01*
X116506839Y-43791169D01*
X116667236Y-43947369D01*
X116855024Y-44069276D01*
X117078126Y-44149119D01*
X117253000Y-44022954D01*
X117253000Y-42632000D01*
X116245000Y-42632000D01*
X109460000Y-42632000D01*
X109460000Y-41828000D01*
X116245000Y-41828000D01*
X116245000Y-42378000D01*
X117253000Y-42378000D01*
X117253000Y-40987046D01*
X117507000Y-40987046D01*
X117507000Y-42378000D01*
X117527000Y-42378000D01*
X117527000Y-42632000D01*
X117507000Y-42632000D01*
X117507000Y-44022954D01*
X117681874Y-44149119D01*
X117904976Y-44069276D01*
X118092764Y-43947369D01*
X118253161Y-43791169D01*
X118380003Y-43606678D01*
X118468415Y-43400987D01*
X118515000Y-43182000D01*
X118515000Y-42921904D01*
X118529978Y-42928108D01*
X118715448Y-42965000D01*
X118904552Y-42965000D01*
X119090022Y-42928108D01*
X119264731Y-42855741D01*
X119421964Y-42750681D01*
X119555681Y-42616964D01*
X119660741Y-42459731D01*
X119733108Y-42285022D01*
X119770000Y-42099552D01*
X119770000Y-41910448D01*
X119733108Y-41724978D01*
X119660741Y-41550269D01*
X119555681Y-41393036D01*
X119421964Y-41259319D01*
X119264731Y-41154259D01*
X119090022Y-41081892D01*
X118904552Y-41045000D01*
X118715448Y-41045000D01*
X118529978Y-41081892D01*
X118355269Y-41154259D01*
X118254883Y-41221335D01*
X118253161Y-41218831D01*
X118092764Y-41062631D01*
X117904976Y-40940724D01*
X117681874Y-40860881D01*
X117507000Y-40987046D01*
X117253000Y-40987046D01*
X117078126Y-40860881D01*
X116855024Y-40940724D01*
X116667236Y-41062631D01*
X116506839Y-41218831D01*
X116379997Y-41403322D01*
X116291585Y-41609013D01*
X116245000Y-41828000D01*
X109460000Y-41828000D01*
X109460000Y-40517012D01*
X109586931Y-40742168D01*
X110021284Y-40967890D01*
X110491327Y-41104536D01*
X110978996Y-41146856D01*
X111465552Y-41093222D01*
X111932294Y-40945697D01*
X112313069Y-40742168D01*
X112511167Y-40390772D01*
X110950000Y-38829605D01*
X110935858Y-38843748D01*
X110756253Y-38664143D01*
X110770395Y-38650000D01*
X110756253Y-38635858D01*
X110935858Y-38456253D01*
X110950000Y-38470395D01*
X110964143Y-38456253D01*
X111143748Y-38635858D01*
X111129605Y-38650000D01*
X112690772Y-40211167D01*
X113042168Y-40013069D01*
X113267890Y-39578716D01*
X113404536Y-39108673D01*
X113446856Y-38621004D01*
X113428227Y-38452000D01*
X116245000Y-38452000D01*
X116245000Y-38752000D01*
X116291585Y-38970987D01*
X116379997Y-39176678D01*
X116506839Y-39361169D01*
X116667236Y-39517369D01*
X116855024Y-39639276D01*
X117078126Y-39719119D01*
X117253000Y-39592954D01*
X117253000Y-38452000D01*
X117507000Y-38452000D01*
X117507000Y-39592954D01*
X117681874Y-39719119D01*
X117904976Y-39639276D01*
X118092764Y-39517369D01*
X118253161Y-39361169D01*
X118380003Y-39176678D01*
X118468415Y-38970987D01*
X118515000Y-38752000D01*
X118515000Y-38452000D01*
X124885000Y-38452000D01*
X124885000Y-38752000D01*
X124931585Y-38970987D01*
X125019997Y-39176678D01*
X125146839Y-39361169D01*
X125307236Y-39517369D01*
X125495024Y-39639276D01*
X125718126Y-39719119D01*
X125893000Y-39592954D01*
X125893000Y-38452000D01*
X126147000Y-38452000D01*
X126147000Y-39592954D01*
X126321874Y-39719119D01*
X126544976Y-39639276D01*
X126732764Y-39517369D01*
X126893161Y-39361169D01*
X127020003Y-39176678D01*
X127108415Y-38970987D01*
X127155000Y-38752000D01*
X127155000Y-38452000D01*
X126147000Y-38452000D01*
X125893000Y-38452000D01*
X124885000Y-38452000D01*
X118515000Y-38452000D01*
X117507000Y-38452000D01*
X117253000Y-38452000D01*
X116245000Y-38452000D01*
X113428227Y-38452000D01*
X113393222Y-38134448D01*
X113245697Y-37667706D01*
X113042168Y-37286931D01*
X112817012Y-37160000D01*
X116639132Y-37160000D01*
X116506839Y-37288831D01*
%TA.AperFunction,Conductor*%
D21*
G36*
X116506839Y-37288831D02*
G01*
X116379997Y-37473322D01*
X116291585Y-37679013D01*
X116245000Y-37898000D01*
X116245000Y-38198000D01*
X117253000Y-38198000D01*
X117253000Y-38178000D01*
X117507000Y-38178000D01*
X117507000Y-38198000D01*
X118515000Y-38198000D01*
X118515000Y-37898000D01*
X118468415Y-37679013D01*
X118380003Y-37473322D01*
X118253161Y-37288831D01*
X118120868Y-37160000D01*
X125279132Y-37160000D01*
X125146839Y-37288831D01*
X125019997Y-37473322D01*
X124931585Y-37679013D01*
X124885000Y-37898000D01*
X124885000Y-38198000D01*
X125893000Y-38198000D01*
X125893000Y-38178000D01*
X126147000Y-38178000D01*
X126147000Y-38198000D01*
X127155000Y-38198000D01*
X127155000Y-37898000D01*
X127108415Y-37679013D01*
X127020003Y-37473322D01*
X126893161Y-37288831D01*
X126760868Y-37160000D01*
X130181681Y-37160000D01*
X129867832Y-37336931D01*
X129642110Y-37771284D01*
X129505464Y-38241327D01*
X129463144Y-38728996D01*
X129516778Y-39215552D01*
X129664303Y-39682294D01*
X129867832Y-40063069D01*
X130219228Y-40261167D01*
X131780395Y-38700000D01*
X131766253Y-38685858D01*
X131945858Y-38506253D01*
X131960000Y-38520395D01*
X131974143Y-38506253D01*
X132153748Y-38685858D01*
X132139605Y-38700000D01*
X132153748Y-38714143D01*
X131974143Y-38893748D01*
X131960000Y-38879605D01*
X130398833Y-40440772D01*
X130596931Y-40792168D01*
X131031284Y-41017890D01*
X131501327Y-41154536D01*
X131988996Y-41196856D01*
X132475552Y-41143222D01*
X132942294Y-40995697D01*
X133323069Y-40792168D01*
X133500000Y-40478319D01*
X133500000Y-42011295D01*
X133472274Y-41983569D01*
X133302756Y-41870301D01*
X133114398Y-41792280D01*
X132914439Y-41752506D01*
X132710561Y-41752506D01*
X132510602Y-41792280D01*
X132322244Y-41870301D01*
X132152726Y-41983569D01*
X132008563Y-42127732D01*
X131895295Y-42297250D01*
X131817274Y-42485608D01*
X131805965Y-42542463D01*
X131628030Y-42720398D01*
X131594262Y-42748111D01*
X131566549Y-42781879D01*
X131566546Y-42781882D01*
X131483668Y-42882869D01*
X131401490Y-43036615D01*
X131350883Y-43203438D01*
X131333797Y-43376928D01*
X131338079Y-43420407D01*
X131338078Y-46929246D01*
X131299298Y-46856693D01*
X131281495Y-46835000D01*
X131207449Y-46744775D01*
X131179404Y-46721759D01*
X130063456Y-45605812D01*
X130040436Y-45577762D01*
X129928518Y-45485913D01*
X129800831Y-45417663D01*
X129662283Y-45375635D01*
X129554303Y-45365000D01*
X129546856Y-45364267D01*
X129507363Y-45337878D01*
X129350853Y-45273049D01*
X129184703Y-45240000D01*
X129015297Y-45240000D01*
X128849147Y-45273049D01*
X128692637Y-45337878D01*
X128551782Y-45431995D01*
X128431995Y-45551782D01*
X128337878Y-45692637D01*
X128273049Y-45849147D01*
X128240000Y-46015297D01*
X128240000Y-46184703D01*
X128273049Y-46350853D01*
X128337878Y-46507363D01*
X128431995Y-46648218D01*
X128551782Y-46768005D01*
X128692637Y-46862122D01*
X128849147Y-46926951D01*
X129015297Y-46960000D01*
X129184703Y-46960000D01*
X129184989Y-46959943D01*
X129148039Y-47049147D01*
X129138515Y-47097028D01*
X128220565Y-48014979D01*
X126440046Y-48014979D01*
X126426951Y-47949147D01*
X126362122Y-47792637D01*
X126268005Y-47651782D01*
X126148218Y-47531995D01*
X126007363Y-47437878D01*
X125956084Y-47416637D01*
X125835000Y-47295554D01*
X125835000Y-46454458D01*
X129719207Y-42570252D01*
X129747247Y-42547240D01*
X129770260Y-42519199D01*
X129770263Y-42519196D01*
X129797828Y-42485608D01*
X129839097Y-42435322D01*
X129907347Y-42307635D01*
X129949375Y-42169087D01*
X129960010Y-42061107D01*
X129960010Y-42061106D01*
X129963566Y-42025003D01*
X129960010Y-41988898D01*
X129960010Y-41647954D01*
X129987132Y-41607363D01*
X130051961Y-41450853D01*
X130085010Y-41284703D01*
X130085010Y-41115297D01*
X130051961Y-40949147D01*
X129987132Y-40792637D01*
X129893015Y-40651782D01*
X129773228Y-40531995D01*
X129632373Y-40437878D01*
X129475863Y-40373049D01*
X129335004Y-40345031D01*
X129335004Y-39547954D01*
X129362126Y-39507363D01*
X129426955Y-39350853D01*
X129460004Y-39184703D01*
X129460004Y-39015297D01*
X129426955Y-38849147D01*
X129362126Y-38692637D01*
X129268009Y-38551782D01*
X129148222Y-38431995D01*
X129007367Y-38337878D01*
X128850857Y-38273049D01*
X128684707Y-38240000D01*
X128515301Y-38240000D01*
X128349151Y-38273049D01*
X128192641Y-38337878D01*
X128051786Y-38431995D01*
X127931999Y-38551782D01*
X127837882Y-38692637D01*
X127773053Y-38849147D01*
X127740004Y-39015297D01*
X127740004Y-39184703D01*
X127773053Y-39350853D01*
X127837882Y-39507363D01*
X127865005Y-39547955D01*
X127865004Y-41529849D01*
X127155000Y-42239853D01*
X127155000Y-41828000D01*
X127108415Y-41609013D01*
X127020003Y-41403322D01*
X126893161Y-41218831D01*
X126732764Y-41062631D01*
X126544976Y-40940724D01*
X126321874Y-40860881D01*
X126147000Y-40987046D01*
X126147000Y-42378000D01*
X126167000Y-42378000D01*
X126167000Y-42632000D01*
X126147000Y-42632000D01*
X126147000Y-42652000D01*
X125893000Y-42652000D01*
X125893000Y-42632000D01*
X125873000Y-42632000D01*
X125873000Y-42378000D01*
X125893000Y-42378000D01*
X125893000Y-40987046D01*
X125718126Y-40860881D01*
X125495024Y-40940724D01*
X125307236Y-41062631D01*
X125146839Y-41218831D01*
X125145117Y-41221335D01*
X125044731Y-41154259D01*
X124870022Y-41081892D01*
X124684552Y-41045000D01*
X124495448Y-41045000D01*
X124309978Y-41081892D01*
X124135269Y-41154259D01*
X123978036Y-41259319D01*
X123844319Y-41393036D01*
X123739259Y-41550269D01*
X123666892Y-41724978D01*
X123630000Y-41910448D01*
X123630000Y-42099552D01*
X123666892Y-42285022D01*
X123739259Y-42459731D01*
X123844319Y-42616964D01*
X123978036Y-42750681D01*
X124135269Y-42855741D01*
X124309978Y-42928108D01*
X124495448Y-42965000D01*
X124684552Y-42965000D01*
X124870022Y-42928108D01*
X124885000Y-42921904D01*
X124885000Y-43182000D01*
X124931585Y-43400987D01*
X125019997Y-43606678D01*
X125146839Y-43791169D01*
X125307236Y-43947369D01*
X125392278Y-44002576D01*
X124105808Y-45289046D01*
X124077763Y-45312062D01*
X123985914Y-45423980D01*
X123926573Y-45535000D01*
X123917664Y-45551667D01*
X123875635Y-45690215D01*
X123861444Y-45834300D01*
X123865001Y-45870415D01*
X123865000Y-47295553D01*
X123743916Y-47416637D01*
X123692637Y-47437878D01*
X123551782Y-47531995D01*
X123431995Y-47651782D01*
X123337878Y-47792637D01*
X123273049Y-47949147D01*
X123259954Y-48014979D01*
X123086126Y-48014979D01*
X123050021Y-48011423D01*
X123013916Y-48014979D01*
X122905936Y-48025614D01*
X122767388Y-48067642D01*
X122639701Y-48135892D01*
X122527783Y-48227741D01*
X122504762Y-48255792D01*
X122397029Y-48363525D01*
X122349147Y-48373049D01*
X122192637Y-48437878D01*
X122147418Y-48468093D01*
X122070840Y-48475635D01*
X121932292Y-48517663D01*
X121804605Y-48585913D01*
X121692687Y-48677762D01*
X121669671Y-48705807D01*
X121560708Y-48814770D01*
X121554591Y-48800000D01*
X121595226Y-48701898D01*
X121612924Y-48612924D01*
X121701898Y-48595226D01*
X121890256Y-48517205D01*
X122059774Y-48403937D01*
X122203937Y-48259774D01*
X122317205Y-48090256D01*
X122395226Y-47901898D01*
X122435000Y-47701939D01*
X122435000Y-47498061D01*
X122395226Y-47298102D01*
X122317205Y-47109744D01*
X122203937Y-46940226D01*
X122059774Y-46796063D01*
X121890256Y-46682795D01*
X121701898Y-46604774D01*
X121501939Y-46565000D01*
X121298061Y-46565000D01*
X121098102Y-46604774D01*
X121000000Y-46645409D01*
X120901898Y-46604774D01*
X120701939Y-46565000D01*
X120498061Y-46565000D01*
X120298102Y-46604774D01*
X120200000Y-46645409D01*
X120101898Y-46604774D01*
X119901939Y-46565000D01*
X119698061Y-46565000D01*
X119498102Y-46604774D01*
X119400000Y-46645409D01*
X119301898Y-46604774D01*
X119101939Y-46565000D01*
X118898061Y-46565000D01*
X118698102Y-46604774D01*
X118600000Y-46645409D01*
X118501898Y-46604774D01*
X118301939Y-46565000D01*
X118098061Y-46565000D01*
X117898102Y-46604774D01*
X117709744Y-46682795D01*
X117540226Y-46796063D01*
X117396063Y-46940226D01*
X117282795Y-47109744D01*
X117204774Y-47298102D01*
X117165000Y-47498061D01*
X117165000Y-47701939D01*
X117204774Y-47901898D01*
X117282795Y-48090256D01*
X117396063Y-48259774D01*
X117540226Y-48403937D01*
X117709744Y-48517205D01*
X117898102Y-48595226D01*
X117987076Y-48612924D01*
X118004774Y-48701898D01*
X118045409Y-48800000D01*
X118004774Y-48898102D01*
X117965000Y-49098061D01*
X117965000Y-49301939D01*
X118004774Y-49501898D01*
X118072334Y-49665000D01*
X113730096Y-49665000D01*
X113726943Y-49649147D01*
X113662114Y-49492637D01*
X113567997Y-49351782D01*
X113448210Y-49231995D01*
X113307355Y-49137878D01*
X113246622Y-49112721D01*
X113259774Y-49103933D01*
X113403937Y-48959770D01*
X113517205Y-48790252D01*
X113595226Y-48601894D01*
X113635000Y-48401935D01*
X113635000Y-48198057D01*
X113595226Y-47998098D01*
X113517205Y-47809740D01*
X113403937Y-47640222D01*
X113259774Y-47496059D01*
X113090256Y-47382791D01*
X112901898Y-47304770D01*
X112701939Y-47264996D01*
X112498061Y-47264996D01*
X112298102Y-47304770D01*
X112109744Y-47382791D01*
X111940226Y-47496059D01*
X111796063Y-47640222D01*
X111682795Y-47809740D01*
X111604774Y-47998098D01*
X111593465Y-48054952D01*
X111229945Y-48418473D01*
X111196172Y-48446190D01*
X111085578Y-48580949D01*
X111003400Y-48734695D01*
X110971894Y-48838556D01*
X110958613Y-48882337D01*
X110952794Y-48901518D01*
X110939989Y-49031531D01*
X110939989Y-49031538D01*
X110935708Y-49075007D01*
X110939989Y-49118476D01*
X110939990Y-52662575D01*
X110935708Y-52706054D01*
X110952794Y-52879544D01*
X111003401Y-53046367D01*
X111085579Y-53200113D01*
X111168457Y-53301100D01*
X111168460Y-53301103D01*
X111196173Y-53334871D01*
X111229940Y-53362583D01*
X114437418Y-56570062D01*
X114465131Y-56603830D01*
X114498899Y-56631543D01*
X114498901Y-56631545D01*
X114520349Y-56649147D01*
X114599889Y-56714424D01*
X114753635Y-56796602D01*
X114920458Y-56847208D01*
X115050471Y-56860013D01*
X115050481Y-56860013D01*
X115093947Y-56864294D01*
X115137413Y-56860013D01*
X119004059Y-56860013D01*
X118984188Y-56925518D01*
X118971928Y-57050000D01*
X118971928Y-59150000D01*
X118984188Y-59274482D01*
X119020498Y-59394180D01*
X119079463Y-59504494D01*
X119158815Y-59601185D01*
X119255506Y-59680537D01*
X119365820Y-59739502D01*
X119485518Y-59775812D01*
X119610000Y-59788072D01*
X121710000Y-59788072D01*
X121834482Y-59775812D01*
X121954180Y-59739502D01*
X122064494Y-59680537D01*
X122161185Y-59601185D01*
X122240537Y-59504494D01*
X122273451Y-59442918D01*
X122310339Y-59540579D01*
X122608477Y-59686463D01*
X122929346Y-59771380D01*
X123260617Y-59792066D01*
X123589557Y-59747728D01*
X123903527Y-59640069D01*
X124089661Y-59540579D01*
X124191461Y-59271066D01*
X123200000Y-58279605D01*
X123185858Y-58293748D01*
X123006253Y-58114143D01*
X123020395Y-58100000D01*
X123379605Y-58100000D01*
X124371066Y-59091461D01*
X124640579Y-58989661D01*
X124786463Y-58691523D01*
X124871380Y-58370654D01*
X124892066Y-58039383D01*
X124847728Y-57710443D01*
X124740069Y-57396473D01*
X124640579Y-57210339D01*
X124371066Y-57108539D01*
X123379605Y-58100000D01*
X123020395Y-58100000D01*
X123006253Y-58085858D01*
X123185858Y-57906253D01*
X123200000Y-57920395D01*
X124191461Y-56928934D01*
X124155980Y-56834999D01*
X127865000Y-56834999D01*
X127865000Y-57011788D01*
X127908617Y-57231067D01*
X127994176Y-57437624D01*
X128118388Y-57623520D01*
X128276480Y-57781612D01*
X128462376Y-57905824D01*
X128668933Y-57991383D01*
X128888212Y-58035000D01*
X129111788Y-58035000D01*
X129331067Y-57991383D01*
X129537624Y-57905824D01*
X129723520Y-57781612D01*
X129881612Y-57623520D01*
X130005824Y-57437624D01*
X130067417Y-57288925D01*
X130109743Y-57317206D01*
X130298101Y-57395227D01*
X130498060Y-57435001D01*
X130701938Y-57435001D01*
X130901897Y-57395227D01*
X131090255Y-57317206D01*
X131259773Y-57203938D01*
X131403936Y-57059775D01*
X131517204Y-56890257D01*
X131595225Y-56701899D01*
X131606534Y-56645045D01*
X131830272Y-56421307D01*
X131864039Y-56393595D01*
X131898355Y-56351782D01*
X131974632Y-56258838D01*
X131974633Y-56258837D01*
X132056811Y-56105091D01*
X132103858Y-55950000D01*
X132107417Y-55938269D01*
X132110601Y-55905942D01*
X132120222Y-55808255D01*
X132120222Y-55808247D01*
X132124503Y-55764778D01*
X132120222Y-55721309D01*
X132120222Y-50677514D01*
X132468122Y-50329615D01*
X132524976Y-50318306D01*
X132713334Y-50240285D01*
X132882852Y-50127017D01*
X133027015Y-49982854D01*
X133140283Y-49813336D01*
X133218304Y-49624978D01*
X133258078Y-49425019D01*
X133258078Y-49221141D01*
X133218304Y-49021182D01*
X133140283Y-48832824D01*
X133108078Y-48784626D01*
X133108078Y-43783989D01*
X133114398Y-43782732D01*
X133302756Y-43704711D01*
X133472274Y-43591443D01*
X133500000Y-43563717D01*
X133500001Y-57921683D01*
X133323069Y-57607832D01*
X132888716Y-57382110D01*
X132418673Y-57245464D01*
X131931004Y-57203144D01*
X131444448Y-57256778D01*
X130977706Y-57404303D01*
X130596931Y-57607832D01*
X130398833Y-57959228D01*
X131960000Y-59520395D01*
X131974143Y-59506253D01*
X132153748Y-59685858D01*
X132139605Y-59700000D01*
X132153748Y-59714143D01*
X131974143Y-59893748D01*
X131960000Y-59879605D01*
X131945858Y-59893748D01*
X131766253Y-59714143D01*
X131780395Y-59700000D01*
X130219228Y-58138833D01*
X129867832Y-58336931D01*
X129642110Y-58771284D01*
X129505464Y-59241327D01*
X129463144Y-59728996D01*
X129516778Y-60215552D01*
X129664303Y-60682294D01*
X129867832Y-61063069D01*
X130181681Y-61240000D01*
X112827012Y-61240000D01*
X113052168Y-61113069D01*
X113277890Y-60678716D01*
X113414536Y-60208673D01*
X113456856Y-59721004D01*
X113403222Y-59234448D01*
X113255697Y-58767706D01*
X113052168Y-58386931D01*
X112700772Y-58188833D01*
X111139605Y-59750000D01*
X111153748Y-59764143D01*
X110974143Y-59943748D01*
X110960000Y-59929605D01*
X110945858Y-59943748D01*
X110766253Y-59764143D01*
X110780395Y-59750000D01*
X110766253Y-59735858D01*
X110945858Y-59556253D01*
X110960000Y-59570395D01*
X112521167Y-58009228D01*
X112323069Y-57657832D01*
X111888716Y-57432110D01*
X111418673Y-57295464D01*
X110931004Y-57253144D01*
X110444448Y-57306778D01*
X109977706Y-57454303D01*
X109596931Y-57657832D01*
X109460000Y-57900727D01*
X109460000Y-44398061D01*
X110565000Y-44398061D01*
X110565000Y-44601939D01*
X110604774Y-44801898D01*
X110682795Y-44990256D01*
X110796063Y-45159774D01*
X110940226Y-45303937D01*
X111109744Y-45417205D01*
X111298102Y-45495226D01*
X111498061Y-45535000D01*
X111701939Y-45535000D01*
X111901898Y-45495226D01*
X112090256Y-45417205D01*
X112259774Y-45303937D01*
X112403937Y-45159774D01*
X112517205Y-44990256D01*
X112595226Y-44801898D01*
X112635000Y-44601939D01*
X112635000Y-44398061D01*
X112595226Y-44198102D01*
X112517205Y-44009744D01*
X112403937Y-43840226D01*
X112259774Y-43696063D01*
X112090256Y-43582795D01*
X111901898Y-43504774D01*
X111701939Y-43465000D01*
X111498061Y-43465000D01*
X111298102Y-43504774D01*
X111109744Y-43582795D01*
X110940226Y-43696063D01*
X110796063Y-43840226D01*
X110682795Y-44009744D01*
X110604774Y-44198102D01*
X110565000Y-44398061D01*
X109460000Y-44398061D01*
X109460000Y-42632000D01*
X116245000Y-42632000D01*
X116245000Y-43182000D01*
X116291585Y-43400987D01*
X116379997Y-43606678D01*
X116506839Y-43791169D01*
X116667236Y-43947369D01*
X116855024Y-44069276D01*
X117078126Y-44149119D01*
X117253000Y-44022954D01*
X117253000Y-42632000D01*
X116245000Y-42632000D01*
X109460000Y-42632000D01*
X109460000Y-41828000D01*
X116245000Y-41828000D01*
X116245000Y-42378000D01*
X117253000Y-42378000D01*
X117253000Y-40987046D01*
X117507000Y-40987046D01*
X117507000Y-42378000D01*
X117527000Y-42378000D01*
X117527000Y-42632000D01*
X117507000Y-42632000D01*
X117507000Y-44022954D01*
X117681874Y-44149119D01*
X117904976Y-44069276D01*
X118092764Y-43947369D01*
X118253161Y-43791169D01*
X118380003Y-43606678D01*
X118468415Y-43400987D01*
X118515000Y-43182000D01*
X118515000Y-42921904D01*
X118529978Y-42928108D01*
X118715448Y-42965000D01*
X118904552Y-42965000D01*
X119090022Y-42928108D01*
X119264731Y-42855741D01*
X119421964Y-42750681D01*
X119555681Y-42616964D01*
X119660741Y-42459731D01*
X119733108Y-42285022D01*
X119770000Y-42099552D01*
X119770000Y-41910448D01*
X119733108Y-41724978D01*
X119660741Y-41550269D01*
X119555681Y-41393036D01*
X119421964Y-41259319D01*
X119264731Y-41154259D01*
X119090022Y-41081892D01*
X118904552Y-41045000D01*
X118715448Y-41045000D01*
X118529978Y-41081892D01*
X118355269Y-41154259D01*
X118254883Y-41221335D01*
X118253161Y-41218831D01*
X118092764Y-41062631D01*
X117904976Y-40940724D01*
X117681874Y-40860881D01*
X117507000Y-40987046D01*
X117253000Y-40987046D01*
X117078126Y-40860881D01*
X116855024Y-40940724D01*
X116667236Y-41062631D01*
X116506839Y-41218831D01*
X116379997Y-41403322D01*
X116291585Y-41609013D01*
X116245000Y-41828000D01*
X109460000Y-41828000D01*
X109460000Y-40517012D01*
X109586931Y-40742168D01*
X110021284Y-40967890D01*
X110491327Y-41104536D01*
X110978996Y-41146856D01*
X111465552Y-41093222D01*
X111932294Y-40945697D01*
X112313069Y-40742168D01*
X112511167Y-40390772D01*
X110950000Y-38829605D01*
X110935858Y-38843748D01*
X110756253Y-38664143D01*
X110770395Y-38650000D01*
X110756253Y-38635858D01*
X110935858Y-38456253D01*
X110950000Y-38470395D01*
X110964143Y-38456253D01*
X111143748Y-38635858D01*
X111129605Y-38650000D01*
X112690772Y-40211167D01*
X113042168Y-40013069D01*
X113267890Y-39578716D01*
X113404536Y-39108673D01*
X113446856Y-38621004D01*
X113428227Y-38452000D01*
X116245000Y-38452000D01*
X116245000Y-38752000D01*
X116291585Y-38970987D01*
X116379997Y-39176678D01*
X116506839Y-39361169D01*
X116667236Y-39517369D01*
X116855024Y-39639276D01*
X117078126Y-39719119D01*
X117253000Y-39592954D01*
X117253000Y-38452000D01*
X117507000Y-38452000D01*
X117507000Y-39592954D01*
X117681874Y-39719119D01*
X117904976Y-39639276D01*
X118092764Y-39517369D01*
X118253161Y-39361169D01*
X118380003Y-39176678D01*
X118468415Y-38970987D01*
X118515000Y-38752000D01*
X118515000Y-38452000D01*
X124885000Y-38452000D01*
X124885000Y-38752000D01*
X124931585Y-38970987D01*
X125019997Y-39176678D01*
X125146839Y-39361169D01*
X125307236Y-39517369D01*
X125495024Y-39639276D01*
X125718126Y-39719119D01*
X125893000Y-39592954D01*
X125893000Y-38452000D01*
X126147000Y-38452000D01*
X126147000Y-39592954D01*
X126321874Y-39719119D01*
X126544976Y-39639276D01*
X126732764Y-39517369D01*
X126893161Y-39361169D01*
X127020003Y-39176678D01*
X127108415Y-38970987D01*
X127155000Y-38752000D01*
X127155000Y-38452000D01*
X126147000Y-38452000D01*
X125893000Y-38452000D01*
X124885000Y-38452000D01*
X118515000Y-38452000D01*
X117507000Y-38452000D01*
X117253000Y-38452000D01*
X116245000Y-38452000D01*
X113428227Y-38452000D01*
X113393222Y-38134448D01*
X113245697Y-37667706D01*
X113042168Y-37286931D01*
X112817012Y-37160000D01*
X116639132Y-37160000D01*
X116506839Y-37288831D01*
G37*
%TD.AperFunction*%
D20*
X129950211Y-52410342D02*
X128895558Y-53464996D01*
X126931972Y-53464996D01*
X127787983Y-52608986D01*
X127835864Y-52599462D01*
X127992374Y-52534633D01*
X128133229Y-52440516D01*
X128253016Y-52320729D01*
X128347133Y-52179874D01*
X128411962Y-52023364D01*
X128445011Y-51857214D01*
X128445011Y-51687808D01*
X128411962Y-51521658D01*
X128347133Y-51365148D01*
X128253016Y-51224293D01*
X128133229Y-51104506D01*
X127992374Y-51010389D01*
X127835864Y-50945560D01*
X127669714Y-50912511D01*
X127500308Y-50912511D01*
X127334158Y-50945560D01*
X127177648Y-51010389D01*
X127036793Y-51104506D01*
X126917006Y-51224293D01*
X126822889Y-51365148D01*
X126758060Y-51521658D01*
X126748536Y-51569539D01*
X125853076Y-52465000D01*
X123636105Y-52465000D01*
X123600000Y-52461444D01*
X123563895Y-52465000D01*
X123455915Y-52475635D01*
X123317367Y-52517663D01*
X123189680Y-52585913D01*
X123077762Y-52677762D01*
X123054746Y-52705807D01*
X121994093Y-53766461D01*
X121804234Y-53766461D01*
X121835000Y-53611788D01*
X121835000Y-53388212D01*
X121791383Y-53168933D01*
X121705824Y-52962376D01*
X121581612Y-52776480D01*
X121423520Y-52618388D01*
X121237624Y-52494176D01*
X121031067Y-52408617D01*
X120811788Y-52365000D01*
X120588212Y-52365000D01*
X120368933Y-52408617D01*
X120162376Y-52494176D01*
X119976480Y-52618388D01*
X119818388Y-52776480D01*
X119694176Y-52962376D01*
X119608617Y-53168933D01*
X119565000Y-53388212D01*
X119565000Y-53611788D01*
X119595766Y-53766461D01*
X119018126Y-53766461D01*
X118977535Y-53739339D01*
X118821025Y-53674510D01*
X118654875Y-53641461D01*
X118485469Y-53641461D01*
X118319319Y-53674510D01*
X118162809Y-53739339D01*
X118021954Y-53833456D01*
X118021494Y-53833916D01*
X117920385Y-53766356D01*
X117763875Y-53701527D01*
X117597725Y-53668478D01*
X117428319Y-53668478D01*
X117262169Y-53701527D01*
X117105659Y-53766356D01*
X116964804Y-53860473D01*
X116845017Y-53980260D01*
X116750900Y-54121115D01*
X116686071Y-54277625D01*
X116653022Y-54443775D01*
X116653022Y-54613181D01*
X116686071Y-54779331D01*
X116750900Y-54935841D01*
X116845017Y-55076696D01*
X116858334Y-55090013D01*
X115460527Y-55090013D01*
X112709989Y-52339476D01*
X112709989Y-51960001D01*
X120930823Y-51960001D01*
X120966928Y-51963557D01*
X121003033Y-51960001D01*
X121111013Y-51949366D01*
X121249561Y-51907338D01*
X121377248Y-51839088D01*
X121489166Y-51747239D01*
X121512186Y-51719189D01*
X122169911Y-51061465D01*
X122217792Y-51051941D01*
X122374302Y-50987112D01*
X122422439Y-50954948D01*
X122479222Y-50949355D01*
X122617770Y-50907327D01*
X122745457Y-50839077D01*
X122857375Y-50747228D01*
X122880395Y-50719178D01*
X123714584Y-49884990D01*
X129234323Y-49884990D01*
X129270428Y-49888546D01*
X129306533Y-49884990D01*
X129414513Y-49874355D01*
X129553061Y-49832327D01*
X129680748Y-49764077D01*
X129792666Y-49672228D01*
X129815686Y-49644178D01*
X129950212Y-49509653D01*
X129950211Y-52410342D01*
%TA.AperFunction,Conductor*%
D21*
G36*
X129950211Y-52410342D02*
G01*
X128895558Y-53464996D01*
X126931972Y-53464996D01*
X127787983Y-52608986D01*
X127835864Y-52599462D01*
X127992374Y-52534633D01*
X128133229Y-52440516D01*
X128253016Y-52320729D01*
X128347133Y-52179874D01*
X128411962Y-52023364D01*
X128445011Y-51857214D01*
X128445011Y-51687808D01*
X128411962Y-51521658D01*
X128347133Y-51365148D01*
X128253016Y-51224293D01*
X128133229Y-51104506D01*
X127992374Y-51010389D01*
X127835864Y-50945560D01*
X127669714Y-50912511D01*
X127500308Y-50912511D01*
X127334158Y-50945560D01*
X127177648Y-51010389D01*
X127036793Y-51104506D01*
X126917006Y-51224293D01*
X126822889Y-51365148D01*
X126758060Y-51521658D01*
X126748536Y-51569539D01*
X125853076Y-52465000D01*
X123636105Y-52465000D01*
X123600000Y-52461444D01*
X123563895Y-52465000D01*
X123455915Y-52475635D01*
X123317367Y-52517663D01*
X123189680Y-52585913D01*
X123077762Y-52677762D01*
X123054746Y-52705807D01*
X121994093Y-53766461D01*
X121804234Y-53766461D01*
X121835000Y-53611788D01*
X121835000Y-53388212D01*
X121791383Y-53168933D01*
X121705824Y-52962376D01*
X121581612Y-52776480D01*
X121423520Y-52618388D01*
X121237624Y-52494176D01*
X121031067Y-52408617D01*
X120811788Y-52365000D01*
X120588212Y-52365000D01*
X120368933Y-52408617D01*
X120162376Y-52494176D01*
X119976480Y-52618388D01*
X119818388Y-52776480D01*
X119694176Y-52962376D01*
X119608617Y-53168933D01*
X119565000Y-53388212D01*
X119565000Y-53611788D01*
X119595766Y-53766461D01*
X119018126Y-53766461D01*
X118977535Y-53739339D01*
X118821025Y-53674510D01*
X118654875Y-53641461D01*
X118485469Y-53641461D01*
X118319319Y-53674510D01*
X118162809Y-53739339D01*
X118021954Y-53833456D01*
X118021494Y-53833916D01*
X117920385Y-53766356D01*
X117763875Y-53701527D01*
X117597725Y-53668478D01*
X117428319Y-53668478D01*
X117262169Y-53701527D01*
X117105659Y-53766356D01*
X116964804Y-53860473D01*
X116845017Y-53980260D01*
X116750900Y-54121115D01*
X116686071Y-54277625D01*
X116653022Y-54443775D01*
X116653022Y-54613181D01*
X116686071Y-54779331D01*
X116750900Y-54935841D01*
X116845017Y-55076696D01*
X116858334Y-55090013D01*
X115460527Y-55090013D01*
X112709989Y-52339476D01*
X112709989Y-51960001D01*
X120930823Y-51960001D01*
X120966928Y-51963557D01*
X121003033Y-51960001D01*
X121111013Y-51949366D01*
X121249561Y-51907338D01*
X121377248Y-51839088D01*
X121489166Y-51747239D01*
X121512186Y-51719189D01*
X122169911Y-51061465D01*
X122217792Y-51051941D01*
X122374302Y-50987112D01*
X122422439Y-50954948D01*
X122479222Y-50949355D01*
X122617770Y-50907327D01*
X122745457Y-50839077D01*
X122857375Y-50747228D01*
X122880395Y-50719178D01*
X123714584Y-49884990D01*
X129234323Y-49884990D01*
X129270428Y-49888546D01*
X129306533Y-49884990D01*
X129414513Y-49874355D01*
X129553061Y-49832327D01*
X129680748Y-49764077D01*
X129792666Y-49672228D01*
X129815686Y-49644178D01*
X129950212Y-49509653D01*
X129950211Y-52410342D01*
G37*
%TD.AperFunction*%
%TD*%
M02*
