%TF.GenerationSoftware,KiCad,Pcbnew,(5.1.7-0-10_14)*%
%TF.CreationDate,2020-10-21T09:17:32+08:00*%
%TF.ProjectId,STUSB4500_Breakout,53545553-4234-4353-9030-5f427265616b,rev?*%
%TF.SameCoordinates,Original*%
%TF.FileFunction,Copper,L3,Inr*%
%TF.FilePolarity,Positive*%
%FSLAX46Y46*%
G04 Gerber Fmt 4.6, Leading zero omitted, Abs format (unit mm)*
G04 Created by KiCad (PCBNEW (5.1.7-0-10_14)) date 2020-10-21 09:17:32*
%MOMM*%
%LPD*%
G01*
G04 APERTURE LIST*
%TA.AperFunction,ComponentPad*%
%ADD10O,1.000000X2.100000*%
%TD*%
%TA.AperFunction,ComponentPad*%
%ADD11O,1.000000X1.600000*%
%TD*%
%TA.AperFunction,ComponentPad*%
%ADD12C,3.700000*%
%TD*%
%TA.AperFunction,ComponentPad*%
%ADD13R,2.100000X2.100000*%
%TD*%
%TA.AperFunction,ComponentPad*%
%ADD14C,2.100000*%
%TD*%
%TA.AperFunction,ViaPad*%
%ADD15C,0.800000*%
%TD*%
%TA.AperFunction,ViaPad*%
%ADD16C,0.450000*%
%TD*%
%TA.AperFunction,Conductor*%
%ADD17C,0.254000*%
%TD*%
%TA.AperFunction,Conductor*%
%ADD18C,0.100000*%
%TD*%
G04 APERTURE END LIST*
D10*
%TO.N,GND*%
%TO.C,J1*%
X126020000Y-42505000D03*
X117380000Y-42505000D03*
D11*
X126020000Y-38325000D03*
X117380000Y-38325000D03*
%TD*%
D12*
%TO.N,GND*%
%TO.C,H4*%
X131960000Y-59700000D03*
%TD*%
%TO.N,GND*%
%TO.C,H3*%
X110960000Y-59750000D03*
%TD*%
%TO.N,GND*%
%TO.C,H2*%
X131960000Y-38700000D03*
%TD*%
%TO.N,GND*%
%TO.C,H1*%
X110950000Y-38650000D03*
%TD*%
D13*
%TO.N,VSNK*%
%TO.C,J4*%
X120660000Y-58100000D03*
D14*
%TO.N,GND*%
X123200000Y-58100000D03*
%TD*%
D15*
%TO.N,VSNK*%
X119800000Y-47600000D03*
X119000000Y-47600000D03*
X120600000Y-47600000D03*
X120600000Y-48400000D03*
X119800000Y-48400000D03*
X119000000Y-48400000D03*
X119000000Y-49200000D03*
X119800000Y-49200000D03*
X120600000Y-49200000D03*
X121400000Y-47600000D03*
X118200000Y-47600000D03*
X111600000Y-44500000D03*
%TO.N,GND*%
X123700000Y-50100000D03*
X124600000Y-50100000D03*
X125500000Y-50100000D03*
X123700000Y-51000000D03*
X124600000Y-51000000D03*
X125500000Y-51000000D03*
X124600000Y-51900000D03*
X125500000Y-51900000D03*
X123700000Y-51900000D03*
X112000000Y-46799994D03*
X132600000Y-53800006D03*
X129600000Y-51300000D03*
X112000000Y-54700000D03*
%TO.N,VCC*%
X130599999Y-56400001D03*
X132223078Y-49323080D03*
X112600000Y-48299996D03*
X132812500Y-42787506D03*
D16*
%TO.N,CC1*%
X125600000Y-48200000D03*
X129225010Y-41200000D03*
%TO.N,CC2*%
X124100000Y-48200000D03*
X128600004Y-39100000D03*
%TO.N,SDA*%
X121966939Y-50224990D03*
X112899992Y-49900000D03*
X130110208Y-48310210D03*
%TO.N,SCL*%
X122600000Y-49200000D03*
X129974990Y-47300000D03*
X112900000Y-50700000D03*
%TO.N,ATTACH*%
X120700000Y-53499998D03*
%TO.N,ALERT*%
X129000000Y-56900000D03*
%TO.N,GPIO*%
X124900014Y-54800000D03*
%TO.N,Net-(R8-Pad1)*%
X126200000Y-54199996D03*
X129100000Y-46100000D03*
%TO.N,PDO3*%
X123400000Y-54174990D03*
X117513022Y-54528478D03*
%TO.N,PDO2*%
X127585011Y-51772511D03*
X118570172Y-54501461D03*
%TD*%
D17*
%TO.N,VSNK*%
X116573552Y-37218551D02*
X116431717Y-37391377D01*
X116326324Y-37588553D01*
X116261423Y-37802501D01*
X116245000Y-37969248D01*
X116245000Y-38680751D01*
X116261423Y-38847498D01*
X116326324Y-39061446D01*
X116431716Y-39258623D01*
X116573551Y-39431449D01*
X116746377Y-39573284D01*
X116943553Y-39678676D01*
X117157501Y-39743577D01*
X117380000Y-39765491D01*
X117602498Y-39743577D01*
X117816446Y-39678676D01*
X118013623Y-39573284D01*
X118186449Y-39431449D01*
X118328284Y-39258623D01*
X118433676Y-39061447D01*
X118498577Y-38847499D01*
X118515000Y-38680752D01*
X118515000Y-37969249D01*
X118498577Y-37802502D01*
X118433676Y-37588554D01*
X118328284Y-37391377D01*
X118186449Y-37218551D01*
X118115105Y-37160000D01*
X125284896Y-37160000D01*
X125213552Y-37218551D01*
X125071717Y-37391377D01*
X124966324Y-37588553D01*
X124901423Y-37802501D01*
X124885000Y-37969248D01*
X124885000Y-38680751D01*
X124901423Y-38847498D01*
X124966324Y-39061446D01*
X125071716Y-39258623D01*
X125213551Y-39431449D01*
X125386377Y-39573284D01*
X125583553Y-39678676D01*
X125797501Y-39743577D01*
X126020000Y-39765491D01*
X126242498Y-39743577D01*
X126456446Y-39678676D01*
X126653623Y-39573284D01*
X126826449Y-39431449D01*
X126968284Y-39258623D01*
X127073676Y-39061447D01*
X127087675Y-39015297D01*
X127740004Y-39015297D01*
X127740004Y-39184703D01*
X127773053Y-39350853D01*
X127837882Y-39507363D01*
X127931999Y-39648218D01*
X128051786Y-39768005D01*
X128192641Y-39862122D01*
X128349151Y-39926951D01*
X128515301Y-39960000D01*
X128684707Y-39960000D01*
X128850857Y-39926951D01*
X129007367Y-39862122D01*
X129148222Y-39768005D01*
X129268009Y-39648218D01*
X129362126Y-39507363D01*
X129426955Y-39350853D01*
X129460004Y-39184703D01*
X129460004Y-39015297D01*
X129426955Y-38849147D01*
X129362126Y-38692637D01*
X129268009Y-38551782D01*
X129148222Y-38431995D01*
X129007367Y-38337878D01*
X128850857Y-38273049D01*
X128684707Y-38240000D01*
X128515301Y-38240000D01*
X128349151Y-38273049D01*
X128192641Y-38337878D01*
X128051786Y-38431995D01*
X127931999Y-38551782D01*
X127837882Y-38692637D01*
X127773053Y-38849147D01*
X127740004Y-39015297D01*
X127087675Y-39015297D01*
X127138577Y-38847499D01*
X127155000Y-38680752D01*
X127155000Y-37969249D01*
X127138577Y-37802502D01*
X127073676Y-37588554D01*
X126968284Y-37391377D01*
X126826449Y-37218551D01*
X126755105Y-37160000D01*
X130000311Y-37160000D01*
X129757821Y-37522911D01*
X129570497Y-37975152D01*
X129475000Y-38455249D01*
X129475000Y-38944751D01*
X129570497Y-39424848D01*
X129757821Y-39877089D01*
X130029774Y-40284095D01*
X130375905Y-40630226D01*
X130782911Y-40902179D01*
X131235152Y-41089503D01*
X131715249Y-41185000D01*
X132204751Y-41185000D01*
X132684848Y-41089503D01*
X133137089Y-40902179D01*
X133500000Y-40659689D01*
X133500000Y-42011295D01*
X133472274Y-41983569D01*
X133302756Y-41870301D01*
X133114398Y-41792280D01*
X132914439Y-41752506D01*
X132710561Y-41752506D01*
X132510602Y-41792280D01*
X132322244Y-41870301D01*
X132152726Y-41983569D01*
X132008563Y-42127732D01*
X131895295Y-42297250D01*
X131817274Y-42485608D01*
X131777500Y-42685567D01*
X131777500Y-42889445D01*
X131817274Y-43089404D01*
X131895295Y-43277762D01*
X132008563Y-43447280D01*
X132152726Y-43591443D01*
X132322244Y-43704711D01*
X132510602Y-43782732D01*
X132710561Y-43822506D01*
X132914439Y-43822506D01*
X133114398Y-43782732D01*
X133302756Y-43704711D01*
X133472274Y-43591443D01*
X133500000Y-43563717D01*
X133500001Y-53284002D01*
X133403937Y-53140232D01*
X133259774Y-52996069D01*
X133090256Y-52882801D01*
X132901898Y-52804780D01*
X132701939Y-52765006D01*
X132498061Y-52765006D01*
X132298102Y-52804780D01*
X132109744Y-52882801D01*
X131940226Y-52996069D01*
X131796063Y-53140232D01*
X131682795Y-53309750D01*
X131604774Y-53498108D01*
X131565000Y-53698067D01*
X131565000Y-53901945D01*
X131604774Y-54101904D01*
X131682795Y-54290262D01*
X131796063Y-54459780D01*
X131940226Y-54603943D01*
X132109744Y-54717211D01*
X132298102Y-54795232D01*
X132498061Y-54835006D01*
X132701939Y-54835006D01*
X132901898Y-54795232D01*
X133090256Y-54717211D01*
X133259774Y-54603943D01*
X133403937Y-54459780D01*
X133500001Y-54316010D01*
X133500001Y-57740311D01*
X133137089Y-57497821D01*
X132684848Y-57310497D01*
X132204751Y-57215000D01*
X131715249Y-57215000D01*
X131235152Y-57310497D01*
X130782911Y-57497821D01*
X130375905Y-57769774D01*
X130029774Y-58115905D01*
X129757821Y-58522911D01*
X129570497Y-58975152D01*
X129475000Y-59455249D01*
X129475000Y-59944751D01*
X129570497Y-60424848D01*
X129757821Y-60877089D01*
X130000311Y-61240000D01*
X112953098Y-61240000D01*
X113162179Y-60927089D01*
X113349503Y-60474848D01*
X113445000Y-59994751D01*
X113445000Y-59505249D01*
X113374337Y-59150000D01*
X118971928Y-59150000D01*
X118984188Y-59274482D01*
X119020498Y-59394180D01*
X119079463Y-59504494D01*
X119158815Y-59601185D01*
X119255506Y-59680537D01*
X119365820Y-59739502D01*
X119485518Y-59775812D01*
X119610000Y-59788072D01*
X119628250Y-59785000D01*
X119787000Y-59626250D01*
X119787000Y-58973000D01*
X119133750Y-58973000D01*
X118975000Y-59131750D01*
X118971928Y-59150000D01*
X113374337Y-59150000D01*
X113349503Y-59025152D01*
X113162179Y-58572911D01*
X112890226Y-58165905D01*
X112658363Y-57934042D01*
X121515000Y-57934042D01*
X121515000Y-58265958D01*
X121553000Y-58456996D01*
X121553000Y-58973000D01*
X121533000Y-58973000D01*
X121533000Y-59626250D01*
X121691750Y-59785000D01*
X121710000Y-59788072D01*
X121834482Y-59775812D01*
X121954180Y-59739502D01*
X122064494Y-59680537D01*
X122161185Y-59601185D01*
X122240537Y-59504494D01*
X122248042Y-59490454D01*
X122401853Y-59593228D01*
X122708504Y-59720246D01*
X123034042Y-59785000D01*
X123365958Y-59785000D01*
X123691496Y-59720246D01*
X123998147Y-59593228D01*
X124274125Y-59408825D01*
X124508825Y-59174125D01*
X124693228Y-58898147D01*
X124820246Y-58591496D01*
X124885000Y-58265958D01*
X124885000Y-57934042D01*
X124820246Y-57608504D01*
X124693228Y-57301853D01*
X124508825Y-57025875D01*
X124298247Y-56815297D01*
X128140000Y-56815297D01*
X128140000Y-56984703D01*
X128173049Y-57150853D01*
X128237878Y-57307363D01*
X128331995Y-57448218D01*
X128451782Y-57568005D01*
X128592637Y-57662122D01*
X128749147Y-57726951D01*
X128915297Y-57760000D01*
X129084703Y-57760000D01*
X129250853Y-57726951D01*
X129407363Y-57662122D01*
X129548218Y-57568005D01*
X129668005Y-57448218D01*
X129762122Y-57307363D01*
X129826951Y-57150853D01*
X129836937Y-57100650D01*
X129940225Y-57203938D01*
X130109743Y-57317206D01*
X130298101Y-57395227D01*
X130498060Y-57435001D01*
X130701938Y-57435001D01*
X130901897Y-57395227D01*
X131090255Y-57317206D01*
X131259773Y-57203938D01*
X131403936Y-57059775D01*
X131517204Y-56890257D01*
X131595225Y-56701899D01*
X131634999Y-56501940D01*
X131634999Y-56298062D01*
X131595225Y-56098103D01*
X131517204Y-55909745D01*
X131403936Y-55740227D01*
X131259773Y-55596064D01*
X131090255Y-55482796D01*
X130901897Y-55404775D01*
X130701938Y-55365001D01*
X130498060Y-55365001D01*
X130298101Y-55404775D01*
X130109743Y-55482796D01*
X129940225Y-55596064D01*
X129796062Y-55740227D01*
X129682794Y-55909745D01*
X129604773Y-56098103D01*
X129573176Y-56256953D01*
X129548218Y-56231995D01*
X129407363Y-56137878D01*
X129250853Y-56073049D01*
X129084703Y-56040000D01*
X128915297Y-56040000D01*
X128749147Y-56073049D01*
X128592637Y-56137878D01*
X128451782Y-56231995D01*
X128331995Y-56351782D01*
X128237878Y-56492637D01*
X128173049Y-56649147D01*
X128140000Y-56815297D01*
X124298247Y-56815297D01*
X124274125Y-56791175D01*
X123998147Y-56606772D01*
X123691496Y-56479754D01*
X123365958Y-56415000D01*
X123034042Y-56415000D01*
X122708504Y-56479754D01*
X122401853Y-56606772D01*
X122248042Y-56709546D01*
X122240537Y-56695506D01*
X122161185Y-56598815D01*
X122064494Y-56519463D01*
X121954180Y-56460498D01*
X121834482Y-56424188D01*
X121710000Y-56411928D01*
X121691750Y-56415000D01*
X121533000Y-56573750D01*
X121533000Y-57227000D01*
X121553000Y-57227000D01*
X121553000Y-57743004D01*
X121515000Y-57934042D01*
X112658363Y-57934042D01*
X112544095Y-57819774D01*
X112137089Y-57547821D01*
X111684848Y-57360497D01*
X111204751Y-57265000D01*
X110715249Y-57265000D01*
X110235152Y-57360497D01*
X109782911Y-57547821D01*
X109460000Y-57763583D01*
X109460000Y-57050000D01*
X118971928Y-57050000D01*
X118975000Y-57068250D01*
X119133750Y-57227000D01*
X119787000Y-57227000D01*
X119787000Y-56573750D01*
X119628250Y-56415000D01*
X119610000Y-56411928D01*
X119485518Y-56424188D01*
X119365820Y-56460498D01*
X119255506Y-56519463D01*
X119158815Y-56598815D01*
X119079463Y-56695506D01*
X119020498Y-56805820D01*
X118984188Y-56925518D01*
X118971928Y-57050000D01*
X109460000Y-57050000D01*
X109460000Y-54598061D01*
X110965000Y-54598061D01*
X110965000Y-54801939D01*
X111004774Y-55001898D01*
X111082795Y-55190256D01*
X111196063Y-55359774D01*
X111340226Y-55503937D01*
X111509744Y-55617205D01*
X111698102Y-55695226D01*
X111898061Y-55735000D01*
X112101939Y-55735000D01*
X112301898Y-55695226D01*
X112490256Y-55617205D01*
X112659774Y-55503937D01*
X112803937Y-55359774D01*
X112917205Y-55190256D01*
X112995226Y-55001898D01*
X113035000Y-54801939D01*
X113035000Y-54598061D01*
X113004311Y-54443775D01*
X116653022Y-54443775D01*
X116653022Y-54613181D01*
X116686071Y-54779331D01*
X116750900Y-54935841D01*
X116845017Y-55076696D01*
X116964804Y-55196483D01*
X117105659Y-55290600D01*
X117262169Y-55355429D01*
X117428319Y-55388478D01*
X117597725Y-55388478D01*
X117763875Y-55355429D01*
X117920385Y-55290600D01*
X118061240Y-55196483D01*
X118061700Y-55196023D01*
X118162809Y-55263583D01*
X118319319Y-55328412D01*
X118485469Y-55361461D01*
X118654875Y-55361461D01*
X118821025Y-55328412D01*
X118977535Y-55263583D01*
X119118390Y-55169466D01*
X119238177Y-55049679D01*
X119332294Y-54908824D01*
X119397123Y-54752314D01*
X119430172Y-54586164D01*
X119430172Y-54416758D01*
X119397123Y-54250608D01*
X119332294Y-54094098D01*
X119238177Y-53953243D01*
X119118390Y-53833456D01*
X118977535Y-53739339D01*
X118821025Y-53674510D01*
X118654875Y-53641461D01*
X118485469Y-53641461D01*
X118319319Y-53674510D01*
X118162809Y-53739339D01*
X118021954Y-53833456D01*
X118021494Y-53833916D01*
X117920385Y-53766356D01*
X117763875Y-53701527D01*
X117597725Y-53668478D01*
X117428319Y-53668478D01*
X117262169Y-53701527D01*
X117105659Y-53766356D01*
X116964804Y-53860473D01*
X116845017Y-53980260D01*
X116750900Y-54121115D01*
X116686071Y-54277625D01*
X116653022Y-54443775D01*
X113004311Y-54443775D01*
X112995226Y-54398102D01*
X112917205Y-54209744D01*
X112803937Y-54040226D01*
X112659774Y-53896063D01*
X112490256Y-53782795D01*
X112301898Y-53704774D01*
X112101939Y-53665000D01*
X111898061Y-53665000D01*
X111698102Y-53704774D01*
X111509744Y-53782795D01*
X111340226Y-53896063D01*
X111196063Y-54040226D01*
X111082795Y-54209744D01*
X111004774Y-54398102D01*
X110965000Y-54598061D01*
X109460000Y-54598061D01*
X109460000Y-53415295D01*
X119840000Y-53415295D01*
X119840000Y-53584701D01*
X119873049Y-53750851D01*
X119937878Y-53907361D01*
X120031995Y-54048216D01*
X120151782Y-54168003D01*
X120292637Y-54262120D01*
X120449147Y-54326949D01*
X120615297Y-54359998D01*
X120784703Y-54359998D01*
X120950853Y-54326949D01*
X121107363Y-54262120D01*
X121248218Y-54168003D01*
X121325934Y-54090287D01*
X122540000Y-54090287D01*
X122540000Y-54259693D01*
X122573049Y-54425843D01*
X122637878Y-54582353D01*
X122731995Y-54723208D01*
X122851782Y-54842995D01*
X122992637Y-54937112D01*
X123149147Y-55001941D01*
X123315297Y-55034990D01*
X123484703Y-55034990D01*
X123650853Y-55001941D01*
X123807363Y-54937112D01*
X123948218Y-54842995D01*
X124040014Y-54751199D01*
X124040014Y-54884703D01*
X124073063Y-55050853D01*
X124137892Y-55207363D01*
X124232009Y-55348218D01*
X124351796Y-55468005D01*
X124492651Y-55562122D01*
X124649161Y-55626951D01*
X124815311Y-55660000D01*
X124984717Y-55660000D01*
X125150867Y-55626951D01*
X125307377Y-55562122D01*
X125448232Y-55468005D01*
X125568019Y-55348218D01*
X125662136Y-55207363D01*
X125726965Y-55050853D01*
X125750249Y-54933795D01*
X125792637Y-54962118D01*
X125949147Y-55026947D01*
X126115297Y-55059996D01*
X126284703Y-55059996D01*
X126450853Y-55026947D01*
X126607363Y-54962118D01*
X126748218Y-54868001D01*
X126868005Y-54748214D01*
X126962122Y-54607359D01*
X127026951Y-54450849D01*
X127060000Y-54284699D01*
X127060000Y-54115293D01*
X127026951Y-53949143D01*
X126962122Y-53792633D01*
X126868005Y-53651778D01*
X126748218Y-53531991D01*
X126607363Y-53437874D01*
X126450853Y-53373045D01*
X126284703Y-53339996D01*
X126115297Y-53339996D01*
X125949147Y-53373045D01*
X125792637Y-53437874D01*
X125651782Y-53531991D01*
X125531995Y-53651778D01*
X125437878Y-53792633D01*
X125373049Y-53949143D01*
X125349765Y-54066201D01*
X125307377Y-54037878D01*
X125150867Y-53973049D01*
X124984717Y-53940000D01*
X124815311Y-53940000D01*
X124649161Y-53973049D01*
X124492651Y-54037878D01*
X124351796Y-54131995D01*
X124260000Y-54223791D01*
X124260000Y-54090287D01*
X124226951Y-53924137D01*
X124162122Y-53767627D01*
X124068005Y-53626772D01*
X123948218Y-53506985D01*
X123807363Y-53412868D01*
X123650853Y-53348039D01*
X123484703Y-53314990D01*
X123315297Y-53314990D01*
X123149147Y-53348039D01*
X122992637Y-53412868D01*
X122851782Y-53506985D01*
X122731995Y-53626772D01*
X122637878Y-53767627D01*
X122573049Y-53924137D01*
X122540000Y-54090287D01*
X121325934Y-54090287D01*
X121368005Y-54048216D01*
X121462122Y-53907361D01*
X121526951Y-53750851D01*
X121560000Y-53584701D01*
X121560000Y-53415295D01*
X121526951Y-53249145D01*
X121462122Y-53092635D01*
X121368005Y-52951780D01*
X121248218Y-52831993D01*
X121107363Y-52737876D01*
X120950853Y-52673047D01*
X120784703Y-52639998D01*
X120615297Y-52639998D01*
X120449147Y-52673047D01*
X120292637Y-52737876D01*
X120151782Y-52831993D01*
X120031995Y-52951780D01*
X119937878Y-53092635D01*
X119873049Y-53249145D01*
X119840000Y-53415295D01*
X109460000Y-53415295D01*
X109460000Y-46698055D01*
X110965000Y-46698055D01*
X110965000Y-46901933D01*
X111004774Y-47101892D01*
X111082795Y-47290250D01*
X111196063Y-47459768D01*
X111340226Y-47603931D01*
X111509744Y-47717199D01*
X111693712Y-47793402D01*
X111682795Y-47809740D01*
X111604774Y-47998098D01*
X111565000Y-48198057D01*
X111565000Y-48401935D01*
X111604774Y-48601894D01*
X111682795Y-48790252D01*
X111796063Y-48959770D01*
X111940226Y-49103933D01*
X112109744Y-49217201D01*
X112291346Y-49292423D01*
X112231987Y-49351782D01*
X112137870Y-49492637D01*
X112073041Y-49649147D01*
X112039992Y-49815297D01*
X112039992Y-49984703D01*
X112073041Y-50150853D01*
X112134824Y-50300010D01*
X112073049Y-50449147D01*
X112040000Y-50615297D01*
X112040000Y-50784703D01*
X112073049Y-50950853D01*
X112137878Y-51107363D01*
X112231995Y-51248218D01*
X112351782Y-51368005D01*
X112492637Y-51462122D01*
X112649147Y-51526951D01*
X112815297Y-51560000D01*
X112984703Y-51560000D01*
X113150853Y-51526951D01*
X113307363Y-51462122D01*
X113448218Y-51368005D01*
X113568005Y-51248218D01*
X113662122Y-51107363D01*
X113726951Y-50950853D01*
X113760000Y-50784703D01*
X113760000Y-50615297D01*
X113726951Y-50449147D01*
X113665168Y-50299990D01*
X113726943Y-50150853D01*
X113729044Y-50140287D01*
X121106939Y-50140287D01*
X121106939Y-50309693D01*
X121139988Y-50475843D01*
X121204817Y-50632353D01*
X121298934Y-50773208D01*
X121418721Y-50892995D01*
X121559576Y-50987112D01*
X121716086Y-51051941D01*
X121882236Y-51084990D01*
X122051642Y-51084990D01*
X122217792Y-51051941D01*
X122374302Y-50987112D01*
X122515157Y-50892995D01*
X122634944Y-50773208D01*
X122729061Y-50632353D01*
X122764647Y-50546442D01*
X122766120Y-50550000D01*
X122704774Y-50698102D01*
X122665000Y-50898061D01*
X122665000Y-51101939D01*
X122704774Y-51301898D01*
X122766120Y-51450000D01*
X122704774Y-51598102D01*
X122665000Y-51798061D01*
X122665000Y-52001939D01*
X122704774Y-52201898D01*
X122782795Y-52390256D01*
X122896063Y-52559774D01*
X123040226Y-52703937D01*
X123209744Y-52817205D01*
X123398102Y-52895226D01*
X123598061Y-52935000D01*
X123801939Y-52935000D01*
X124001898Y-52895226D01*
X124150000Y-52833880D01*
X124298102Y-52895226D01*
X124498061Y-52935000D01*
X124701939Y-52935000D01*
X124901898Y-52895226D01*
X125050000Y-52833880D01*
X125198102Y-52895226D01*
X125398061Y-52935000D01*
X125601939Y-52935000D01*
X125801898Y-52895226D01*
X125990256Y-52817205D01*
X126159774Y-52703937D01*
X126303937Y-52559774D01*
X126417205Y-52390256D01*
X126495226Y-52201898D01*
X126535000Y-52001939D01*
X126535000Y-51798061D01*
X126513070Y-51687808D01*
X126725011Y-51687808D01*
X126725011Y-51857214D01*
X126758060Y-52023364D01*
X126822889Y-52179874D01*
X126917006Y-52320729D01*
X127036793Y-52440516D01*
X127177648Y-52534633D01*
X127334158Y-52599462D01*
X127500308Y-52632511D01*
X127669714Y-52632511D01*
X127835864Y-52599462D01*
X127992374Y-52534633D01*
X128133229Y-52440516D01*
X128253016Y-52320729D01*
X128347133Y-52179874D01*
X128411962Y-52023364D01*
X128445011Y-51857214D01*
X128445011Y-51687808D01*
X128411962Y-51521658D01*
X128347133Y-51365148D01*
X128253016Y-51224293D01*
X128226784Y-51198061D01*
X128565000Y-51198061D01*
X128565000Y-51401939D01*
X128604774Y-51601898D01*
X128682795Y-51790256D01*
X128796063Y-51959774D01*
X128940226Y-52103937D01*
X129109744Y-52217205D01*
X129298102Y-52295226D01*
X129498061Y-52335000D01*
X129701939Y-52335000D01*
X129901898Y-52295226D01*
X130090256Y-52217205D01*
X130259774Y-52103937D01*
X130403937Y-51959774D01*
X130517205Y-51790256D01*
X130595226Y-51601898D01*
X130635000Y-51401939D01*
X130635000Y-51198061D01*
X130595226Y-50998102D01*
X130517205Y-50809744D01*
X130403937Y-50640226D01*
X130259774Y-50496063D01*
X130090256Y-50382795D01*
X129901898Y-50304774D01*
X129701939Y-50265000D01*
X129498061Y-50265000D01*
X129298102Y-50304774D01*
X129109744Y-50382795D01*
X128940226Y-50496063D01*
X128796063Y-50640226D01*
X128682795Y-50809744D01*
X128604774Y-50998102D01*
X128565000Y-51198061D01*
X128226784Y-51198061D01*
X128133229Y-51104506D01*
X127992374Y-51010389D01*
X127835864Y-50945560D01*
X127669714Y-50912511D01*
X127500308Y-50912511D01*
X127334158Y-50945560D01*
X127177648Y-51010389D01*
X127036793Y-51104506D01*
X126917006Y-51224293D01*
X126822889Y-51365148D01*
X126758060Y-51521658D01*
X126725011Y-51687808D01*
X126513070Y-51687808D01*
X126495226Y-51598102D01*
X126433880Y-51450000D01*
X126495226Y-51301898D01*
X126535000Y-51101939D01*
X126535000Y-50898061D01*
X126495226Y-50698102D01*
X126433880Y-50550000D01*
X126495226Y-50401898D01*
X126535000Y-50201939D01*
X126535000Y-49998061D01*
X126495226Y-49798102D01*
X126417205Y-49609744D01*
X126303937Y-49440226D01*
X126159774Y-49296063D01*
X126047645Y-49221141D01*
X131188078Y-49221141D01*
X131188078Y-49425019D01*
X131227852Y-49624978D01*
X131305873Y-49813336D01*
X131419141Y-49982854D01*
X131563304Y-50127017D01*
X131732822Y-50240285D01*
X131921180Y-50318306D01*
X132121139Y-50358080D01*
X132325017Y-50358080D01*
X132524976Y-50318306D01*
X132713334Y-50240285D01*
X132882852Y-50127017D01*
X133027015Y-49982854D01*
X133140283Y-49813336D01*
X133218304Y-49624978D01*
X133258078Y-49425019D01*
X133258078Y-49221141D01*
X133218304Y-49021182D01*
X133140283Y-48832824D01*
X133027015Y-48663306D01*
X132882852Y-48519143D01*
X132713334Y-48405875D01*
X132524976Y-48327854D01*
X132325017Y-48288080D01*
X132121139Y-48288080D01*
X131921180Y-48327854D01*
X131732822Y-48405875D01*
X131563304Y-48519143D01*
X131419141Y-48663306D01*
X131305873Y-48832824D01*
X131227852Y-49021182D01*
X131188078Y-49221141D01*
X126047645Y-49221141D01*
X125990256Y-49182795D01*
X125801898Y-49104774D01*
X125601939Y-49065000D01*
X125398061Y-49065000D01*
X125198102Y-49104774D01*
X125050000Y-49166120D01*
X124901898Y-49104774D01*
X124701939Y-49065000D01*
X124498061Y-49065000D01*
X124298102Y-49104774D01*
X124150000Y-49166120D01*
X124001898Y-49104774D01*
X123801939Y-49065000D01*
X123598061Y-49065000D01*
X123455631Y-49093331D01*
X123426951Y-48949147D01*
X123362122Y-48792637D01*
X123268005Y-48651782D01*
X123148218Y-48531995D01*
X123007363Y-48437878D01*
X122850853Y-48373049D01*
X122684703Y-48340000D01*
X122515297Y-48340000D01*
X122349147Y-48373049D01*
X122192637Y-48437878D01*
X122051782Y-48531995D01*
X121931995Y-48651782D01*
X121837878Y-48792637D01*
X121773049Y-48949147D01*
X121740000Y-49115297D01*
X121740000Y-49284703D01*
X121760776Y-49389150D01*
X121716086Y-49398039D01*
X121559576Y-49462868D01*
X121418721Y-49556985D01*
X121298934Y-49676772D01*
X121204817Y-49817627D01*
X121139988Y-49974137D01*
X121106939Y-50140287D01*
X113729044Y-50140287D01*
X113759992Y-49984703D01*
X113759992Y-49815297D01*
X113726943Y-49649147D01*
X113662114Y-49492637D01*
X113567997Y-49351782D01*
X113448210Y-49231995D01*
X113307355Y-49137878D01*
X113246622Y-49112721D01*
X113259774Y-49103933D01*
X113403937Y-48959770D01*
X113517205Y-48790252D01*
X113595226Y-48601894D01*
X113635000Y-48401935D01*
X113635000Y-48198057D01*
X113618539Y-48115297D01*
X123240000Y-48115297D01*
X123240000Y-48284703D01*
X123273049Y-48450853D01*
X123337878Y-48607363D01*
X123431995Y-48748218D01*
X123551782Y-48868005D01*
X123692637Y-48962122D01*
X123849147Y-49026951D01*
X124015297Y-49060000D01*
X124184703Y-49060000D01*
X124350853Y-49026951D01*
X124507363Y-48962122D01*
X124648218Y-48868005D01*
X124768005Y-48748218D01*
X124850000Y-48625505D01*
X124931995Y-48748218D01*
X125051782Y-48868005D01*
X125192637Y-48962122D01*
X125349147Y-49026951D01*
X125515297Y-49060000D01*
X125684703Y-49060000D01*
X125850853Y-49026951D01*
X126007363Y-48962122D01*
X126148218Y-48868005D01*
X126268005Y-48748218D01*
X126362122Y-48607363D01*
X126426951Y-48450853D01*
X126460000Y-48284703D01*
X126460000Y-48115297D01*
X126426951Y-47949147D01*
X126362122Y-47792637D01*
X126268005Y-47651782D01*
X126148218Y-47531995D01*
X126007363Y-47437878D01*
X125850853Y-47373049D01*
X125684703Y-47340000D01*
X125515297Y-47340000D01*
X125349147Y-47373049D01*
X125192637Y-47437878D01*
X125051782Y-47531995D01*
X124931995Y-47651782D01*
X124850000Y-47774495D01*
X124768005Y-47651782D01*
X124648218Y-47531995D01*
X124507363Y-47437878D01*
X124350853Y-47373049D01*
X124184703Y-47340000D01*
X124015297Y-47340000D01*
X123849147Y-47373049D01*
X123692637Y-47437878D01*
X123551782Y-47531995D01*
X123431995Y-47651782D01*
X123337878Y-47792637D01*
X123273049Y-47949147D01*
X123240000Y-48115297D01*
X113618539Y-48115297D01*
X113595226Y-47998098D01*
X113517205Y-47809740D01*
X113403937Y-47640222D01*
X113259774Y-47496059D01*
X113090256Y-47382791D01*
X112906288Y-47306588D01*
X112917205Y-47290250D01*
X112995226Y-47101892D01*
X113035000Y-46901933D01*
X113035000Y-46698055D01*
X112995226Y-46498096D01*
X112917205Y-46309738D01*
X112803937Y-46140220D01*
X112679014Y-46015297D01*
X128240000Y-46015297D01*
X128240000Y-46184703D01*
X128273049Y-46350853D01*
X128337878Y-46507363D01*
X128431995Y-46648218D01*
X128551782Y-46768005D01*
X128692637Y-46862122D01*
X128849147Y-46926951D01*
X129015297Y-46960000D01*
X129184703Y-46960000D01*
X129184989Y-46959943D01*
X129148039Y-47049147D01*
X129114990Y-47215297D01*
X129114990Y-47384703D01*
X129148039Y-47550853D01*
X129212868Y-47707363D01*
X129306985Y-47848218D01*
X129353505Y-47894738D01*
X129348086Y-47902847D01*
X129283257Y-48059357D01*
X129250208Y-48225507D01*
X129250208Y-48394913D01*
X129283257Y-48561063D01*
X129348086Y-48717573D01*
X129442203Y-48858428D01*
X129561990Y-48978215D01*
X129702845Y-49072332D01*
X129859355Y-49137161D01*
X130025505Y-49170210D01*
X130194911Y-49170210D01*
X130361061Y-49137161D01*
X130517571Y-49072332D01*
X130658426Y-48978215D01*
X130778213Y-48858428D01*
X130872330Y-48717573D01*
X130937159Y-48561063D01*
X130970208Y-48394913D01*
X130970208Y-48225507D01*
X130937159Y-48059357D01*
X130872330Y-47902847D01*
X130778213Y-47761992D01*
X130731693Y-47715472D01*
X130737112Y-47707363D01*
X130801941Y-47550853D01*
X130834990Y-47384703D01*
X130834990Y-47215297D01*
X130801941Y-47049147D01*
X130737112Y-46892637D01*
X130642995Y-46751782D01*
X130523208Y-46631995D01*
X130382353Y-46537878D01*
X130225843Y-46473049D01*
X130059693Y-46440000D01*
X129890287Y-46440000D01*
X129890001Y-46440057D01*
X129926951Y-46350853D01*
X129960000Y-46184703D01*
X129960000Y-46015297D01*
X129926951Y-45849147D01*
X129862122Y-45692637D01*
X129768005Y-45551782D01*
X129648218Y-45431995D01*
X129507363Y-45337878D01*
X129350853Y-45273049D01*
X129184703Y-45240000D01*
X129015297Y-45240000D01*
X128849147Y-45273049D01*
X128692637Y-45337878D01*
X128551782Y-45431995D01*
X128431995Y-45551782D01*
X128337878Y-45692637D01*
X128273049Y-45849147D01*
X128240000Y-46015297D01*
X112679014Y-46015297D01*
X112659774Y-45996057D01*
X112490256Y-45882789D01*
X112301898Y-45804768D01*
X112101939Y-45764994D01*
X111898061Y-45764994D01*
X111698102Y-45804768D01*
X111509744Y-45882789D01*
X111340226Y-45996057D01*
X111196063Y-46140220D01*
X111082795Y-46309738D01*
X111004774Y-46498096D01*
X110965000Y-46698055D01*
X109460000Y-46698055D01*
X109460000Y-41899248D01*
X116245000Y-41899248D01*
X116245000Y-43110751D01*
X116261423Y-43277498D01*
X116326324Y-43491446D01*
X116431716Y-43688623D01*
X116573551Y-43861449D01*
X116746377Y-44003284D01*
X116943553Y-44108676D01*
X117157501Y-44173577D01*
X117380000Y-44195491D01*
X117602498Y-44173577D01*
X117816446Y-44108676D01*
X118013623Y-44003284D01*
X118186449Y-43861449D01*
X118328284Y-43688623D01*
X118433676Y-43491447D01*
X118498577Y-43277499D01*
X118515000Y-43110752D01*
X118515000Y-42921904D01*
X118529978Y-42928108D01*
X118715448Y-42965000D01*
X118904552Y-42965000D01*
X119090022Y-42928108D01*
X119264731Y-42855741D01*
X119421964Y-42750681D01*
X119555681Y-42616964D01*
X119660741Y-42459731D01*
X119733108Y-42285022D01*
X119770000Y-42099552D01*
X119770000Y-41910448D01*
X123630000Y-41910448D01*
X123630000Y-42099552D01*
X123666892Y-42285022D01*
X123739259Y-42459731D01*
X123844319Y-42616964D01*
X123978036Y-42750681D01*
X124135269Y-42855741D01*
X124309978Y-42928108D01*
X124495448Y-42965000D01*
X124684552Y-42965000D01*
X124870022Y-42928108D01*
X124885000Y-42921904D01*
X124885000Y-43110751D01*
X124901423Y-43277498D01*
X124966324Y-43491446D01*
X125071716Y-43688623D01*
X125213551Y-43861449D01*
X125386377Y-44003284D01*
X125583553Y-44108676D01*
X125797501Y-44173577D01*
X126020000Y-44195491D01*
X126242498Y-44173577D01*
X126456446Y-44108676D01*
X126653623Y-44003284D01*
X126826449Y-43861449D01*
X126968284Y-43688623D01*
X127073676Y-43491447D01*
X127138577Y-43277499D01*
X127155000Y-43110752D01*
X127155000Y-41899248D01*
X127138577Y-41732501D01*
X127073676Y-41518553D01*
X126968284Y-41321377D01*
X126826449Y-41148551D01*
X126785929Y-41115297D01*
X128365010Y-41115297D01*
X128365010Y-41284703D01*
X128398059Y-41450853D01*
X128462888Y-41607363D01*
X128557005Y-41748218D01*
X128676792Y-41868005D01*
X128817647Y-41962122D01*
X128974157Y-42026951D01*
X129140307Y-42060000D01*
X129309713Y-42060000D01*
X129475863Y-42026951D01*
X129632373Y-41962122D01*
X129773228Y-41868005D01*
X129893015Y-41748218D01*
X129987132Y-41607363D01*
X130051961Y-41450853D01*
X130085010Y-41284703D01*
X130085010Y-41115297D01*
X130051961Y-40949147D01*
X129987132Y-40792637D01*
X129893015Y-40651782D01*
X129773228Y-40531995D01*
X129632373Y-40437878D01*
X129475863Y-40373049D01*
X129309713Y-40340000D01*
X129140307Y-40340000D01*
X128974157Y-40373049D01*
X128817647Y-40437878D01*
X128676792Y-40531995D01*
X128557005Y-40651782D01*
X128462888Y-40792637D01*
X128398059Y-40949147D01*
X128365010Y-41115297D01*
X126785929Y-41115297D01*
X126653623Y-41006716D01*
X126456447Y-40901324D01*
X126242499Y-40836423D01*
X126020000Y-40814509D01*
X125797502Y-40836423D01*
X125583554Y-40901324D01*
X125386378Y-41006716D01*
X125213552Y-41148551D01*
X125150738Y-41225090D01*
X125044731Y-41154259D01*
X124870022Y-41081892D01*
X124684552Y-41045000D01*
X124495448Y-41045000D01*
X124309978Y-41081892D01*
X124135269Y-41154259D01*
X123978036Y-41259319D01*
X123844319Y-41393036D01*
X123739259Y-41550269D01*
X123666892Y-41724978D01*
X123630000Y-41910448D01*
X119770000Y-41910448D01*
X119733108Y-41724978D01*
X119660741Y-41550269D01*
X119555681Y-41393036D01*
X119421964Y-41259319D01*
X119264731Y-41154259D01*
X119090022Y-41081892D01*
X118904552Y-41045000D01*
X118715448Y-41045000D01*
X118529978Y-41081892D01*
X118355269Y-41154259D01*
X118249263Y-41225090D01*
X118186449Y-41148551D01*
X118013623Y-41006716D01*
X117816447Y-40901324D01*
X117602499Y-40836423D01*
X117380000Y-40814509D01*
X117157502Y-40836423D01*
X116943554Y-40901324D01*
X116746378Y-41006716D01*
X116573552Y-41148551D01*
X116431717Y-41321377D01*
X116326324Y-41518553D01*
X116261423Y-41732501D01*
X116245000Y-41899248D01*
X109460000Y-41899248D01*
X109460000Y-40643098D01*
X109772911Y-40852179D01*
X110225152Y-41039503D01*
X110705249Y-41135000D01*
X111194751Y-41135000D01*
X111674848Y-41039503D01*
X112127089Y-40852179D01*
X112534095Y-40580226D01*
X112880226Y-40234095D01*
X113152179Y-39827089D01*
X113339503Y-39374848D01*
X113435000Y-38894751D01*
X113435000Y-38405249D01*
X113339503Y-37925152D01*
X113152179Y-37472911D01*
X112943098Y-37160000D01*
X116644896Y-37160000D01*
X116573552Y-37218551D01*
%TA.AperFunction,Conductor*%
D18*
G36*
X116573552Y-37218551D02*
G01*
X116431717Y-37391377D01*
X116326324Y-37588553D01*
X116261423Y-37802501D01*
X116245000Y-37969248D01*
X116245000Y-38680751D01*
X116261423Y-38847498D01*
X116326324Y-39061446D01*
X116431716Y-39258623D01*
X116573551Y-39431449D01*
X116746377Y-39573284D01*
X116943553Y-39678676D01*
X117157501Y-39743577D01*
X117380000Y-39765491D01*
X117602498Y-39743577D01*
X117816446Y-39678676D01*
X118013623Y-39573284D01*
X118186449Y-39431449D01*
X118328284Y-39258623D01*
X118433676Y-39061447D01*
X118498577Y-38847499D01*
X118515000Y-38680752D01*
X118515000Y-37969249D01*
X118498577Y-37802502D01*
X118433676Y-37588554D01*
X118328284Y-37391377D01*
X118186449Y-37218551D01*
X118115105Y-37160000D01*
X125284896Y-37160000D01*
X125213552Y-37218551D01*
X125071717Y-37391377D01*
X124966324Y-37588553D01*
X124901423Y-37802501D01*
X124885000Y-37969248D01*
X124885000Y-38680751D01*
X124901423Y-38847498D01*
X124966324Y-39061446D01*
X125071716Y-39258623D01*
X125213551Y-39431449D01*
X125386377Y-39573284D01*
X125583553Y-39678676D01*
X125797501Y-39743577D01*
X126020000Y-39765491D01*
X126242498Y-39743577D01*
X126456446Y-39678676D01*
X126653623Y-39573284D01*
X126826449Y-39431449D01*
X126968284Y-39258623D01*
X127073676Y-39061447D01*
X127087675Y-39015297D01*
X127740004Y-39015297D01*
X127740004Y-39184703D01*
X127773053Y-39350853D01*
X127837882Y-39507363D01*
X127931999Y-39648218D01*
X128051786Y-39768005D01*
X128192641Y-39862122D01*
X128349151Y-39926951D01*
X128515301Y-39960000D01*
X128684707Y-39960000D01*
X128850857Y-39926951D01*
X129007367Y-39862122D01*
X129148222Y-39768005D01*
X129268009Y-39648218D01*
X129362126Y-39507363D01*
X129426955Y-39350853D01*
X129460004Y-39184703D01*
X129460004Y-39015297D01*
X129426955Y-38849147D01*
X129362126Y-38692637D01*
X129268009Y-38551782D01*
X129148222Y-38431995D01*
X129007367Y-38337878D01*
X128850857Y-38273049D01*
X128684707Y-38240000D01*
X128515301Y-38240000D01*
X128349151Y-38273049D01*
X128192641Y-38337878D01*
X128051786Y-38431995D01*
X127931999Y-38551782D01*
X127837882Y-38692637D01*
X127773053Y-38849147D01*
X127740004Y-39015297D01*
X127087675Y-39015297D01*
X127138577Y-38847499D01*
X127155000Y-38680752D01*
X127155000Y-37969249D01*
X127138577Y-37802502D01*
X127073676Y-37588554D01*
X126968284Y-37391377D01*
X126826449Y-37218551D01*
X126755105Y-37160000D01*
X130000311Y-37160000D01*
X129757821Y-37522911D01*
X129570497Y-37975152D01*
X129475000Y-38455249D01*
X129475000Y-38944751D01*
X129570497Y-39424848D01*
X129757821Y-39877089D01*
X130029774Y-40284095D01*
X130375905Y-40630226D01*
X130782911Y-40902179D01*
X131235152Y-41089503D01*
X131715249Y-41185000D01*
X132204751Y-41185000D01*
X132684848Y-41089503D01*
X133137089Y-40902179D01*
X133500000Y-40659689D01*
X133500000Y-42011295D01*
X133472274Y-41983569D01*
X133302756Y-41870301D01*
X133114398Y-41792280D01*
X132914439Y-41752506D01*
X132710561Y-41752506D01*
X132510602Y-41792280D01*
X132322244Y-41870301D01*
X132152726Y-41983569D01*
X132008563Y-42127732D01*
X131895295Y-42297250D01*
X131817274Y-42485608D01*
X131777500Y-42685567D01*
X131777500Y-42889445D01*
X131817274Y-43089404D01*
X131895295Y-43277762D01*
X132008563Y-43447280D01*
X132152726Y-43591443D01*
X132322244Y-43704711D01*
X132510602Y-43782732D01*
X132710561Y-43822506D01*
X132914439Y-43822506D01*
X133114398Y-43782732D01*
X133302756Y-43704711D01*
X133472274Y-43591443D01*
X133500000Y-43563717D01*
X133500001Y-53284002D01*
X133403937Y-53140232D01*
X133259774Y-52996069D01*
X133090256Y-52882801D01*
X132901898Y-52804780D01*
X132701939Y-52765006D01*
X132498061Y-52765006D01*
X132298102Y-52804780D01*
X132109744Y-52882801D01*
X131940226Y-52996069D01*
X131796063Y-53140232D01*
X131682795Y-53309750D01*
X131604774Y-53498108D01*
X131565000Y-53698067D01*
X131565000Y-53901945D01*
X131604774Y-54101904D01*
X131682795Y-54290262D01*
X131796063Y-54459780D01*
X131940226Y-54603943D01*
X132109744Y-54717211D01*
X132298102Y-54795232D01*
X132498061Y-54835006D01*
X132701939Y-54835006D01*
X132901898Y-54795232D01*
X133090256Y-54717211D01*
X133259774Y-54603943D01*
X133403937Y-54459780D01*
X133500001Y-54316010D01*
X133500001Y-57740311D01*
X133137089Y-57497821D01*
X132684848Y-57310497D01*
X132204751Y-57215000D01*
X131715249Y-57215000D01*
X131235152Y-57310497D01*
X130782911Y-57497821D01*
X130375905Y-57769774D01*
X130029774Y-58115905D01*
X129757821Y-58522911D01*
X129570497Y-58975152D01*
X129475000Y-59455249D01*
X129475000Y-59944751D01*
X129570497Y-60424848D01*
X129757821Y-60877089D01*
X130000311Y-61240000D01*
X112953098Y-61240000D01*
X113162179Y-60927089D01*
X113349503Y-60474848D01*
X113445000Y-59994751D01*
X113445000Y-59505249D01*
X113374337Y-59150000D01*
X118971928Y-59150000D01*
X118984188Y-59274482D01*
X119020498Y-59394180D01*
X119079463Y-59504494D01*
X119158815Y-59601185D01*
X119255506Y-59680537D01*
X119365820Y-59739502D01*
X119485518Y-59775812D01*
X119610000Y-59788072D01*
X119628250Y-59785000D01*
X119787000Y-59626250D01*
X119787000Y-58973000D01*
X119133750Y-58973000D01*
X118975000Y-59131750D01*
X118971928Y-59150000D01*
X113374337Y-59150000D01*
X113349503Y-59025152D01*
X113162179Y-58572911D01*
X112890226Y-58165905D01*
X112658363Y-57934042D01*
X121515000Y-57934042D01*
X121515000Y-58265958D01*
X121553000Y-58456996D01*
X121553000Y-58973000D01*
X121533000Y-58973000D01*
X121533000Y-59626250D01*
X121691750Y-59785000D01*
X121710000Y-59788072D01*
X121834482Y-59775812D01*
X121954180Y-59739502D01*
X122064494Y-59680537D01*
X122161185Y-59601185D01*
X122240537Y-59504494D01*
X122248042Y-59490454D01*
X122401853Y-59593228D01*
X122708504Y-59720246D01*
X123034042Y-59785000D01*
X123365958Y-59785000D01*
X123691496Y-59720246D01*
X123998147Y-59593228D01*
X124274125Y-59408825D01*
X124508825Y-59174125D01*
X124693228Y-58898147D01*
X124820246Y-58591496D01*
X124885000Y-58265958D01*
X124885000Y-57934042D01*
X124820246Y-57608504D01*
X124693228Y-57301853D01*
X124508825Y-57025875D01*
X124298247Y-56815297D01*
X128140000Y-56815297D01*
X128140000Y-56984703D01*
X128173049Y-57150853D01*
X128237878Y-57307363D01*
X128331995Y-57448218D01*
X128451782Y-57568005D01*
X128592637Y-57662122D01*
X128749147Y-57726951D01*
X128915297Y-57760000D01*
X129084703Y-57760000D01*
X129250853Y-57726951D01*
X129407363Y-57662122D01*
X129548218Y-57568005D01*
X129668005Y-57448218D01*
X129762122Y-57307363D01*
X129826951Y-57150853D01*
X129836937Y-57100650D01*
X129940225Y-57203938D01*
X130109743Y-57317206D01*
X130298101Y-57395227D01*
X130498060Y-57435001D01*
X130701938Y-57435001D01*
X130901897Y-57395227D01*
X131090255Y-57317206D01*
X131259773Y-57203938D01*
X131403936Y-57059775D01*
X131517204Y-56890257D01*
X131595225Y-56701899D01*
X131634999Y-56501940D01*
X131634999Y-56298062D01*
X131595225Y-56098103D01*
X131517204Y-55909745D01*
X131403936Y-55740227D01*
X131259773Y-55596064D01*
X131090255Y-55482796D01*
X130901897Y-55404775D01*
X130701938Y-55365001D01*
X130498060Y-55365001D01*
X130298101Y-55404775D01*
X130109743Y-55482796D01*
X129940225Y-55596064D01*
X129796062Y-55740227D01*
X129682794Y-55909745D01*
X129604773Y-56098103D01*
X129573176Y-56256953D01*
X129548218Y-56231995D01*
X129407363Y-56137878D01*
X129250853Y-56073049D01*
X129084703Y-56040000D01*
X128915297Y-56040000D01*
X128749147Y-56073049D01*
X128592637Y-56137878D01*
X128451782Y-56231995D01*
X128331995Y-56351782D01*
X128237878Y-56492637D01*
X128173049Y-56649147D01*
X128140000Y-56815297D01*
X124298247Y-56815297D01*
X124274125Y-56791175D01*
X123998147Y-56606772D01*
X123691496Y-56479754D01*
X123365958Y-56415000D01*
X123034042Y-56415000D01*
X122708504Y-56479754D01*
X122401853Y-56606772D01*
X122248042Y-56709546D01*
X122240537Y-56695506D01*
X122161185Y-56598815D01*
X122064494Y-56519463D01*
X121954180Y-56460498D01*
X121834482Y-56424188D01*
X121710000Y-56411928D01*
X121691750Y-56415000D01*
X121533000Y-56573750D01*
X121533000Y-57227000D01*
X121553000Y-57227000D01*
X121553000Y-57743004D01*
X121515000Y-57934042D01*
X112658363Y-57934042D01*
X112544095Y-57819774D01*
X112137089Y-57547821D01*
X111684848Y-57360497D01*
X111204751Y-57265000D01*
X110715249Y-57265000D01*
X110235152Y-57360497D01*
X109782911Y-57547821D01*
X109460000Y-57763583D01*
X109460000Y-57050000D01*
X118971928Y-57050000D01*
X118975000Y-57068250D01*
X119133750Y-57227000D01*
X119787000Y-57227000D01*
X119787000Y-56573750D01*
X119628250Y-56415000D01*
X119610000Y-56411928D01*
X119485518Y-56424188D01*
X119365820Y-56460498D01*
X119255506Y-56519463D01*
X119158815Y-56598815D01*
X119079463Y-56695506D01*
X119020498Y-56805820D01*
X118984188Y-56925518D01*
X118971928Y-57050000D01*
X109460000Y-57050000D01*
X109460000Y-54598061D01*
X110965000Y-54598061D01*
X110965000Y-54801939D01*
X111004774Y-55001898D01*
X111082795Y-55190256D01*
X111196063Y-55359774D01*
X111340226Y-55503937D01*
X111509744Y-55617205D01*
X111698102Y-55695226D01*
X111898061Y-55735000D01*
X112101939Y-55735000D01*
X112301898Y-55695226D01*
X112490256Y-55617205D01*
X112659774Y-55503937D01*
X112803937Y-55359774D01*
X112917205Y-55190256D01*
X112995226Y-55001898D01*
X113035000Y-54801939D01*
X113035000Y-54598061D01*
X113004311Y-54443775D01*
X116653022Y-54443775D01*
X116653022Y-54613181D01*
X116686071Y-54779331D01*
X116750900Y-54935841D01*
X116845017Y-55076696D01*
X116964804Y-55196483D01*
X117105659Y-55290600D01*
X117262169Y-55355429D01*
X117428319Y-55388478D01*
X117597725Y-55388478D01*
X117763875Y-55355429D01*
X117920385Y-55290600D01*
X118061240Y-55196483D01*
X118061700Y-55196023D01*
X118162809Y-55263583D01*
X118319319Y-55328412D01*
X118485469Y-55361461D01*
X118654875Y-55361461D01*
X118821025Y-55328412D01*
X118977535Y-55263583D01*
X119118390Y-55169466D01*
X119238177Y-55049679D01*
X119332294Y-54908824D01*
X119397123Y-54752314D01*
X119430172Y-54586164D01*
X119430172Y-54416758D01*
X119397123Y-54250608D01*
X119332294Y-54094098D01*
X119238177Y-53953243D01*
X119118390Y-53833456D01*
X118977535Y-53739339D01*
X118821025Y-53674510D01*
X118654875Y-53641461D01*
X118485469Y-53641461D01*
X118319319Y-53674510D01*
X118162809Y-53739339D01*
X118021954Y-53833456D01*
X118021494Y-53833916D01*
X117920385Y-53766356D01*
X117763875Y-53701527D01*
X117597725Y-53668478D01*
X117428319Y-53668478D01*
X117262169Y-53701527D01*
X117105659Y-53766356D01*
X116964804Y-53860473D01*
X116845017Y-53980260D01*
X116750900Y-54121115D01*
X116686071Y-54277625D01*
X116653022Y-54443775D01*
X113004311Y-54443775D01*
X112995226Y-54398102D01*
X112917205Y-54209744D01*
X112803937Y-54040226D01*
X112659774Y-53896063D01*
X112490256Y-53782795D01*
X112301898Y-53704774D01*
X112101939Y-53665000D01*
X111898061Y-53665000D01*
X111698102Y-53704774D01*
X111509744Y-53782795D01*
X111340226Y-53896063D01*
X111196063Y-54040226D01*
X111082795Y-54209744D01*
X111004774Y-54398102D01*
X110965000Y-54598061D01*
X109460000Y-54598061D01*
X109460000Y-53415295D01*
X119840000Y-53415295D01*
X119840000Y-53584701D01*
X119873049Y-53750851D01*
X119937878Y-53907361D01*
X120031995Y-54048216D01*
X120151782Y-54168003D01*
X120292637Y-54262120D01*
X120449147Y-54326949D01*
X120615297Y-54359998D01*
X120784703Y-54359998D01*
X120950853Y-54326949D01*
X121107363Y-54262120D01*
X121248218Y-54168003D01*
X121325934Y-54090287D01*
X122540000Y-54090287D01*
X122540000Y-54259693D01*
X122573049Y-54425843D01*
X122637878Y-54582353D01*
X122731995Y-54723208D01*
X122851782Y-54842995D01*
X122992637Y-54937112D01*
X123149147Y-55001941D01*
X123315297Y-55034990D01*
X123484703Y-55034990D01*
X123650853Y-55001941D01*
X123807363Y-54937112D01*
X123948218Y-54842995D01*
X124040014Y-54751199D01*
X124040014Y-54884703D01*
X124073063Y-55050853D01*
X124137892Y-55207363D01*
X124232009Y-55348218D01*
X124351796Y-55468005D01*
X124492651Y-55562122D01*
X124649161Y-55626951D01*
X124815311Y-55660000D01*
X124984717Y-55660000D01*
X125150867Y-55626951D01*
X125307377Y-55562122D01*
X125448232Y-55468005D01*
X125568019Y-55348218D01*
X125662136Y-55207363D01*
X125726965Y-55050853D01*
X125750249Y-54933795D01*
X125792637Y-54962118D01*
X125949147Y-55026947D01*
X126115297Y-55059996D01*
X126284703Y-55059996D01*
X126450853Y-55026947D01*
X126607363Y-54962118D01*
X126748218Y-54868001D01*
X126868005Y-54748214D01*
X126962122Y-54607359D01*
X127026951Y-54450849D01*
X127060000Y-54284699D01*
X127060000Y-54115293D01*
X127026951Y-53949143D01*
X126962122Y-53792633D01*
X126868005Y-53651778D01*
X126748218Y-53531991D01*
X126607363Y-53437874D01*
X126450853Y-53373045D01*
X126284703Y-53339996D01*
X126115297Y-53339996D01*
X125949147Y-53373045D01*
X125792637Y-53437874D01*
X125651782Y-53531991D01*
X125531995Y-53651778D01*
X125437878Y-53792633D01*
X125373049Y-53949143D01*
X125349765Y-54066201D01*
X125307377Y-54037878D01*
X125150867Y-53973049D01*
X124984717Y-53940000D01*
X124815311Y-53940000D01*
X124649161Y-53973049D01*
X124492651Y-54037878D01*
X124351796Y-54131995D01*
X124260000Y-54223791D01*
X124260000Y-54090287D01*
X124226951Y-53924137D01*
X124162122Y-53767627D01*
X124068005Y-53626772D01*
X123948218Y-53506985D01*
X123807363Y-53412868D01*
X123650853Y-53348039D01*
X123484703Y-53314990D01*
X123315297Y-53314990D01*
X123149147Y-53348039D01*
X122992637Y-53412868D01*
X122851782Y-53506985D01*
X122731995Y-53626772D01*
X122637878Y-53767627D01*
X122573049Y-53924137D01*
X122540000Y-54090287D01*
X121325934Y-54090287D01*
X121368005Y-54048216D01*
X121462122Y-53907361D01*
X121526951Y-53750851D01*
X121560000Y-53584701D01*
X121560000Y-53415295D01*
X121526951Y-53249145D01*
X121462122Y-53092635D01*
X121368005Y-52951780D01*
X121248218Y-52831993D01*
X121107363Y-52737876D01*
X120950853Y-52673047D01*
X120784703Y-52639998D01*
X120615297Y-52639998D01*
X120449147Y-52673047D01*
X120292637Y-52737876D01*
X120151782Y-52831993D01*
X120031995Y-52951780D01*
X119937878Y-53092635D01*
X119873049Y-53249145D01*
X119840000Y-53415295D01*
X109460000Y-53415295D01*
X109460000Y-46698055D01*
X110965000Y-46698055D01*
X110965000Y-46901933D01*
X111004774Y-47101892D01*
X111082795Y-47290250D01*
X111196063Y-47459768D01*
X111340226Y-47603931D01*
X111509744Y-47717199D01*
X111693712Y-47793402D01*
X111682795Y-47809740D01*
X111604774Y-47998098D01*
X111565000Y-48198057D01*
X111565000Y-48401935D01*
X111604774Y-48601894D01*
X111682795Y-48790252D01*
X111796063Y-48959770D01*
X111940226Y-49103933D01*
X112109744Y-49217201D01*
X112291346Y-49292423D01*
X112231987Y-49351782D01*
X112137870Y-49492637D01*
X112073041Y-49649147D01*
X112039992Y-49815297D01*
X112039992Y-49984703D01*
X112073041Y-50150853D01*
X112134824Y-50300010D01*
X112073049Y-50449147D01*
X112040000Y-50615297D01*
X112040000Y-50784703D01*
X112073049Y-50950853D01*
X112137878Y-51107363D01*
X112231995Y-51248218D01*
X112351782Y-51368005D01*
X112492637Y-51462122D01*
X112649147Y-51526951D01*
X112815297Y-51560000D01*
X112984703Y-51560000D01*
X113150853Y-51526951D01*
X113307363Y-51462122D01*
X113448218Y-51368005D01*
X113568005Y-51248218D01*
X113662122Y-51107363D01*
X113726951Y-50950853D01*
X113760000Y-50784703D01*
X113760000Y-50615297D01*
X113726951Y-50449147D01*
X113665168Y-50299990D01*
X113726943Y-50150853D01*
X113729044Y-50140287D01*
X121106939Y-50140287D01*
X121106939Y-50309693D01*
X121139988Y-50475843D01*
X121204817Y-50632353D01*
X121298934Y-50773208D01*
X121418721Y-50892995D01*
X121559576Y-50987112D01*
X121716086Y-51051941D01*
X121882236Y-51084990D01*
X122051642Y-51084990D01*
X122217792Y-51051941D01*
X122374302Y-50987112D01*
X122515157Y-50892995D01*
X122634944Y-50773208D01*
X122729061Y-50632353D01*
X122764647Y-50546442D01*
X122766120Y-50550000D01*
X122704774Y-50698102D01*
X122665000Y-50898061D01*
X122665000Y-51101939D01*
X122704774Y-51301898D01*
X122766120Y-51450000D01*
X122704774Y-51598102D01*
X122665000Y-51798061D01*
X122665000Y-52001939D01*
X122704774Y-52201898D01*
X122782795Y-52390256D01*
X122896063Y-52559774D01*
X123040226Y-52703937D01*
X123209744Y-52817205D01*
X123398102Y-52895226D01*
X123598061Y-52935000D01*
X123801939Y-52935000D01*
X124001898Y-52895226D01*
X124150000Y-52833880D01*
X124298102Y-52895226D01*
X124498061Y-52935000D01*
X124701939Y-52935000D01*
X124901898Y-52895226D01*
X125050000Y-52833880D01*
X125198102Y-52895226D01*
X125398061Y-52935000D01*
X125601939Y-52935000D01*
X125801898Y-52895226D01*
X125990256Y-52817205D01*
X126159774Y-52703937D01*
X126303937Y-52559774D01*
X126417205Y-52390256D01*
X126495226Y-52201898D01*
X126535000Y-52001939D01*
X126535000Y-51798061D01*
X126513070Y-51687808D01*
X126725011Y-51687808D01*
X126725011Y-51857214D01*
X126758060Y-52023364D01*
X126822889Y-52179874D01*
X126917006Y-52320729D01*
X127036793Y-52440516D01*
X127177648Y-52534633D01*
X127334158Y-52599462D01*
X127500308Y-52632511D01*
X127669714Y-52632511D01*
X127835864Y-52599462D01*
X127992374Y-52534633D01*
X128133229Y-52440516D01*
X128253016Y-52320729D01*
X128347133Y-52179874D01*
X128411962Y-52023364D01*
X128445011Y-51857214D01*
X128445011Y-51687808D01*
X128411962Y-51521658D01*
X128347133Y-51365148D01*
X128253016Y-51224293D01*
X128226784Y-51198061D01*
X128565000Y-51198061D01*
X128565000Y-51401939D01*
X128604774Y-51601898D01*
X128682795Y-51790256D01*
X128796063Y-51959774D01*
X128940226Y-52103937D01*
X129109744Y-52217205D01*
X129298102Y-52295226D01*
X129498061Y-52335000D01*
X129701939Y-52335000D01*
X129901898Y-52295226D01*
X130090256Y-52217205D01*
X130259774Y-52103937D01*
X130403937Y-51959774D01*
X130517205Y-51790256D01*
X130595226Y-51601898D01*
X130635000Y-51401939D01*
X130635000Y-51198061D01*
X130595226Y-50998102D01*
X130517205Y-50809744D01*
X130403937Y-50640226D01*
X130259774Y-50496063D01*
X130090256Y-50382795D01*
X129901898Y-50304774D01*
X129701939Y-50265000D01*
X129498061Y-50265000D01*
X129298102Y-50304774D01*
X129109744Y-50382795D01*
X128940226Y-50496063D01*
X128796063Y-50640226D01*
X128682795Y-50809744D01*
X128604774Y-50998102D01*
X128565000Y-51198061D01*
X128226784Y-51198061D01*
X128133229Y-51104506D01*
X127992374Y-51010389D01*
X127835864Y-50945560D01*
X127669714Y-50912511D01*
X127500308Y-50912511D01*
X127334158Y-50945560D01*
X127177648Y-51010389D01*
X127036793Y-51104506D01*
X126917006Y-51224293D01*
X126822889Y-51365148D01*
X126758060Y-51521658D01*
X126725011Y-51687808D01*
X126513070Y-51687808D01*
X126495226Y-51598102D01*
X126433880Y-51450000D01*
X126495226Y-51301898D01*
X126535000Y-51101939D01*
X126535000Y-50898061D01*
X126495226Y-50698102D01*
X126433880Y-50550000D01*
X126495226Y-50401898D01*
X126535000Y-50201939D01*
X126535000Y-49998061D01*
X126495226Y-49798102D01*
X126417205Y-49609744D01*
X126303937Y-49440226D01*
X126159774Y-49296063D01*
X126047645Y-49221141D01*
X131188078Y-49221141D01*
X131188078Y-49425019D01*
X131227852Y-49624978D01*
X131305873Y-49813336D01*
X131419141Y-49982854D01*
X131563304Y-50127017D01*
X131732822Y-50240285D01*
X131921180Y-50318306D01*
X132121139Y-50358080D01*
X132325017Y-50358080D01*
X132524976Y-50318306D01*
X132713334Y-50240285D01*
X132882852Y-50127017D01*
X133027015Y-49982854D01*
X133140283Y-49813336D01*
X133218304Y-49624978D01*
X133258078Y-49425019D01*
X133258078Y-49221141D01*
X133218304Y-49021182D01*
X133140283Y-48832824D01*
X133027015Y-48663306D01*
X132882852Y-48519143D01*
X132713334Y-48405875D01*
X132524976Y-48327854D01*
X132325017Y-48288080D01*
X132121139Y-48288080D01*
X131921180Y-48327854D01*
X131732822Y-48405875D01*
X131563304Y-48519143D01*
X131419141Y-48663306D01*
X131305873Y-48832824D01*
X131227852Y-49021182D01*
X131188078Y-49221141D01*
X126047645Y-49221141D01*
X125990256Y-49182795D01*
X125801898Y-49104774D01*
X125601939Y-49065000D01*
X125398061Y-49065000D01*
X125198102Y-49104774D01*
X125050000Y-49166120D01*
X124901898Y-49104774D01*
X124701939Y-49065000D01*
X124498061Y-49065000D01*
X124298102Y-49104774D01*
X124150000Y-49166120D01*
X124001898Y-49104774D01*
X123801939Y-49065000D01*
X123598061Y-49065000D01*
X123455631Y-49093331D01*
X123426951Y-48949147D01*
X123362122Y-48792637D01*
X123268005Y-48651782D01*
X123148218Y-48531995D01*
X123007363Y-48437878D01*
X122850853Y-48373049D01*
X122684703Y-48340000D01*
X122515297Y-48340000D01*
X122349147Y-48373049D01*
X122192637Y-48437878D01*
X122051782Y-48531995D01*
X121931995Y-48651782D01*
X121837878Y-48792637D01*
X121773049Y-48949147D01*
X121740000Y-49115297D01*
X121740000Y-49284703D01*
X121760776Y-49389150D01*
X121716086Y-49398039D01*
X121559576Y-49462868D01*
X121418721Y-49556985D01*
X121298934Y-49676772D01*
X121204817Y-49817627D01*
X121139988Y-49974137D01*
X121106939Y-50140287D01*
X113729044Y-50140287D01*
X113759992Y-49984703D01*
X113759992Y-49815297D01*
X113726943Y-49649147D01*
X113662114Y-49492637D01*
X113567997Y-49351782D01*
X113448210Y-49231995D01*
X113307355Y-49137878D01*
X113246622Y-49112721D01*
X113259774Y-49103933D01*
X113403937Y-48959770D01*
X113517205Y-48790252D01*
X113595226Y-48601894D01*
X113635000Y-48401935D01*
X113635000Y-48198057D01*
X113618539Y-48115297D01*
X123240000Y-48115297D01*
X123240000Y-48284703D01*
X123273049Y-48450853D01*
X123337878Y-48607363D01*
X123431995Y-48748218D01*
X123551782Y-48868005D01*
X123692637Y-48962122D01*
X123849147Y-49026951D01*
X124015297Y-49060000D01*
X124184703Y-49060000D01*
X124350853Y-49026951D01*
X124507363Y-48962122D01*
X124648218Y-48868005D01*
X124768005Y-48748218D01*
X124850000Y-48625505D01*
X124931995Y-48748218D01*
X125051782Y-48868005D01*
X125192637Y-48962122D01*
X125349147Y-49026951D01*
X125515297Y-49060000D01*
X125684703Y-49060000D01*
X125850853Y-49026951D01*
X126007363Y-48962122D01*
X126148218Y-48868005D01*
X126268005Y-48748218D01*
X126362122Y-48607363D01*
X126426951Y-48450853D01*
X126460000Y-48284703D01*
X126460000Y-48115297D01*
X126426951Y-47949147D01*
X126362122Y-47792637D01*
X126268005Y-47651782D01*
X126148218Y-47531995D01*
X126007363Y-47437878D01*
X125850853Y-47373049D01*
X125684703Y-47340000D01*
X125515297Y-47340000D01*
X125349147Y-47373049D01*
X125192637Y-47437878D01*
X125051782Y-47531995D01*
X124931995Y-47651782D01*
X124850000Y-47774495D01*
X124768005Y-47651782D01*
X124648218Y-47531995D01*
X124507363Y-47437878D01*
X124350853Y-47373049D01*
X124184703Y-47340000D01*
X124015297Y-47340000D01*
X123849147Y-47373049D01*
X123692637Y-47437878D01*
X123551782Y-47531995D01*
X123431995Y-47651782D01*
X123337878Y-47792637D01*
X123273049Y-47949147D01*
X123240000Y-48115297D01*
X113618539Y-48115297D01*
X113595226Y-47998098D01*
X113517205Y-47809740D01*
X113403937Y-47640222D01*
X113259774Y-47496059D01*
X113090256Y-47382791D01*
X112906288Y-47306588D01*
X112917205Y-47290250D01*
X112995226Y-47101892D01*
X113035000Y-46901933D01*
X113035000Y-46698055D01*
X112995226Y-46498096D01*
X112917205Y-46309738D01*
X112803937Y-46140220D01*
X112679014Y-46015297D01*
X128240000Y-46015297D01*
X128240000Y-46184703D01*
X128273049Y-46350853D01*
X128337878Y-46507363D01*
X128431995Y-46648218D01*
X128551782Y-46768005D01*
X128692637Y-46862122D01*
X128849147Y-46926951D01*
X129015297Y-46960000D01*
X129184703Y-46960000D01*
X129184989Y-46959943D01*
X129148039Y-47049147D01*
X129114990Y-47215297D01*
X129114990Y-47384703D01*
X129148039Y-47550853D01*
X129212868Y-47707363D01*
X129306985Y-47848218D01*
X129353505Y-47894738D01*
X129348086Y-47902847D01*
X129283257Y-48059357D01*
X129250208Y-48225507D01*
X129250208Y-48394913D01*
X129283257Y-48561063D01*
X129348086Y-48717573D01*
X129442203Y-48858428D01*
X129561990Y-48978215D01*
X129702845Y-49072332D01*
X129859355Y-49137161D01*
X130025505Y-49170210D01*
X130194911Y-49170210D01*
X130361061Y-49137161D01*
X130517571Y-49072332D01*
X130658426Y-48978215D01*
X130778213Y-48858428D01*
X130872330Y-48717573D01*
X130937159Y-48561063D01*
X130970208Y-48394913D01*
X130970208Y-48225507D01*
X130937159Y-48059357D01*
X130872330Y-47902847D01*
X130778213Y-47761992D01*
X130731693Y-47715472D01*
X130737112Y-47707363D01*
X130801941Y-47550853D01*
X130834990Y-47384703D01*
X130834990Y-47215297D01*
X130801941Y-47049147D01*
X130737112Y-46892637D01*
X130642995Y-46751782D01*
X130523208Y-46631995D01*
X130382353Y-46537878D01*
X130225843Y-46473049D01*
X130059693Y-46440000D01*
X129890287Y-46440000D01*
X129890001Y-46440057D01*
X129926951Y-46350853D01*
X129960000Y-46184703D01*
X129960000Y-46015297D01*
X129926951Y-45849147D01*
X129862122Y-45692637D01*
X129768005Y-45551782D01*
X129648218Y-45431995D01*
X129507363Y-45337878D01*
X129350853Y-45273049D01*
X129184703Y-45240000D01*
X129015297Y-45240000D01*
X128849147Y-45273049D01*
X128692637Y-45337878D01*
X128551782Y-45431995D01*
X128431995Y-45551782D01*
X128337878Y-45692637D01*
X128273049Y-45849147D01*
X128240000Y-46015297D01*
X112679014Y-46015297D01*
X112659774Y-45996057D01*
X112490256Y-45882789D01*
X112301898Y-45804768D01*
X112101939Y-45764994D01*
X111898061Y-45764994D01*
X111698102Y-45804768D01*
X111509744Y-45882789D01*
X111340226Y-45996057D01*
X111196063Y-46140220D01*
X111082795Y-46309738D01*
X111004774Y-46498096D01*
X110965000Y-46698055D01*
X109460000Y-46698055D01*
X109460000Y-41899248D01*
X116245000Y-41899248D01*
X116245000Y-43110751D01*
X116261423Y-43277498D01*
X116326324Y-43491446D01*
X116431716Y-43688623D01*
X116573551Y-43861449D01*
X116746377Y-44003284D01*
X116943553Y-44108676D01*
X117157501Y-44173577D01*
X117380000Y-44195491D01*
X117602498Y-44173577D01*
X117816446Y-44108676D01*
X118013623Y-44003284D01*
X118186449Y-43861449D01*
X118328284Y-43688623D01*
X118433676Y-43491447D01*
X118498577Y-43277499D01*
X118515000Y-43110752D01*
X118515000Y-42921904D01*
X118529978Y-42928108D01*
X118715448Y-42965000D01*
X118904552Y-42965000D01*
X119090022Y-42928108D01*
X119264731Y-42855741D01*
X119421964Y-42750681D01*
X119555681Y-42616964D01*
X119660741Y-42459731D01*
X119733108Y-42285022D01*
X119770000Y-42099552D01*
X119770000Y-41910448D01*
X123630000Y-41910448D01*
X123630000Y-42099552D01*
X123666892Y-42285022D01*
X123739259Y-42459731D01*
X123844319Y-42616964D01*
X123978036Y-42750681D01*
X124135269Y-42855741D01*
X124309978Y-42928108D01*
X124495448Y-42965000D01*
X124684552Y-42965000D01*
X124870022Y-42928108D01*
X124885000Y-42921904D01*
X124885000Y-43110751D01*
X124901423Y-43277498D01*
X124966324Y-43491446D01*
X125071716Y-43688623D01*
X125213551Y-43861449D01*
X125386377Y-44003284D01*
X125583553Y-44108676D01*
X125797501Y-44173577D01*
X126020000Y-44195491D01*
X126242498Y-44173577D01*
X126456446Y-44108676D01*
X126653623Y-44003284D01*
X126826449Y-43861449D01*
X126968284Y-43688623D01*
X127073676Y-43491447D01*
X127138577Y-43277499D01*
X127155000Y-43110752D01*
X127155000Y-41899248D01*
X127138577Y-41732501D01*
X127073676Y-41518553D01*
X126968284Y-41321377D01*
X126826449Y-41148551D01*
X126785929Y-41115297D01*
X128365010Y-41115297D01*
X128365010Y-41284703D01*
X128398059Y-41450853D01*
X128462888Y-41607363D01*
X128557005Y-41748218D01*
X128676792Y-41868005D01*
X128817647Y-41962122D01*
X128974157Y-42026951D01*
X129140307Y-42060000D01*
X129309713Y-42060000D01*
X129475863Y-42026951D01*
X129632373Y-41962122D01*
X129773228Y-41868005D01*
X129893015Y-41748218D01*
X129987132Y-41607363D01*
X130051961Y-41450853D01*
X130085010Y-41284703D01*
X130085010Y-41115297D01*
X130051961Y-40949147D01*
X129987132Y-40792637D01*
X129893015Y-40651782D01*
X129773228Y-40531995D01*
X129632373Y-40437878D01*
X129475863Y-40373049D01*
X129309713Y-40340000D01*
X129140307Y-40340000D01*
X128974157Y-40373049D01*
X128817647Y-40437878D01*
X128676792Y-40531995D01*
X128557005Y-40651782D01*
X128462888Y-40792637D01*
X128398059Y-40949147D01*
X128365010Y-41115297D01*
X126785929Y-41115297D01*
X126653623Y-41006716D01*
X126456447Y-40901324D01*
X126242499Y-40836423D01*
X126020000Y-40814509D01*
X125797502Y-40836423D01*
X125583554Y-40901324D01*
X125386378Y-41006716D01*
X125213552Y-41148551D01*
X125150738Y-41225090D01*
X125044731Y-41154259D01*
X124870022Y-41081892D01*
X124684552Y-41045000D01*
X124495448Y-41045000D01*
X124309978Y-41081892D01*
X124135269Y-41154259D01*
X123978036Y-41259319D01*
X123844319Y-41393036D01*
X123739259Y-41550269D01*
X123666892Y-41724978D01*
X123630000Y-41910448D01*
X119770000Y-41910448D01*
X119733108Y-41724978D01*
X119660741Y-41550269D01*
X119555681Y-41393036D01*
X119421964Y-41259319D01*
X119264731Y-41154259D01*
X119090022Y-41081892D01*
X118904552Y-41045000D01*
X118715448Y-41045000D01*
X118529978Y-41081892D01*
X118355269Y-41154259D01*
X118249263Y-41225090D01*
X118186449Y-41148551D01*
X118013623Y-41006716D01*
X117816447Y-40901324D01*
X117602499Y-40836423D01*
X117380000Y-40814509D01*
X117157502Y-40836423D01*
X116943554Y-40901324D01*
X116746378Y-41006716D01*
X116573552Y-41148551D01*
X116431717Y-41321377D01*
X116326324Y-41518553D01*
X116261423Y-41732501D01*
X116245000Y-41899248D01*
X109460000Y-41899248D01*
X109460000Y-40643098D01*
X109772911Y-40852179D01*
X110225152Y-41039503D01*
X110705249Y-41135000D01*
X111194751Y-41135000D01*
X111674848Y-41039503D01*
X112127089Y-40852179D01*
X112534095Y-40580226D01*
X112880226Y-40234095D01*
X113152179Y-39827089D01*
X113339503Y-39374848D01*
X113435000Y-38894751D01*
X113435000Y-38405249D01*
X113339503Y-37925152D01*
X113152179Y-37472911D01*
X112943098Y-37160000D01*
X116644896Y-37160000D01*
X116573552Y-37218551D01*
G37*
%TD.AperFunction*%
%TD*%
M02*
